<svg width="20" height="20" viewBox="0 0 20 20" fill="none" xmlns="http://www.w3.org/2000/svg">
<circle cx="10" cy="10" r="9.5" fill="#3D5CFF" stroke="white"/>
<path fill-rule="evenodd" clip-rule="evenodd" d="M8.37716 6.0637L7.86732 7.08337H6.45817C5.88287 7.08337 5.4165 7.54974 5.4165 8.12504V13.125C5.4165 13.7003 5.88287 14.1667 6.45817 14.1667H13.5415C14.1168 14.1667 14.5832 13.7003 14.5832 13.125V8.12504C14.5832 7.54974 14.1168 7.08337 13.5415 7.08337H12.1324L11.6225 6.0637C11.5519 5.92254 11.4077 5.83337 11.2498 5.83337H8.74984C8.59202 5.83337 8.44774 5.92254 8.37716 6.0637ZM9.99984 8.54171C11.1504 8.54171 12.0832 9.47444 12.0832 10.625C12.0832 11.7756 11.1504 12.7084 9.99984 12.7084C8.84924 12.7084 7.9165 11.7756 7.9165 10.625C7.9165 9.47444 8.84924 8.54171 9.99984 8.54171Z" fill="white"/>
</svg>
