<svg width="12" height="12" viewBox="0 0 12 12" fill="none" xmlns="http://www.w3.org/2000/svg">
<path fill-rule="evenodd" clip-rule="evenodd" d="M6 0.5C9.03757 0.5 11.5 2.96243 11.5 6C11.5 9.03757 9.03757 11.5 6 11.5C2.96243 11.5 0.5 9.03757 0.5 6C0.5 2.96243 2.96243 0.5 6 0.5ZM6.00212 2.5C5.72598 2.49997 5.5021 2.72381 5.50207 2.99995L5.50177 6.00215C5.50176 6.13478 5.55444 6.26197 5.64822 6.35575L7.76807 8.4756C7.96333 8.67087 8.27991 8.67087 8.47517 8.4756C8.67044 8.28034 8.67044 7.96376 8.47517 7.7685L6.50179 5.79511L6.50207 3.00005C6.5021 2.72391 6.27826 2.50003 6.00212 2.5Z" fill="#B8B8D2"/>
</svg>
