<svg width="34" height="34" fill="none" xmlns="http://www.w3.org/2000/svg"><path fill-rule="evenodd" clip-rule="evenodd" d="M33.01 13.91H17v6.575h9.15c-.395 2.125-1.593 3.925-3.393 5.131v4.265h5.494c3.214-2.96 5.069-7.317 5.069-12.495 0-1.205-.108-2.364-.31-3.477z" fill="#4285F4"/><path fill-rule="evenodd" clip-rule="evenodd" d="m28.25 29.881-5.493-4.265c-1.523 1.02-3.47 1.623-5.757 1.623-4.428 0-8.176-2.99-9.512-7.009h-5.68v4.405C4.605 30.19 10.354 34 17 34c4.59 0 8.438-1.522 11.25-4.119z" fill="#34A853"/><path fill-rule="evenodd" clip-rule="evenodd" d="M6.955 17c0-1.12.193-2.21.533-3.23V9.366h-5.68A16.993 16.993 0 0 0 0 17c0 2.743.657 5.34 1.808 7.635l5.68-4.405c-.34-1.02-.533-2.11-.533-3.23z" fill="#FBBC05"/><path fill-rule="evenodd" clip-rule="evenodd" d="m23.499 9.304 4.876-4.876C25.43 1.685 21.582 0 17 0 10.354 0 4.605 3.81 1.808 9.366l5.68 4.404C8.824 9.752 12.572 6.761 17 6.761c2.496 0 4.737.858 6.499 2.543z" fill="#EA4335"/></svg>

