<svg width="20" height="20" viewBox="0 0 20 20" fill="none" xmlns="http://www.w3.org/2000/svg">
<path fill-rule="evenodd" clip-rule="evenodd" d="M2.49992 2.5H17.4999C18.4204 2.5 19.1666 3.2462 19.1666 4.16667V15.8333C19.1666 16.7538 18.4204 17.5 17.4999 17.5H2.49992C1.57945 17.5 0.833252 16.7538 0.833252 15.8333V4.16667C0.833252 3.24619 1.57944 2.5 2.49992 2.5ZM17.4999 7.5V5.83333H2.49992V7.5H17.4999ZM11.2499 12.5H14.9999C15.4602 12.5 15.8333 12.8731 15.8333 13.3333C15.8333 13.7936 15.4602 14.1667 14.9999 14.1667H11.2499C10.7897 14.1667 10.4166 13.7936 10.4166 13.3333C10.4166 12.8731 10.7897 12.5 11.2499 12.5Z" fill="#FF6905"/>
</svg>
