<svg width="20" height="20" viewBox="0 0 20 20" fill="none" xmlns="http://www.w3.org/2000/svg">
<path fill-rule="evenodd" clip-rule="evenodd" d="M0.833252 9.99992C0.833252 4.93731 4.93731 0.833252 9.99992 0.833252C15.0625 0.833252 19.1666 4.93731 19.1666 9.99992C19.1666 15.0625 15.0625 19.1666 9.99992 19.1666H1.66665C1.20641 19.1666 0.833252 18.7934 0.833252 18.3332V9.99992ZM4.99992 7.49992C4.99992 7.96016 5.37301 8.33325 5.83325 8.33325H13.3333C13.7935 8.33325 14.1666 7.96016 14.1666 7.49992C14.1666 7.03968 13.7935 6.66658 13.3333 6.66658H5.83325C5.37301 6.66658 4.99992 7.03968 4.99992 7.49992ZM4.99992 10.8333C4.99992 11.2935 5.37301 11.6666 5.83325 11.6666H13.3333C13.7935 11.6666 14.1666 11.2935 14.1666 10.8333C14.1666 10.373 13.7935 9.99992 13.3333 9.99992H5.83325C5.37301 9.99992 4.99992 10.373 4.99992 10.8333ZM5.83325 13.3333H9.99992C10.4602 13.3333 10.8333 13.7063 10.8333 14.1666C10.8333 14.6268 10.4602 14.9999 9.99992 14.9999H5.83325C5.37301 14.9999 4.99992 14.6268 4.99992 14.1666C4.99992 13.7063 5.37301 13.3333 5.83325 13.3333Z" fill="#3D5CFF"/>
</svg>
