<svg width="20" height="20" fill="none" xmlns="http://www.w3.org/2000/svg"><path fill-rule="evenodd" clip-rule="evenodd" d="m10.746 1.713 2.386 4.808 5.322.776a.833.833 0 0 1 .463 1.42l-3.871 3.79.919 5.266a.833.833 0 0 1-1.213.88L10 16.118l-4.752 2.533a.833.833 0 0 1-1.213-.88l.926-5.265-3.877-3.79a.833.833 0 0 1 .463-1.42l5.35-.776 2.354-4.804a.833.833 0 0 1 1.495-.004zM8.201 7.649a.833.833 0 0 1-.629.458l-4.117.597 2.986 2.919c.196.192.285.47.238.74l-.706 4.014 3.635-1.938a.833.833 0 0 1 .784 0l3.638 1.94-.701-4.017a.833.833 0 0 1 .237-.739l2.982-2.92-4.088-.596a.833.833 0 0 1-.627-.454l-1.829-3.685-1.803 3.681z" fill="#FF6905"/></svg>