<svg width="36" height="36" fill="none" xmlns="http://www.w3.org/2000/svg"><g clip-path="url(#a)"><circle cx="18" cy="18" r="18" fill="#EAEAFF"/><path fill-rule="evenodd" clip-rule="evenodd" d="M18 36C8.059 36 0 27.941 0 18S8.059 0 18 0s18 8.059 18 18-8.059 18-18 18z" fill="#FFEBF0"/><path d="M20.2 14.01s.393-.241 1.027-.161c.633.08.92.321.92.321M17.076 14.01s-.393-.241-1.027-.161c-.633.08-.919.321-.919.321" fill="#fff"/><path d="M8.847 29.283c-3.535 1.606-7.41 6.57-8.837 12.39h6.32l-1.045 5.284a27.581 27.581 0 0 0 12.577 3.017c4.553 0 8.837-1.098 12.622-3.044l-1.107-4.58 6.391-.57c-.009 0-1.481-8.213-8.22-12.096-5.401-3.106-13.72-2.642-18.701-.401z" fill="#3D5CFF"/><path d="m8.052 35.683-3.758 5.99 2.133-.01 1.625-5.98zM29.377 42.35l1.9-.16-4.24-7.257 2.34 7.418z" fill="#224BF4"/><path d="M6.41 41.762c-.045-.01-.072-.063-.063-.108l1.785-6.623c.009-.044.062-.071.107-.062.045.009.071.062.063.107l-1.786 6.623a.086.086 0 0 1-.08.063h-.027zM29.207 42.35l-2.285-7.417c-.018-.044.008-.09.053-.107.045-.018.09.009.107.053l2.294 7.418c.018.045-.009.09-.053.107-.018 0-.027.01-.036.01a.086.086 0 0 1-.08-.063zM11.609 14.715s-2.089 0-2.651-.91c-.563-.902.259-1.563.259-1.563s-1.134-1.5-.536-2.874c.705-1.616 2.357-1.277 2.357-1.277s-1.205-2.133.267-3.73c1.803-1.964 4.82 0 4.82 0s.197-1.277 1.51-1.277c1.302 0 1.302.785 1.302.785s1.17-1.58 3.214-.982c3.008.884 2.49 4.223 2.49 4.223s1.205-.295 1.607 1.08c.402 1.374-.902 1.865-.902 1.865s1.215-.196 1.518.786c.455 1.473-.803 2.258-.803 2.258l-.706 3.437-13.46.553-.286-2.374z" fill="#1F1F39"/><path d="M9.28 14.411c-1.456.67-1.608 2.687-.51 3.954 1.098 1.268 3.865.973 3.865.973l-.401-4.534s-1.5-1.062-2.955-.393zM26.721 14.411c1.455.67 1.607 2.687.51 3.954-1.099 1.268-3.866.973-3.866.973l.74-4.597s1.152-1 2.616-.33z" fill="#C43D28"/><path d="M24.15 18.401c0-.027.01-.562.599-1.473.598-.92 1.696-1.223 1.74-1.24.063-.018.116.017.134.08.018.062-.018.116-.08.134-.01 0-1.063.303-1.616 1.142-.553.848-.562 1.348-.562 1.357a.109.109 0 0 1-.107.107.109.109 0 0 1-.108-.107zM12.127 18.401s-.01-.509-.563-1.357c-.553-.848-1.606-1.142-1.615-1.142-.063-.018-.09-.08-.08-.134.008-.054.08-.09.133-.08.045.008 1.143.32 1.74 1.24.599.91.599 1.455.599 1.473a.109.109 0 0 1-.107.107.109.109 0 0 1-.107-.107z" fill="#1F1F39"/><path d="m14.965 23.427-.366 5.07s.51 1.116 3.205 1.116c2.919 0 3.722-1.116 3.722-1.116l-.143-4.99s1.821-.295 2.696-3.58c.875-3.275.437-6.185.437-6.185s-4.302.67-5.757-1.116c-1.455-1.785-2.919-3.58-5.034-2.687-2.116.893-1.848 6.65-1.295 9.39.536 2.652 2.535 4.098 2.535 4.098z" fill="#DA5742"/><path fill-rule="evenodd" clip-rule="evenodd" d="M15.912 16.59c-.365 0-.661-.353-.661-.786 0-.434.296-.786.66-.786.365 0 .661.352.661.786 0 .433-.296.785-.66.785zM20.723 16.59c-.365 0-.66-.353-.66-.786 0-.434.295-.786.66-.786.365 0 .66.352.66.786 0 .433-.295.785-.66.785z" fill="#1F1F39"/><path d="M17.813 16.884c.223.446.803.223.803.223s-.58-.152-.58-.598l-.045-1.973s-.401 1.901-.178 2.348z" fill="#1F1F39"/><path d="M14.76 27.122c.045-.009 4.83-1.865 5.73-2.713 0-.518.019-.902.019-.902s-.875.518-2.99.446c-.983-.035-2.045-.223-2.554-.526.01.455-.16 3.517-.205 3.695z" fill="#C43D28"/><path fill-rule="evenodd" clip-rule="evenodd" d="M21.927 18.526c-.784 0-1.419-.4-1.419-.892 0-.493.636-.893 1.42-.893.783 0 1.419.4 1.419.893 0 .492-.636.892-1.42.892zM14.42 18.526c-.783 0-1.418-.4-1.418-.892 0-.493.635-.893 1.419-.893s1.419.4 1.419.893c0 .492-.635.892-1.42.892z" fill="#C43D28"/><path d="M18.303 18.731c.357-.089 1.071-.624 1.071-.624s.179-.09.268 0c.09.089-.482 1.106-.982 1.25-.625.178-1.07-.09-1.339-.447-.268-.357.09-.268.09-.268s.535.179.892.09z" fill="#fff"/><path d="M14.911 21.588c1.34.357 1.09.982 1.67.714.589-.268.75-.803 1.928-.625 1.169.179.92.803 1.669.714.75-.089 2.008-.982 2.588-1.517.59-.536 1.42-1.428 1.42-1.428s-.536 3.749-3.517 4.641c-2.24.67-5.418.357-6.838-1.696-1.419-2.053-1.508-3.213-1.508-3.213s1.25 2.053 2.588 2.41z" fill="#1F1F39"/><path d="M16.277 21.142c-.054-.036-.063-.099-.027-.152l.357-.536c.036-.053.098-.062.152-.027.053.036.063.099.027.152l-.357.536a.11.11 0 0 1-.09.044.165.165 0 0 1-.062-.017zM14.376 20.767c-.035-.054-.018-.116.027-.152l.535-.357c.054-.036.117-.018.152.027.036.053.018.116-.027.151l-.535.358a.128.128 0 0 1-.063.017.11.11 0 0 1-.089-.044zM18.196 21.231v-.446c0-.063.054-.107.107-.107.054 0 .107.053.107.107v.446a.103.103 0 0 1-.107.107.109.109 0 0 1-.107-.107zM19.892 20.999l-.178-.447c-.027-.053.009-.125.062-.142.054-.027.125.009.143.062l.179.447c.027.053-.01.124-.063.142-.009.01-.018.01-.035.01a.116.116 0 0 1-.108-.072zM21.91 20.874l-.625-.357c-.054-.027-.072-.098-.045-.152.027-.053.098-.071.152-.045l.625.357c.053.027.071.099.044.152-.026.045-.062.063-.098.063a.126.126 0 0 1-.053-.018z" fill="#1F1F39"/><g opacity=".592" fill="#BFE3C6"><path opacity=".592" d="M12.988 33.889c.16.107.375.089.562.044.232-.062.473-.178.705-.053a.51.51 0 0 1 .25.571c-.018.08.107.116.125.036a.635.635 0 0 0-.696-.786c-.232.027-.455.16-.696.143-.26-.018-.322-.25-.366-.473-.018-.098-.143-.063-.125.027.036.178.08.375.24.49zM4.749 35.995c-.009-.178.009-.339.178-.437.34-.214.679.098 1.01.125.303.027.499-.241.58-.509a.993.993 0 0 0-.117-.794c-.044-.072-.16-.01-.116.07.17.26.179.608.018.876-.107.178-.259.259-.455.196-.16-.044-.313-.134-.482-.16-.259-.045-.571.017-.696.285-.063.134-.054.286-.045.428.009.18.036.358.08.527.018.08.143.045.125-.035a2.518 2.518 0 0 1-.08-.572zM21.887 32.657c.099.259.286.428.465.634.107.116.196.285.026.392-.143.09-.33.107-.49.099-.09 0-.09.133 0 .133.222.01.615-.035.705-.276.089-.232-.143-.438-.286-.59-.205-.214-.366-.5-.357-.803.009-.268.17-.527.428-.607.09-.036.054-.16-.035-.134-.482.152-.625.714-.456 1.152zM30.002 35.335c-.107.223-.036.473.009.696.044.232.053.5-.179.634-.214.116-.464.026-.598-.16-.045-.072-.16 0-.116.07.125.179.321.304.545.286a.562.562 0 0 0 .482-.366c.08-.25-.018-.509-.054-.759-.018-.125-.018-.267.062-.383.063-.09.17-.152.286-.117.08.01.116-.115.036-.142-.197-.063-.384.071-.473.24z"/></g></g><defs><clipPath id="a"><path fill="#fff" d="M0 0h36v36H0z"/></clipPath></defs></svg>