<svg width="98" height="26" viewBox="0 0 98 26" fill="none" xmlns="http://www.w3.org/2000/svg">
<path d="M80.5798 0C81.4985 0 82.3892 0.316229 83.1022 0.895544L94.1791 9.89555C96.1493 11.4963 96.1493 14.5037 94.1791 16.1045L83.1022 25.1045C82.3892 25.6838 81.4985 26 80.5798 26H4C1.79086 26 0 24.2091 0 22V4C0 1.79086 1.79086 0 4 0L80.5798 0Z" fill="#FFD301"/>
<path d="M15.5847 12.692C15.8887 12.74 16.1647 12.864 16.4127 13.064C16.6687 13.264 16.8687 13.512 17.0127 13.808C17.1647 14.104 17.2407 14.42 17.2407 14.756C17.2407 15.18 17.1327 15.564 16.9167 15.908C16.7007 16.244 16.3847 16.512 15.9687 16.712C15.5607 16.904 15.0767 17 14.5167 17H11.3967V8.636H14.3967C14.9647 8.636 15.4487 8.732 15.8487 8.924C16.2487 9.108 16.5487 9.36 16.7487 9.68C16.9487 10 17.0487 10.36 17.0487 10.76C17.0487 11.256 16.9127 11.668 16.6407 11.996C16.3767 12.316 16.0247 12.548 15.5847 12.692ZM12.4887 12.248H14.3247C14.8367 12.248 15.2327 12.128 15.5127 11.888C15.7927 11.648 15.9327 11.316 15.9327 10.892C15.9327 10.468 15.7927 10.136 15.5127 9.896C15.2327 9.656 14.8287 9.536 14.3007 9.536H12.4887V12.248ZM14.4207 16.1C14.9647 16.1 15.3887 15.972 15.6927 15.716C15.9967 15.46 16.1487 15.104 16.1487 14.648C16.1487 14.184 15.9887 13.82 15.6687 13.556C15.3487 13.284 14.9207 13.148 14.3847 13.148H12.4887V16.1H14.4207ZM19.848 9.524V12.32H22.896V13.22H19.848V16.1H23.256V17H18.756V8.624H23.256V9.524H19.848ZM27.5604 17.084C27.0084 17.084 26.5124 16.988 26.0724 16.796C25.6404 16.596 25.3004 16.324 25.0524 15.98C24.8044 15.628 24.6764 15.224 24.6684 14.768H25.8324C25.8724 15.16 26.0324 15.492 26.3124 15.764C26.6004 16.028 27.0164 16.16 27.5604 16.16C28.0804 16.16 28.4884 16.032 28.7844 15.776C29.0884 15.512 29.2404 15.176 29.2404 14.768C29.2404 14.448 29.1524 14.188 28.9764 13.988C28.8004 13.788 28.5804 13.636 28.3164 13.532C28.0524 13.428 27.6964 13.316 27.2484 13.196C26.6964 13.052 26.2524 12.908 25.9164 12.764C25.5884 12.62 25.3044 12.396 25.0644 12.092C24.8324 11.78 24.7164 11.364 24.7164 10.844C24.7164 10.388 24.8324 9.984 25.0644 9.632C25.2964 9.28 25.6204 9.008 26.0364 8.816C26.4604 8.624 26.9444 8.528 27.4884 8.528C28.2724 8.528 28.9124 8.724 29.4084 9.116C29.9124 9.508 30.1964 10.028 30.2604 10.676H29.0604C29.0204 10.356 28.8524 10.076 28.5564 9.836C28.2604 9.588 27.8684 9.464 27.3804 9.464C26.9244 9.464 26.5524 9.584 26.2644 9.824C25.9764 10.056 25.8324 10.384 25.8324 10.808C25.8324 11.112 25.9164 11.36 26.0844 11.552C26.2604 11.744 26.4724 11.892 26.7204 11.996C26.9764 12.092 27.3324 12.204 27.7884 12.332C28.3404 12.484 28.7844 12.636 29.1204 12.788C29.4564 12.932 29.7444 13.16 29.9844 13.472C30.2244 13.776 30.3444 14.192 30.3444 14.72C30.3444 15.128 30.2364 15.512 30.0204 15.872C29.8044 16.232 29.4844 16.524 29.0604 16.748C28.6364 16.972 28.1364 17.084 27.5604 17.084ZM37.0993 8.636V9.524H34.8193V17H33.7273V9.524H31.4353V8.636H37.0993ZM41.0955 17.084C40.5435 17.084 40.0475 16.988 39.6075 16.796C39.1755 16.596 38.8355 16.324 38.5875 15.98C38.3395 15.628 38.2115 15.224 38.2035 14.768H39.3675C39.4075 15.16 39.5675 15.492 39.8475 15.764C40.1355 16.028 40.5515 16.16 41.0955 16.16C41.6155 16.16 42.0235 16.032 42.3195 15.776C42.6235 15.512 42.7755 15.176 42.7755 14.768C42.7755 14.448 42.6875 14.188 42.5115 13.988C42.3355 13.788 42.1155 13.636 41.8515 13.532C41.5875 13.428 41.2315 13.316 40.7835 13.196C40.2315 13.052 39.7875 12.908 39.4515 12.764C39.1235 12.62 38.8395 12.396 38.5995 12.092C38.3675 11.78 38.2515 11.364 38.2515 10.844C38.2515 10.388 38.3675 9.984 38.5995 9.632C38.8315 9.28 39.1555 9.008 39.5715 8.816C39.9955 8.624 40.4795 8.528 41.0235 8.528C41.8075 8.528 42.4475 8.724 42.9435 9.116C43.4475 9.508 43.7315 10.028 43.7955 10.676H42.5955C42.5555 10.356 42.3875 10.076 42.0915 9.836C41.7955 9.588 41.4035 9.464 40.9155 9.464C40.4595 9.464 40.0875 9.584 39.7995 9.824C39.5115 10.056 39.3675 10.384 39.3675 10.808C39.3675 11.112 39.4515 11.36 39.6195 11.552C39.7955 11.744 40.0075 11.892 40.2555 11.996C40.5115 12.092 40.8675 12.204 41.3235 12.332C41.8755 12.484 42.3195 12.636 42.6555 12.788C42.9915 12.932 43.2795 13.16 43.5195 13.472C43.7595 13.776 43.8795 14.192 43.8795 14.72C43.8795 15.128 43.7715 15.512 43.5555 15.872C43.3395 16.232 43.0195 16.524 42.5955 16.748C42.1715 16.972 41.6715 17.084 41.0955 17.084ZM46.5785 9.524V12.32H49.6265V13.22H46.5785V16.1H49.9865V17H45.4865V8.624H49.9865V9.524H46.5785ZM52.7308 16.112H55.6588V17H51.6388V8.636H52.7308V16.112ZM57.9105 16.112H60.8385V17H56.8185V8.636H57.9105V16.112ZM63.0902 9.524V12.32H66.1382V13.22H63.0902V16.1H66.4982V17H61.9982V8.624H66.4982V9.524H63.0902ZM72.5546 17L70.5626 13.58H69.2426V17H68.1506V8.636H70.8506C71.4826 8.636 72.0146 8.744 72.4466 8.96C72.8866 9.176 73.2146 9.468 73.4306 9.836C73.6466 10.204 73.7546 10.624 73.7546 11.096C73.7546 11.672 73.5866 12.18 73.2506 12.62C72.9226 13.06 72.4266 13.352 71.7626 13.496L73.8626 17H72.5546ZM69.2426 12.704H70.8506C71.4426 12.704 71.8866 12.56 72.1826 12.272C72.4786 11.976 72.6266 11.584 72.6266 11.096C72.6266 10.6 72.4786 10.216 72.1826 9.944C71.8946 9.672 71.4506 9.536 70.8506 9.536H69.2426V12.704Z" fill="#1F1F39"/>
</svg>
