<svg width="175" height="224" fill="none" xmlns="http://www.w3.org/2000/svg"><mask id="a" style="mask-type:alpha" maskUnits="userSpaceOnUse" x="0" y="0" width="175" height="224"><path fill="#fff" d="M0 0h175v224H0z"/></mask><g mask="url(#a)"><path d="M98.937 32.697c-1.922 1.684-1.441 5.4 1.076 8.295 2.514 2.896 6.113 3.877 8.034 2.193l24.757-13.838-16.869-19.424-16.998 22.774z" fill="#F4F3FD"/><path fill-rule="evenodd" clip-rule="evenodd" d="M133.249 28.974c-3.417 2.995-9.984 1.094-14.667-4.248-4.684-5.341-5.71-12.1-2.294-15.096 3.417-2.996 9.984-1.094 14.667 4.247 4.684 5.342 5.711 12.1 2.294 15.097z" fill="#DADAF7"/><path d="M103.158 27.042c.539 2.527 1.897 5.248 4.009 7.677 2.111 2.43 4.607 4.151 7.027 5.03l2.358-1.319c-2.606-.795-5.353-2.6-7.645-5.238-2.293-2.635-3.698-5.613-4.131-8.317l-1.618 2.167z" fill="#DADAF7"/><path d="M118.572 24.722a20.079 20.079 0 0 0 1.998 1.996l6.549-4.699-4.723-5.44-5.521 5.882c.497.77 1.061 1.53 1.697 2.26z" fill="#EAE9FF"/><path d="M79.901 65.94c9.211 1.157 8.75 11.8 8.75 11.8s9.441 1.62 13.816 6.478c4.375 4.86 0 13.882 0 13.882s7.138-1.156 10.823 2.546c3.684 3.701 1.381 9.486-7.599 11.568-8.98 2.082-79.901 12.725-79.901 12.725s-4.836.694-4.375-4.164c.46-4.859 8.52-9.024 8.52-9.024s-5.757-3.007-4.606-9.023c1.151-6.016 8.98-11.8 12.204-14.114 3.224-2.313 7.599-4.627 7.599-4.627s-.433-11.934 6.908-15.27c9.67-4.396 14.506 2.545 14.506 2.545s4.145-6.479 13.355-5.322z" fill="#F99A3D"/><path d="M105.46 73.575c3.224-15.501 2.994-21.286 2.994-21.286s-.933-3.748-.921-7.403c.004-1.252 0-3.24 1.842-5.09 3.357-3.374 9.21-6.71 15.658-1.62 6.447 5.09 2.993 19.204 2.993 19.204s.461 24.525-2.533 42.34c-2.993 17.816-6.677 20.823-6.677 20.823l-23.257-16.658s6.678-14.808 9.901-30.31z" fill="#DA5742"/><path fill-rule="evenodd" clip-rule="evenodd" d="M127.346 21.851c-.961.843-2.808.308-4.125-1.194-1.318-1.503-1.606-3.404-.645-4.247.961-.842 2.808-.307 4.125 1.195 1.317 1.503 1.606 3.404.645 4.246z" fill="#F4F3FD"/><path d="M7.368 192.499c-3.684 12.957 1.382 21.332 4.03 23.739 2.648 2.406 26.365-50.578 26.365-50.578l-22.335 2.083s-4.376 11.799-8.06 24.756zM97.76 98.589c-1.298 3.297-2.2 5.296-2.2 5.296l22.593 16.184.792.349c.605-.643 3.237-4.016 5.692-16.068L97.76 98.589z" fill="#C43D28"/><path d="M30.855 140.441c8.29-7.404 18.421-11.568 32.468-12.957 14.046-1.388 20.033-9.254 23.026-12.494 2.993-3.239 9.44-15.27 9.44-15.27l27.632 11.337s-1.612 10.875-5.756 21.518c-4.145 10.642-10.592 18.278-10.592 18.278s3.914 16.658 6.677 36.325c2.763 19.666 3.164 28.689 3.164 28.689h-81.14l2.68-34.705L8.98 169.825s13.586-21.98 21.875-29.384z" fill="#3D5CFF"/><path d="m112.159 143.578-13.837-9.847 8.822 17.034c.412-.5 2.542-3.138 5.015-7.187zM56.645 149.464l-16.119-11.568L17 172.909l21.454 8.253-2.68 34.705h14.423l6.448-66.403z" fill="#224BF4"/><path d="m9.67 164.272 33.62 11.106M90.033 102.497l36.381 16.427" stroke="#EAEAFF" stroke-width="1.158"/><path opacity=".55" d="M30.394 137.896s-2.072 19.898 19.573 22.674c21.645 2.777 32.006-7.635 26.71-12.031-9.344-7.755-26.48 11.568-18.19 20.36 8.289 8.793 34.868 1.453 38.453 12.263 2.533 7.635-8.75 11.569-20.953 6.016-15.417-7.015-2.764-22.443 17.27-15.965 20.032 6.479 18.651 22.212 8.979 26.839-16.55 7.92-40.18-7.781-48.125 9.023-4.374 9.255 8.907 19.192 19.112 11.569 8.98-6.71 12.434-11.569 35.921-12.725 23.487-1.157 23.948-32.392 11.514-40.953-12.435-8.56-29.244-10.411-31.546-24.525-2.303-14.113 11.513-16.89 13.585-7.866 2.072 9.023-19.803 20.36-21.184 5.321-1.635-17.804 14.046-19.666 26.71-17.584 12.665 2.082 22.336-2.545 15.198-10.874" stroke="#EAEAFF" stroke-width="1.158"/><path d="M51.579 96.018c-3.224 1.62-3.454 6.479-2.072 9.024 1.381 2.545 3.454 3.47 5.986 3.933 2.533.463 4.145.231 4.145.231s.23 6.247 0 12.494-1.151 7.404-1.151 7.404 5.066 2.776 12.204 2.082c7.138-.694 8.29-2.545 8.29-2.545s-.691-4.627-.922-8.098c-.23-3.47-.46-5.321-.46-5.321s8.059-2.314 8.52-10.643c.46-8.33 0-10.412 0-10.412s-2.994-.925-4.836-6.71c-1.842-5.784-3.224-6.478-5.526-6.478-2.303 0-2.764 2.777-2.764 2.777s-1.85-3.496-6.217-1.851c-3.684 1.388-2.302 6.94-3.914 10.411-1.612 3.47-4.605 4.165-4.605 4.165s-3.454-2.082-6.678-.463z" fill="#DA5742"/><path d="M62.171 117.536c-.801-.484-1.658-.63-2.434-.616-.01 1.52-.039 3.149-.099 4.78-.23 6.247-1.151 7.404-1.151 7.404s2.155 1.18 5.634 1.809c.178-.752.413-1.908.666-3.6.543-3.644-.313-8.389-2.616-9.777z" fill="#C43D28"/><path d="M65.625 92.316s-.46-1.62.921-2.082c1.382-.463 1.842.694 1.842.694M76.678 88.614s0-1.157 1.381-1.388a1.634 1.634 0 0 1 1.842.926" fill="#fff"/><path d="M74.29 92.326c.271.229.518.49.755.76.228.28.43.59.59.933l.094.27c.018.043.025.098.037.147a1.18 1.18 0 0 1-.092.777c-.199.377-.523.616-.846.78-.658.326-1.363.463-2.063.483.666-.21 1.324-.446 1.886-.798.272-.18.523-.395.631-.652a.758.758 0 0 0 .062-.396.544.544 0 0 0-.016-.104c-.01-.035-.011-.067-.03-.106l-.083-.223c-.258-.59-.702-1.12-1.167-1.615-.477-.49-.988-.957-1.515-1.422.633.305 1.22.703 1.757 1.166z" fill="#1F1F39"/><path fill-rule="evenodd" clip-rule="evenodd" d="M68.25 97.393c-.695.088-1.348-.56-1.46-1.448-.113-.887.359-1.678 1.053-1.765.694-.088 1.347.56 1.46 1.447.112.888-.36 1.678-1.054 1.766zM79.993 96.004c-.694.088-1.348-.56-1.46-1.447-.112-.888.36-1.678 1.054-1.766.694-.088 1.347.56 1.46 1.448.111.887-.36 1.678-1.054 1.765z" fill="#1F1F39"/><path d="M74.835 100.414c2.073-.463 2.994-.925 2.994-.925s1.381 3.702 0 6.709c-1.382 3.008-5.066 2.314-5.987.232-.921-2.082-.921-5.784-.921-5.784s1.842.231 3.914-.232z" fill="#fff"/><path d="m59.638 109.206.012.322c.375-1.296.65-3.147.449-5.643-.212-2.67-.965-5.338-1.713-7.439l-.13.035s-3.453-2.082-6.677-.463c-3.224 1.62-3.454 6.479-2.072 9.024 1.381 2.545 3.454 3.47 5.986 3.933 2.533.463 4.145.231 4.145.231z" fill="#C43D28"/><path d="M52.5 100.183s2.303.925 4.836 3.008c2.532 2.082 2.763 3.47 2.763 3.47" stroke="#1F1F39" stroke-width=".579" stroke-linecap="round"/><path d="M125.033 38.176c-3.442-2.716-6.714-3.033-9.528-2.224 1.78 5.079 5.954 16.654 7.916 19.345 1.37 1.877 3.21 2.467 4.613 2.615a46.994 46.994 0 0 0-.007-.532s3.454-14.114-2.994-19.204zM71.842 118.23c2.784 1.913 5.006 2.609 6.256 2.862l-.039-.549c-.198-2.968-.394-4.747-.447-5.201-.324.03-.681.065-1.075.111-1.98.232-8.149-.694-8.149-.694s-.921.463 3.454 3.471z" fill="#C43D28"/><path d="M128.533 54.677a2.764 2.764 0 0 1-3.774-1.016l-8.29-14.425a2.794 2.794 0 0 1 1.011-3.793l.599-.347a2.764 2.764 0 0 1 3.774 1.016l8.29 14.426a2.794 2.794 0 0 1-1.011 3.792l-.599.347z" fill="#DADAF7"/><path d="M68.158 114.528s2.302.925 5.296.925c2.993 0 4.145-.231 4.145-.231" stroke="#1F1F39" stroke-width=".579" stroke-linecap="round"/><path d="M120.428 38.176c-.691 3.24 2.072 4.396 2.072 4.396s-.421 1.476.461 3.47c.921 2.083 2.763 1.62 2.763 1.62s-.691 2.776 2.763 3.702c3.454.925 6.217-2.082 5.757-4.627-.454-2.504-1.843-6.71-3.454-9.486-1.612-2.777-4.375-3.471-7.139-2.198-1.358.624-2.917 1.693-3.223 3.123z" fill="#DA5742"/><path fill-rule="evenodd" clip-rule="evenodd" d="m122.634 42.618 5.162-2.36z" fill="#1F1F39"/><path d="m122.634 42.618 5.162-2.36" stroke="#1F1F39" stroke-width=".579" stroke-linecap="round"/><path fill-rule="evenodd" clip-rule="evenodd" d="m125.724 47.662 5.296-2.082z" fill="#1F1F39"/><path d="m125.724 47.662 5.296-2.082" stroke="#1F1F39" stroke-width=".579" stroke-linecap="round"/><path fill-rule="evenodd" clip-rule="evenodd" d="m127.105 4.396 1.843-4.165z" fill="#1F1F39"/><path d="m127.105 4.396 1.843-4.165" stroke="#1F1F39" stroke-width=".579" stroke-linecap="round"/><path fill-rule="evenodd" clip-rule="evenodd" d="m136.387 12.642 4.002-2.147z" fill="#1F1F39"/><path d="m136.387 12.642 4.002-2.147" stroke="#1F1F39" stroke-width=".579" stroke-linecap="round"/><path fill-rule="evenodd" clip-rule="evenodd" d="m138.423 24.928 4.536.12z" fill="#1F1F39"/><path d="m138.423 24.928 4.536.12M98.322 133.731l1.656 3.24 7.094 13.882" stroke="#1F1F39" stroke-width=".579" stroke-linecap="round"/><path d="M108.136 41.232s4.124-4.852 6.828-5.226c2.701-.375 4.082.55 3.852 3.558-.23 3.008-4.605 6.016-4.605 6.016" fill="#DA5742"/><path d="M108.136 41.232s4.124-4.852 6.828-5.226c2.701-.375 4.082.55 3.852 3.558-.23 3.008-4.605 6.016-4.605 6.016" stroke="#1F1F39" stroke-width=".579" stroke-linecap="round"/><path d="M78.39 104.098c-.646-.239-1.563-.366-2.864-.213a9.24 9.24 0 0 0-4.045 1.497c.1.374.218.731.361 1.048.921 2.082 4.605 2.776 5.987-.232a6.837 6.837 0 0 0 .562-2.1z" fill="#F9D2DD"/><path fill-rule="evenodd" clip-rule="evenodd" d="M84.984 101.918c-2.727.221-5.048-.967-5.185-2.653-.137-1.686 1.963-3.232 4.69-3.453 2.726-.221 5.047.967 5.184 2.653.137 1.686-1.963 3.232-4.69 3.453zM65.567 104.403c-2.726.221-5.048-.967-5.184-2.653-.137-1.686 1.963-3.232 4.69-3.453 2.726-.221 5.047.967 5.184 2.653.136 1.686-1.963 3.232-4.69 3.453z" fill="#C43D28"/><path fill-rule="evenodd" clip-rule="evenodd" d="M0 215.867h139.77z" fill="#1F1F39"/><path d="M0 215.867h139.77" stroke="#1F1F39" stroke-width=".579"/><path d="M25.099 168.205c5.065-8.56 11.764-29.046 14.055-33.032 2.293-3.987 6.051-3.575 6.051-3.575s-.764-9.898-.764-13.368c0-3.471 2.302-5.785 4.375-4.165 2.072 1.62 3.684 13.651 3.684 13.651s4.787-10.208 7.23-9.963c2.441.245 3.132 2.328 1.98 6.724-1.15 4.396-3.223 9.254-3.223 9.254s3.914-2.313 5.756-.231c1.842 2.082-1.381 7.172-3.914 10.643-2.533 3.47-3.454 5.321-3.454 5.321s-8.52 44.192-13.125 56.223c-4.605 12.031-13.816 16.659-21.415 15.965-7.598-.695-17.039-6.479-13.355-21.518 0 0 11.053-23.368 16.119-31.929z" fill="#DA5742"/><path d="M40.987 140.441s.23 3.702 2.302 4.627c2.073.926 3.454-.925 3.915-2.776.46-1.851 0-5.784 0-5.784M47.204 143.449s.69 2.545 2.763 1.851 2.533-2.777 2.763-5.09c.23-2.314-.23-4.859-.23-4.859M54.572 136.971s1.612-1.389 2.533-2.083c.921-.694 1.382-1.157 1.382-1.157M40.529 133.731s.458-1.619 4.603-2.082c4.145-.463 7.138.463 7.138.463" stroke="#1F1F39" stroke-width=".579" stroke-linecap="round"/></g></svg>