<svg width="119" height="108" fill="none" xmlns="http://www.w3.org/2000/svg"><g clip-path="url(#a)"><mask id="b" style="mask-type:alpha" maskUnits="userSpaceOnUse" x="0" y="0" width="119" height="108"><path transform="matrix(-1 0 0 1 118.241 0)" fill="#fff" d="M0 0h117.989v108H0z"/></mask><g mask="url(#b)"><path d="m100.765 70.372-1.388 8.552-9.89 4.833 1.611-8.8 9.667-4.585z" fill="#DADAF7"/><path d="M100.642 35.916s.991-4.337-1.488-4.957c-2.478-.62-4.585-.744-4.585-.744L78.79 107.69l9.457-.012 12.394-71.76z" fill="#DADAF7"/><path d="M94.569 30.091s1.487 0 1.983.62c.495.62.371 1.86.371 1.86L82.98 107.676H29.005l19.459-78.701s1.239-3.346 5.577-2.355l40.528 3.47z" fill="#EAEAFF"/><path d="M90.975 37.404s.248-1.612-1.115-1.736l-38.173-3.47-7.809 37.058 35.943 5.825s3.842.992 4.337-1.86l6.817-35.817z" fill="#fff"/><path d="M106.962 107.802h4.338L96.055 51.657l-1.611 8.8 12.518 47.345z" fill="#DADAF7"/><path d="M19.442 65.082c-5.998 0-8.303-6.283-3.52-9.171 3.037-1.834 5.627.459 5.627.459s-.012-5.392 6.333-5.292c6.346.099 5.602 6.853 5.602 6.853s3.285.1 3.681 3.037c.446 3.247-3.619 4.114-5.726 4.114H19.442z" fill="#fff"/><path d="m94.332 72.925 8.094-14.723s-.261-2.653 0-4.512c.26-1.859 0-3.309-.533-3.978-.533-.657-2.12-4.239-1.066-5.565 1.066-1.326 3.185-.533 4.238.533 1.066 1.066 3.979 4.115 3.979 4.115s7.56.396 8.886 3.048c1.326 2.653-10.596 35-14.042 38.843-3.445 3.842-13.522 1.723-18.17-1.587-4.635-3.321 2.653-20.152 2.653-20.152l5.961 3.978z" fill="#F9D2DD"/><path d="M85.731 89.099c-4.635-3.31 2.652-20.152 2.652-20.152l3.904 2.603-2.193 19.755c-1.673-.607-3.198-1.376-4.363-2.206zM101.384 48.782l4.487-3.321c.942.966 2.218 2.305 2.838 2.937l-6.172 3.767c-.025-1.115-.26-1.983-.632-2.453-.124-.162-.322-.496-.521-.93z" fill="#F9ACC0"/><path d="M114.497 65.365c0-.843 0-4.239-1.326-5.044-1.363-.818-5.304-.137-7.163-1.983-1.859-1.847-2.256-4.908-2.256-4.908l-1.363.533.037-.26c.013-.125.037-.236.05-.36v-.05c.012-.099.025-.198.025-.31v-.024c.012-.223.024-.434.024-.645l.955-1.81 9.853.31c1.573.905 4.04-.11 4.61 1.03.508 1.016-.942 6.42-3.111 12.913a5.388 5.388 0 0 1-.335.608z" fill="#F9ACC0"/><path d="m99.415 56.378 18.565-18.565a.8.8 0 0 0 0-1.128.8.8 0 0 0-1.128 0L98.287 55.25a.8.8 0 0 0 0 1.128.8.8 0 0 0 1.127 0z" fill="#fff"/><path d="M99.377 57.408c-.397 1.19-1.86 1.587-2.12 2.392-.26.793.137 1.326.137 1.326s-1.587-.657-1.463-2.652c.137-1.995 1.326-3.718 3.05-2.789 0 0 .792.533.396 1.723z" fill="#E88524"/><path d="M114.497 57.94c-3.445 1.463-5.44 1.463-6.234 1.067-.793-.397-.533-1.723-.533-1.723s-1.326-.136-1.722-.93c-.397-.793 0-1.462 0-1.462s-1.326-.26-1.723-1.326 0-1.586 0-1.586-1.277-.013-1.723-1.463c-.657-2.12 6.234-7.56 10.869-5.961 2.677.905 4.388 5.713 4.648 6.618.533 1.859-.136 5.304-3.582 6.767z" fill="#F9D2DD"/><path fill-rule="evenodd" clip-rule="evenodd" d="m109.739 49.054-5.936 2.8z" fill="#1F1F39"/><path d="m103.863 51.967 5.937-2.8c.062-.038.099-.112.062-.174-.025-.062-.112-.1-.174-.062l-5.936 2.8c-.062.038-.099.112-.062.174.012.05.062.075.111.075.025 0 .038 0 .062-.013z" fill="#1F1F39"/><path fill-rule="evenodd" clip-rule="evenodd" d="m111.449 52.239-5.441 2.652z" fill="#1F1F39"/><path d="m106.069 55.004 5.441-2.652c.062-.038.099-.112.062-.174-.037-.062-.111-.1-.173-.062l-5.441 2.652c-.062.037-.099.112-.062.174.025.05.062.074.111.074.025 0 .038 0 .062-.012z" fill="#1F1F39"/><path fill-rule="evenodd" clip-rule="evenodd" d="m112.776 54.891-5.045 2.38z" fill="#1F1F39"/><path d="m107.792 57.396 5.044-2.392c.062-.037.099-.112.062-.174-.037-.062-.111-.099-.173-.062l-5.044 2.392c-.062.038-.1.112-.062.174.024.05.062.074.111.074.025 0 .037 0 .062-.012z" fill="#1F1F39"/><path fill-rule="evenodd" clip-rule="evenodd" d="m91.694 78.093 2.652-5.181z" fill="#1F1F39"/><path d="m91.816 78.143 2.653-5.168a.118.118 0 0 0-.063-.174.118.118 0 0 0-.173.062l-2.652 5.168a.118.118 0 0 0 .062.174c.012.012.025.012.05.012.049 0 .099-.024.123-.074z" fill="#1F1F39"/><path d="M27.653 67.757c-8.477 8.49-9.816 14.91-11.675 21.107-1.859 6.197-2.466 18.789-2.466 18.789H39.02l9.828-50.108S36.13 59.267 27.653 67.757z" fill="#F9ACC0"/><path d="M85.632 107.665H30.28l.694-24.13H15.991s4.771-14.848 15.913-21.876c11.143-7.027 23.4-7.795 31.431-5.7C78.06 59.8 89.858 68.822 89.858 68.822l-2.255 22.272-5.987-2.529 4.016 19.099z" fill="#F99A3D"/><path d="m41.435 82.605-5.837-18.033s16.967 3.31 27.973 24.267c5.131 9.754 5.193 15.492 3.793 18.826H30.269l.595-20.747 10.571-4.313zM87.454 91.032l-5.676-2.391-2.814-9.11 8.49 11.501z" fill="#E88524"/><path d="M69.657 65.712c.025.434-.235.818-.533 1.103-.322.297-.719.483-1.053.756-.36.285-.595.681-.57 1.14.024.483.334.905.768 1.103.235.112.025.446-.198.347-.843-.384-1.19-1.388-.806-2.218.198-.422.57-.707.954-.955.36-.235.744-.458.955-.855.272-.496-.075-.966-.397-1.338-.173-.186.112-.471.273-.273.285.347.582.731.607 1.19zM70.797 78.266c-.36.273-.78.459-1.115.769-.372.347-.459.818-.248 1.289.273.582.855.917 1.388 1.227.223.124.025.47-.198.347-.508-.285-1.016-.595-1.364-1.078-.31-.434-.458-1.017-.247-1.525.384-.905 1.536-1.053 2.02-1.871.285-.484.347-1.103.124-1.612-.037-.099-.025-.21.074-.272.1-.062.248-.037.285.062.41.954.1 2.032-.719 2.664zM85.037 74.412c.025-.347.075-.756-.05-1.09-.247-.633-1.053-.67-1.623-.521-.62.173-1.276.632-1.933.36-.558-.224-.892-.856-1.016-1.401a2.582 2.582 0 0 1 .334-1.958c.136-.211.484-.013.347.198a2.213 2.213 0 0 0-.297 1.673c.124.545.508 1.227 1.152 1.165.335-.037.657-.198.967-.322a2.784 2.784 0 0 1 1.004-.198c.595 0 1.215.31 1.438.892.136.36.099.78.074 1.165-.037.421-.1.843-.21 1.264-.063.248-.447.149-.385-.1.1-.37.161-.743.198-1.127zM77.886 95.171c-.272-.099-.557.075-.756.236-.247.198-.47.421-.718.62-.26.198-.533.383-.818.532-.57.298-1.215.471-1.86.41a2.497 2.497 0 0 1-1.511-.732c-.447-.459-.682-1.078-.57-1.723.05-.248.433-.148.384.112-.1.557.173 1.078.582 1.45.446.409 1.029.57 1.636.52.645-.062 1.252-.359 1.772-.73.496-.36.918-.955 1.537-1.079.31-.062.62.037.843.26.21.223.297.533.136.806-.16.223-.496.012-.372-.21.112-.2-.111-.397-.285-.472zM63.758 81.86c.099.583-.087 1.14-.496 1.562-.397.41-.917.657-1.351 1.029-.384.334-.855.905-.607 1.438.223.508.93.594 1.412.532.112-.012.211.025.248.137.025.086-.037.235-.136.248-.52.074-1.103.024-1.537-.31-.47-.372-.545-.992-.297-1.512.26-.583.78-.93 1.289-1.277.47-.322.979-.681 1.09-1.289.124-.681-.285-1.375-.73-1.859-.174-.173.098-.458.272-.272.409.433.743.979.843 1.574zM66.818 103.018c-.148.607-.656 1.09-.756 1.722a1.427 1.427 0 0 0 .632 1.401c.546.347 1.302.26 1.76-.186.186-.174.471.099.285.285a1.895 1.895 0 0 1-1.66.483c-.595-.111-1.066-.558-1.29-1.115-.247-.608-.099-1.202.211-1.76.162-.285.347-.57.434-.88.075-.26.062-.533-.025-.793-.186-.57-.73-1.029-1.338-1.054-.26-.012-.26-.409-.013-.396 1.116.024 2.033 1.202 1.76 2.293zM45.104 61.858c-.074.57-.334 1.103-.681 1.549-.174.235-.385.434-.583.644-.173.186-.372.397-.434.645-.074.31.186.47.447.57.347.136.706.186 1.078.16.26-.011.26.385 0 .397a3.179 3.179 0 0 1-.967-.111c-.26-.074-.558-.186-.743-.384-.422-.446-.124-1.017.21-1.4.186-.211.397-.397.57-.608.186-.223.36-.471.484-.744.235-.483.334-1.04.185-1.561-.148-.52-.508-.992-1.04-1.14-.26-.075-.15-.459.099-.385.991.298 1.512 1.389 1.375 2.368zM57.499 69.541c-.694.273-.905 1.004-1.103 1.661-.223.731-.52 1.438-1.277 1.772-.669.298-1.549.36-2.243.075-.83-.335-1.45-1.041-1.76-1.872-.087-.235.298-.347.384-.111.273.694.818 1.338 1.525 1.611.347.136.706.149 1.078.124.372-.025.744-.112 1.066-.31.644-.409.768-1.227.991-1.896.236-.67.62-1.252 1.326-1.475.72-.236 1.574-.05 2.083.52.173.186-.112.472-.286.286-.433-.496-1.177-.62-1.784-.385zM23.552 69.257c.322.384.359.88.285 1.363-.063.508-.236 1.004-.199 1.512.037.459.335.83.781.954.496.137 1.004-.111 1.289-.52.149-.21.483-.013.347.198-.533.78-1.673 1.041-2.392.322-.36-.36-.446-.867-.409-1.35.05-.546.26-1.079.223-1.624-.025-.434-.384-1.016-.905-.855-.247.087-.359-.298-.111-.385.409-.123.83.063 1.09.385zM59.383 59.094c-1.5.706-3.123 1.028-4.772 1.152-2.38.174-4.945-.173-6.829-1.76a6.927 6.927 0 0 1-1.735-2.268c-.111-.223.236-.433.347-.198.36.719.818 1.388 1.4 1.946.695.657 1.525 1.128 2.43 1.438 1.215.408 2.516.52 3.792.483 1.6-.05 3.198-.31 4.685-.905a10.622 10.622 0 0 0 4.152-3.036c.136-.211.421.074.26.272-1.004 1.227-2.305 2.206-3.73 2.876zM87.553 73.21c-.186 1.289-.384 2.565-.557 3.854-.15 1.09-.285 2.182-.41 3.285-.136 1.251-.272 2.49-.384 3.742-.16 1.748-.322 3.495-.483 5.243l-.074.805c-.025.248-.422.26-.397 0 .161-1.834.322-3.668.496-5.49.124-1.301.248-2.603.396-3.904.124-1.103.26-2.206.41-3.297.173-1.264.346-2.515.532-3.78l.781-5.205c.037-.272.074-.533.124-.805.012-.112.149-.162.248-.137.111.025.161.136.136.236-.272 1.822-.545 3.643-.818 5.453z" fill="#fff"/><path d="M80.576 85.07c-.224-.111-.025-.458.198-.346 1.685.867 3.358 1.735 5.044 2.602.223.124.025.459-.198.347-1.686-.867-3.359-1.735-5.044-2.603zM23.18 80.957H17.367c-.26 0-.26-.397 0-.397h10.064c.248 0 .26.397 0 .397H23.18z" fill="#fff"/><path d="m16.3 99.82 5.442-2.516c.061-.025.099-.112.061-.173-.024-.062-.111-.1-.173-.062l-5.44 2.516c-.063.024-.1.111-.063.173.025.05.075.074.124.074.025 0 .037 0 .05-.012z" fill="#1F1F39"/><path fill-rule="evenodd" clip-rule="evenodd" d="M29.959 75.057c1.55-1.859-2.28-5.49-.1-8.899.509-.805 1.76-1.97 5.491-1.97 3.73 0 10.56 4.56 14.489 7.758 3.928 3.198 12.108 13.348 12.418 23.4.31 10.051-8.7 13.038-17.698 12.109-4.92-.509-15.009-4.053-19.88-10.969-5.9-8.378-3.668-14.773-2.764-16.471 1.996-3.743 6.495-3.086 8.044-4.958zm8.589 3.272a2.957 2.957 0 0 0-2.95-2.95 2.957 2.957 0 0 0-2.95 2.95 2.957 2.957 0 0 0 2.95 2.95 2.957 2.957 0 0 0 2.95-2.95z" fill="#fff"/><path d="M51.71 82.208c-.52-1.66-2.28-2.28-3.21-.93-.669.98-.483 2.492.583 3.21.384.273.917.434 1.586.41 0 0 1.55-1.041 1.041-2.69z" fill="#F99A3D"/><path d="M53.148 90.797c-1.14-.099-1.45 0-1.76.83-.31.831.719 1.661 1.97 1.76 1.24.1 2.17-.718 2.48-1.76.31-1.04 0-1.858-1.03-1.66 0 0-.52.93-1.66.83z" fill="#3C82F5"/><path d="M46.108 97.415c-2.169.41-5.59-.52-5.8-1.97-.21-1.45.62-1.351 1.76-1.55 1.14-.198 2.59-.929 3.21-1.66.62-.707 2.689-1.128 3.42.942.719 2.07-.409 3.83-2.59 4.238z" fill="#BEE3C5"/><path d="M33.59 90.277c-3.21-.52-3.11-1.97-2.479-2.38.62-.409 2.28 0 2.69-.52.409-.508 2.987-1.76 3.619.421.62 2.169-.62 3-3.83 2.479z" fill="#DA5742"/><path d="M46.802 21.863c-3.941 1.673-4.97 4.201-6.42 8.787-1.45 4.586-1.153 7.09-2.987 10.646-1.847 3.557-4.536 4.425-4.536 4.425s3.532 4.92 20.933 4.152c17.041-.744 22.73-10.894 22.73-10.894s-5.887-1.165-7.833-5.193c-1.958-4.04-4.288-11.23-9.22-12.245-4.934-1.017-6.322 1.958-6.322 1.958s-2.404-3.322-6.345-1.636z" fill="#1F1F39"/><path d="M64.426 43.91c-1.5 4.19-5.403 5.057-5.403 5.057s.198 2.776.62 5.131l.42 2.355s-1.672 2.739-5.552 2.677c-3.879-.062-5.664-1.587-5.664-1.587s.013-3.21-.285-6.779a82.093 82.093 0 0 0-.768-6.32s-5.775-.236-6.308-4.71c-.471-3.854 3.408-3.88 4.387-3.47.98.409 1.004.545 1.004.545s.47 1.686.991 2.69c.521 1.003.955 1.226.955 1.226s-.843-2.565-.806-4.449c.037-1.871.446-2.987.446-2.987l1.079 2.268 6.816-1.09.149-3.223 1.462 3.297 6.556-.93s1.4 6.11-.099 10.3z" fill="#F9D2DD"/><path d="M47.794 44.444s-.483-.025-1.19-.161a16.655 16.655 0 0 0-.396-1.996c-.397-1.462-1.463-3.718-1.463-3.718s1.351.682 2.256 2.392c.459.868.57 2.243.793 3.446.074.347.112.644.136.88a16.091 16.091 0 0 0-.136-.843z" fill="#F9ACC0"/><path d="M47.571 42.2c.075-.024.1-.099.075-.173-.025-.074-.62-1.698-1.401-2.553-.78-.855-1.35-1.066-1.376-1.078a.138.138 0 0 0-.173.074.138.138 0 0 0 .074.174s.545.21 1.277 1.003c.743.818 1.338 2.442 1.338 2.467.025.062.075.099.137.099.012 0 .024 0 .05-.013zM62.492 35.867c-.21-.16-.483-.198-.731-.173-.248.025-.496.099-.706.26-.199.161-.335.41-.31.657a.96.96 0 0 1 .421-.483c.186-.1.397-.15.607-.174.211-.012.422 0 .608.087s.36.248.483.446a.891.891 0 0 0-.372-.62zM54.313 36.524a1.073 1.073 0 0 0-.731-.111.956.956 0 0 0-.36.124.916.916 0 0 0-.285.248 1.065 1.065 0 0 0-.248.669c.112-.211.236-.385.397-.52a.774.774 0 0 1 .248-.162c.05-.012.087-.037.136-.05l.149-.037c.198-.037.409-.025.607.037.21.05.397.174.558.335a.944.944 0 0 0-.471-.533zM58.601 38.606c.124.298.236.595.273.905.012.075.012.149.012.223-.012.075-.012.149-.037.21a.55.55 0 0 1-.223.323 1.06 1.06 0 0 1-.421.149c-.161.025-.322.037-.483.025.148.062.322.099.495.099.174 0 .347-.025.52-.112a.737.737 0 0 0 .36-.433c.037-.087.037-.186.05-.273 0-.087 0-.186-.013-.273-.05-.347-.186-.657-.347-.954a3.878 3.878 0 0 0-.582-.78c.136.296.273.594.396.891z" fill="#1F1F39"/><path fill-rule="evenodd" clip-rule="evenodd" d="M62.473 38.881c.07-.584-.258-1.105-.734-1.162-.475-.057-.918.37-.989.954-.07.585.258 1.105.734 1.162.475.058.918-.37.989-.954zM54.655 39.418c.07-.585-.258-1.105-.734-1.163-.475-.057-.918.37-.989.955-.07.584.258 1.104.734 1.162.476.057.918-.37.989-.954z" fill="#1F1F39"/><path d="M59.047 49.104s.174 2.478.57 4.771c-.632.124-1.685.05-3.408-.694-3.706-1.574-4.065-3.78-4.065-3.78 3.631 1.301 6.903-.297 6.903-.297z" fill="#F9ACC0"/><path d="M57.213 42.56a2.392 2.392 0 0 1-.645-.186 3.688 3.688 0 0 1-.594-.347c-.199-.149-.41-.31-.645-.496-.012.31.1.595.26.855.174.248.41.471.72.595.148.062.309.1.47.124.161.013.322.013.483-.037.298-.074.583-.248.732-.52a3.342 3.342 0 0 1-.781.012z" fill="#DA5742"/><path d="M56.073 49.86c2.095-.248 3.11-.633 3.16-.657.075-.025.1-.1.075-.174-.025-.074-.1-.099-.174-.074-.012 0-1.028.384-3.098.632-2.057.248-3.706-.335-3.718-.335a.138.138 0 0 0-.174.075.138.138 0 0 0 .075.173c.062.025 1.19.422 2.764.422.347 0 .706-.025 1.09-.062z" fill="#1F1F39"/><path fill-rule="evenodd" clip-rule="evenodd" d="M53.968 42.98c.104-.87-.962-1.714-2.382-1.886-1.42-.171-2.657.395-2.762 1.265-.105.87.962 1.714 2.382 1.885 1.42.172 2.657-.395 2.761-1.264z" fill="#F9ACC0"/><path d="M62.939 39.821c.855-.1 1.648.062 2.156.409a14.994 14.994 0 0 1-.272 2.243 3.89 3.89 0 0 1-1.512.508c-1.413.161-2.653-.409-2.752-1.276-.099-.868.955-1.723 2.38-1.884z" fill="#F9ACC0"/><path d="M31.892 94.33c1.86.136 1.983 2.317 1.983 2.317s1.326-.409 2.392.273c1.066.681.793 2.726.793 2.726s1.19.137 1.86 1.773c.656 1.635-2.108 4.833-7.425 6.035-5.304 1.202-9.022-.979-10.484-3.991-1.463-3.011-.93-5.056-1.983-7.931-.508-1.376-1.983-3.285-2.516-3.694-.533-.409-.533-2.875 1.723-2.875 2.255 0 4.635 1.772 6.097 3.557 1.462 1.797 1.723 3.718 1.723 3.718s3.978-2.045 5.837-1.909z" fill="#F9D2DD"/><path d="m31.558 102.509 5.564-2.603c.062-.037.1-.111.062-.173-.037-.062-.111-.1-.173-.062l-5.565 2.603c-.062.037-.1.111-.062.173.012.037.062.074.111.074.025 0 .038 0 .063-.012zM28.236 99.225l5.565-2.603c.062-.037.099-.111.062-.173-.037-.062-.112-.1-.174-.062l-5.564 2.602c-.062.038-.1.112-.062.174.012.05.062.074.111.074.025 0 .037 0 .062-.012z" fill="#1F1F39"/><path d="M24.99 91.181c.507.942 1.238 4.4 1.325 4.784l-3.718 2.467-1.859-8.787c.025 0 .037 0 .05.012l4.201 1.525z" fill="#F9ACC0"/><path fill-rule="evenodd" clip-rule="evenodd" d="m78.692 78.626 2.925 9.94z" fill="#1F1F39"/><path d="M81.653 88.703c.075-.025.112-.1.087-.162l-2.912-9.94c-.025-.073-.1-.11-.161-.086-.075.025-.112.1-.087.161l2.912 9.94c.013.05.062.087.124.087h.037z" fill="#1F1F39"/><path d="M83.24 60.618c-.037-.099.037-.223.136-.248a.212.212 0 0 1 .248.137c.1.285.21.57.31.843.037.099-.037.223-.136.247-.112.038-.211-.024-.248-.136-.1-.285-.211-.57-.31-.843z" fill="#fff"/><path fill-rule="evenodd" clip-rule="evenodd" d="M29.959 75.429c1.55-1.86-2.28-5.49-.1-8.899.509-.805 1.76-1.97 5.491-1.97 3.73 0 10.56 4.56 14.489 7.758 3.928 3.198 12.108 13.348 12.418 23.4.31 10.051-8.7 13.038-17.698 12.108-4.92-.508-15.009-4.052-19.88-10.968-5.9-8.378-3.668-14.774-2.764-16.472 1.996-3.742 6.495-3.086 8.044-4.957zm8.589 3.272a2.957 2.957 0 0 0-2.95-2.95 2.957 2.957 0 0 0-2.95 2.95 2.957 2.957 0 0 0 2.95 2.95 2.957 2.957 0 0 0 2.95-2.95z" fill="#fff"/><path fill-rule="evenodd" clip-rule="evenodd" d="M29.959 75.429c1.55-1.86-2.28-5.49-.1-8.899.509-.805 1.76-1.97 5.491-1.97 3.73 0 10.56 4.56 14.489 7.758 3.928 3.198 12.108 13.348 12.418 23.4.31 10.051-8.7 13.038-17.698 12.108-4.92-.508-15.009-4.052-19.88-10.968-5.9-8.378-3.668-14.774-2.764-16.472 1.996-3.742 6.495-3.086 8.044-4.957zm8.589 3.272a2.957 2.957 0 0 0-2.95-2.95 2.957 2.957 0 0 0-2.95 2.95 2.957 2.957 0 0 0 2.95 2.95 2.957 2.957 0 0 0 2.95-2.95z" fill="#fff"/><path d="M51.71 82.58c-.52-1.661-2.28-2.28-3.21-.93-.669.98-.483 2.491.583 3.21.384.273.917.434 1.587.41 0 0 1.549-1.042 1.04-2.69zM53.148 91.168c-1.14-.099-1.45 0-1.76.83-.31.831.719 1.661 1.97 1.76 1.24.1 2.17-.718 2.48-1.76.31-1.04 0-1.858-1.03-1.66 0 0-.52.93-1.66.83zM46.109 97.787c-2.17.408-5.59-.521-5.8-1.971-.211-1.45.62-1.351 1.76-1.55 1.14-.198 2.59-.929 3.21-1.66.619-.706 2.689-1.128 3.42.942.719 2.07-.41 3.83-2.59 4.239zM33.591 90.648c-3.21-.52-3.11-1.97-2.479-2.38.62-.409 2.28 0 2.69-.52.409-.508 2.987-1.76 3.619.421.62 2.169-.62 3-3.83 2.479z" fill="#fff"/></g></g><defs><clipPath id="a"><path fill="#fff" transform="translate(.251)" d="M0 0h117.989v108H0z"/></clipPath></defs></svg>