<svg width="161" height="160" fill="none" xmlns="http://www.w3.org/2000/svg"><path d="M57.308 51.29c8.574 0 11.902-8.994 5.028-13.15-4.348-2.626-8.064.656-8.064.656s0-7.73-9.06-7.584c-9.084.146-8.04 9.845-8.04 9.845s-4.711.145-5.27 4.35c-.631 4.644 5.174 5.884 8.21 5.884h17.196zM99.838 47.523c.462.656.996 1.264 1.579 1.799.292.267.607.51.923.705.316.218.656.389 1.02.535.365.121.729.242 1.093.267.365.048.753.048 1.118 0 .753-.073 1.457-.34 1.894-.85.437-.487.632-1.216.535-1.921-.073-.705-.389-1.41-.875-1.896-.243-.243-.51-.414-.801-.462-.146-.025-.292-.025-.438-.025a1.205 1.205 0 0 0-.753.438c-.097.122-.194.243-.267.413-.145.292-.218.657-.267 1.021-.073.73.049 1.507.292 2.237.121.364.267.729.437 1.07.17.34.364.68.583 1.02.437.656.947 1.264 1.506 1.848.267.291.558.583.85.875.291.267.583.559.898.826a14.56 14.56 0 0 0 1.943 1.459c.341.218.705.413 1.069.583.365.17.753.34 1.142.413-.826-.073-1.603-.389-2.332-.753a14.344 14.344 0 0 1-2.089-1.313c-.656-.486-1.287-1.045-1.894-1.604a13.686 13.686 0 0 1-1.676-1.872 8.699 8.699 0 0 1-1.215-2.236c-.291-.803-.461-1.678-.413-2.577.025-.462.122-.9.34-1.337.098-.219.243-.438.389-.632.17-.195.364-.365.583-.486.219-.122.486-.219.753-.268.267-.024.51-.048.777.025.535.097.947.389 1.287.729a4.293 4.293 0 0 1 1.118 2.48c.048.461.024.923-.122 1.385-.121.462-.364.9-.704 1.24-.34.364-.753.607-1.166.778a4.25 4.25 0 0 1-1.312.291 5.478 5.478 0 0 1-2.574-.413 6.791 6.791 0 0 1-2.089-1.483c-.607-.608-1.093-1.288-1.53-1.993-.85-1.483-1.506-3.014-1.919-4.594.607 1.507 1.36 2.965 2.307 4.278z" fill="#EAEAFF"/><path d="m104.089 32.063-26.718-7.05 21.617 15.8 5.101-8.75z" fill="#DADAF7"/><path d="M102.146 35.223 91.701 39.84l-14.33-14.828 24.775 10.21z" fill="#F4F3FD"/><path d="m115.262 27.687-37.89-2.674 26.717 7.05 11.173-4.376z" fill="#F4F3FD"/><path opacity=".999" d="M21.02 126.865h121.688c0-33.618-27.228-60.892-60.844-60.892-33.591 0-60.843 27.274-60.843 60.892z" fill="#F4F3FD"/><path d="M114.266 68.841c1.117-.389 2.234-.705 3.376-1.02a54.402 54.402 0 0 1 3.449-.778 24.755 24.755 0 0 1 3.546-.414c1.214-.048 2.429-.024 3.668.243a9.023 9.023 0 0 1 1.846.584c.607.267 1.19.632 1.675 1.118.511.462.923 1.07 1.215 1.701.291.633.437 1.313.51 1.97.121 1.337-.073 2.6-.364 3.816-.316 1.215-.753 2.358-1.239 3.452-.996 2.212-2.21 4.278-3.522 6.247-2.623 3.962-5.659 7.608-8.865 11.06a97.296 97.296 0 0 1-5.004 5.008c-.413.413-.874.802-1.336 1.191l-1.36 1.167c-.219.194-.461.364-.704.559l-.705.535-1.408 1.094c-.948.704-1.919 1.361-2.891 2.066-.486.34-.971.656-1.457.996l-1.458.973-.728.486-.753.462-1.482.948c-.51.316-.996.632-1.506.923l-1.506.9-1.506.899-1.53.875c-1.02.584-2.04 1.167-3.06 1.726a378.273 378.273 0 0 1-6.194 3.282c-4.177 2.115-8.38 4.157-12.679 6.004a977.965 977.965 0 0 0 12.096-7.049c1.992-1.191 4.008-2.383 5.975-3.622l2.964-1.848 1.481-.923 1.458-.948c3.886-2.553 7.772-5.105 11.391-7.949.874-.73 1.797-1.434 2.672-2.164l1.287-1.142c.413-.389.85-.754 1.263-1.167a117.051 117.051 0 0 0 4.882-4.935 103.041 103.041 0 0 0 4.567-5.202 76.072 76.072 0 0 0 4.177-5.493c1.312-1.872 2.526-3.841 3.498-5.859a21.86 21.86 0 0 0 1.214-3.087c.316-1.045.51-2.115.462-3.111-.049-.997-.389-1.896-1.045-2.577-.655-.68-1.627-1.118-2.671-1.41-1.045-.267-2.162-.364-3.279-.389-1.118-.024-2.259.073-3.401.195-2.283.243-4.566.705-6.825 1.264a86.648 86.648 0 0 0-3.376.9c-1.118.315-2.235.68-3.352 1.044 2.113-.996 4.299-1.847 6.534-2.6z" fill="#DADAF7"/><path fill-rule="evenodd" clip-rule="evenodd" d="M102.632 93.077a6.318 6.318 0 0 1-6.316-6.32c0-3.491 2.828-6.32 6.316-6.32a6.318 6.318 0 0 1 6.315 6.32c0 3.49-2.828 6.32-6.315 6.32zM74.092 105.96c-6.104 0-11.051-4.952-11.051-11.06 0-6.109 4.947-11.06 11.051-11.06 6.103 0 11.051 4.951 11.051 11.06 0 6.108-4.948 11.06-11.051 11.06z" fill="#EAEAFF"/><path d="m33.602 102.387 12.63 4.837-8.258 19.447-4.372.024-6.023-9.261 6.023-15.047z" fill="#F9ACC0"/><path d="M55.9 69.692c1.894.875.558 2.869-1.264 4.959-1.724 1.969-12.095 22.51-12.095 22.51s.607 24.235-5.975 28.513c-6.583 4.279-20.087-2.09-15.278-17.915 4.809-15.825 22.151-42.03 27.932-44.168 5.78-2.14 7.335 0 6.947 2.6-.17 1.192-1.263 1.508-2.818 3.282a69.932 69.932 0 0 0-3.376 4.108s4.008-4.764 5.926-3.889z" fill="#F9D2DD"/><path d="M48.37 71.005a.15.15 0 0 1-.024-.17c.024-.025 2.987-3.622 4.566-5.008 1.603-1.434 3.012-1.653 3.085-1.677.073 0 .121.024.145.097 0 .073-.024.121-.097.146-.024 0-1.408.243-2.963 1.604-1.579 1.386-4.518 4.959-4.542 4.983-.024.025-.048.049-.097.049-.024 0-.049 0-.073-.024zM45.844 69.522a.117.117 0 0 1 0-.17c.121-.146 3.084-3.525 4.566-4.619 2.04-1.507 3.74-2.042 3.765-2.042.073-.024.121.025.146.073.024.073-.025.122-.073.146-.024 0-1.676.51-3.692 1.993-1.457 1.07-4.494 4.57-4.518 4.595-.048.024-.073.048-.121.048-.025 0-.049 0-.073-.024z" fill="#fff"/><path d="M55.754 89.43h10.201l-.486-9.237-9.472-.486-.243 9.724z" fill="#F9D2DD"/><path d="m65.615 82.649-.024-.049-9.619-1.872-.097 4.303 9.74-2.382z" fill="#F9ACC0"/><path d="M71.542 63.907c-3.4-5.591-17.488-.973-20.16 2.43-2.672 3.404 1.166 12.617 2.915 14.585 3.643 4.133 11.658 1.945 11.658 1.945l5.1-10.696s2.916-4.254.487-8.264z" fill="#1F1F39"/><path d="M68.87 72.415c-.51.073-2.162-.146-2.55-.146.85 2.09-.365 3.549-.365 3.549s.049-.997-.486-1.945c-1.214-2.188-5.586-.73-4.129 2.674.948 2.212 3.644 1.459 3.644 1.459s.243.972.243 2.43c0 1.702-.486 2.431-.486 2.431s4.615.243 5.83-3.403c1.214-3.646.825-7.924.825-7.924s-.583.632-2.526.875zM55.9 69.692c1.894.875.558 2.869-1.264 4.959-1.724 1.969-12.095 22.51-12.095 22.51s.607 24.235-5.975 28.513c-6.583 4.279-20.087-2.09-15.278-17.915 4.809-15.825 22.151-42.03 27.932-44.168 5.78-2.14 7.335 0 6.947 2.6-.17 1.192-1.263 1.508-2.818 3.282a69.932 69.932 0 0 0-3.376 4.108s4.008-4.764 5.926-3.889z" fill="#F9D2DD"/><path d="M48.37 71.005a.15.15 0 0 1-.024-.17c.024-.025 2.987-3.622 4.566-5.008 1.603-1.434 3.012-1.653 3.085-1.677.073 0 .121.024.145.097 0 .073-.024.121-.097.146-.024 0-1.408.243-2.963 1.604-1.579 1.386-4.518 4.959-4.542 4.983-.024.025-.048.049-.097.049-.024 0-.049 0-.073-.024zM45.844 69.522a.117.117 0 0 1 0-.17c.121-.146 3.084-3.525 4.566-4.619 2.04-1.507 3.74-2.042 3.765-2.042.073-.024.121.025.146.073.024.073-.025.122-.073.146-.024 0-1.676.51-3.692 1.993-1.457 1.07-4.494 4.57-4.518 4.595-.048.024-.073.048-.121.048-.025 0-.049 0-.073-.024z" fill="#fff"/><path d="m87.28 102.606-12.63 4.861 8.259 19.447 14.136-.049-9.764-24.259z" fill="#F9D2DD"/><path d="M27.02 110.433c-.049-.024-.073-.097-.049-.17l3.158-5.348c.024-.049.097-.073.17-.049.049.025.073.097.049.17l-3.158 5.348c0 .049-.049.073-.097.073-.024 0-.049 0-.073-.024z" fill="#fff"/><path d="m42.516 117.507 1.7-8.751-12.873-4.619-1.214.973 12.387 12.397zM89.224 107.419l-1.943-4.813-12.63 4.861 3.157 7.463 11.416-7.511z" fill="#F9ACC0"/><path d="m42.103 110.384-11.901-5.591s.923-1.361 2.55-3.33c3.23-3.865 8.186-9.796 14.914-12.713 10.274-4.424 21.52-2.747 27.446.73 10.76 6.27 14.816 16.286 14.816 16.286l-12.144 4.618 5.125 16.53H37.003l5.1-16.53z" fill="#3D5CFF"/><path d="M42.055 110.506c-.073-.024-.097-.097-.073-.146l3.643-9.966c.025-.073.097-.098.146-.073.073.024.097.097.073.145l-3.643 9.967c0 .049-.049.073-.098.073h-.048zM77.687 110.433l-3.644-9.967c-.024-.072 0-.121.073-.145.073-.025.122 0 .146.073l3.643 9.966c.025.073 0 .122-.073.146h-.024a.133.133 0 0 1-.121-.073z" fill="#DADAF7"/><path d="M136.879 125.529c0-6.102-4.955-11.061-11.052-11.061-6.096 0-11.051 4.959-11.051 11.061 0 .461.024.899.073 1.337h21.957c.049-.438.073-.876.073-1.337z" fill="#EAEAFF"/><path fill-rule="evenodd" clip-rule="evenodd" d="M154.217 126.744v.243H6.783v-.243h147.434z" fill="#DADAF7"/></svg>