<svg width="161" height="160" fill="none" xmlns="http://www.w3.org/2000/svg"><path fill-rule="evenodd" clip-rule="evenodd" d="m101.815 24.708 5.025 8.188-71.518 43.886-5.025-8.188 71.518-43.886z" fill="#F4F3FD"/><path d="m37.27 75.584-.137-11.178-3.392 2.072.092 7.9 1.48 2.412 1.957-1.206zM44.44 59.922l-3.391 2.071.136 11.2 3.392-2.094-.136-11.177zM51.475 55.596l-3.392 2.072.16 11.2 3.391-2.094-.16-11.178zM58.782 51.112l-3.392 2.072.137 11.2 3.392-2.095-.137-11.177zM66.34 46.468l-3.392 2.072.16 11.2 3.392-2.072-.16-11.2zM73.647 41.984l-3.391 2.094.159 11.177 3.392-2.071-.16-11.2zM80.681 37.658l-3.391 2.094.159 11.178 3.392-2.072-.16-11.2zM88.285 33.014l-3.392 2.072.16 11.177 3.391-2.071-.159-11.178zM95.593 28.53 92.2 30.6l.136 11.2 3.392-2.094-.136-11.177zM102.649 26.094l-.842-1.389-2.573 1.571.16 11.2 3.392-2.094-.137-9.288z" fill="#DADAF7"/><path d="m62.243 78.133-8.036-4.94s6.283-9.356 13.249-13.248c6.965-3.893 14.136-4.234 19.713-3.278 5.578.956 11.223 4.074 14.661 8.4 3.437 4.325 7.785 11.837 7.785 11.837l-11.314 1.594 3.597 10.95-41.955-.274 2.3-11.04z" fill="#3D5CFF"/><path d="M65.885 40.185c-1.07-3.733 1.002-7.785 4.894-8.354 4.986-.752 10.517-.865 13.454 2.208 2.072 2.163 2.595 7.672.455 10.654-3.46 4.757-5.6 3.323-5.6 3.323l-7.011-1.502s-4.69-1.07-6.192-6.329z" fill="#1F1F39"/><path d="M86.145 41.233c1.594.387 1.799 2.595 1.093 3.87-1.002 1.798-3.483 1.98-3.483 1.98l-.296-4.257s1.093-1.98 2.686-1.593z" fill="#F9ACC0"/><path d="M70.188 44.01s.364 2.914 1.775 5.395c1.412 2.481 3.71 2.64 3.71 2.64s.183 1.685.092 3.438c-.091 1.776-.091 2.573-.091 2.573s1.661 1.32 4.416.796c3.278-.614 3.528-2.026 3.528-2.026s-.614-1.775-1.229-3.71c-.569-1.799-.523-2.117-.523-2.117s2.731-1.594 2.822-4.94c.091-3.347-.614-5.486-.614-5.486" fill="#F9D2DD"/><path opacity=".284" d="M73.306 47.607c-.455-.683-1.412-2.596-1.412-2.596l.66 5.282c1.207 1.457 2.687 1.73 3.028 1.775.069-.295.091-.705 0-1.274-.227-1.366-1.82-2.505-2.276-3.187z" fill="#F9ACC0"/><path d="M70.916 44.146c.797.046.956.752 1.23 1.548.272.797.523 2.482 1.502 3.529.979 1.047 1.502 2.208 1.138 3.528-.364 1.32-2.208 2.641-2.208 2.641S64.975 73.74 62.516 78.976c-2.481 5.236-4.143 8.741-8.65 10.062-2.55.75-9.106-.433-9.106-7.695 0-5.85 10.153-16.253 10.153-16.253l11.746-14.501s-.797-2.573-.433-3.984c.365-1.411.888-1.593 1.23-1.685.364-.09.523 0 .523 0s.274-.614.98-.614c.705 0 .887.683.887.683s.273-.865 1.07-.843z" fill="#F9D2DD"/><path d="M72.487 55.483c-.046-.045-.023-.114.022-.16.023-.022 1.822-1.32 2.163-2.594.319-1.161-.046-2.254-1.115-3.438-.775-.865-1.116-2.071-1.344-2.96-.068-.227-.113-.454-.182-.614l-.045-.16c-.228-.705-.41-1.274-1.07-1.297-.069 0-.114-.045-.114-.113 0-.069.045-.114.114-.114.82.045 1.047.728 1.275 1.457l.045.159c.068.182.114.387.182.615.228.865.547 2.048 1.298 2.868 1.115 1.23 1.502 2.413 1.184 3.642-.365 1.343-2.186 2.664-2.254 2.71-.023.045-.046.045-.068.045-.046 0-.069-.023-.091-.046z" fill="#fff"/><path d="M75.674 52.16c.023.386.16 1.798.182 3.14.615-.227 1.411-.591 2.026-1.115 1.138-.979 1.867-2.39 1.867-2.39s-.638.364-2.664.432c-.751.023-1.16-.022-1.411-.068z" fill="#F9ACC0"/><path d="M70.78 50.338c0-.023-.707-1.593-.934-3.119-.228-1.502-.137-2.23-.137-2.253 0-.068.068-.114.137-.091.068 0 .114.068.09.136 0 0-.09.706.137 2.186.228 1.48.91 3.027.91 3.05.024.069.001.114-.067.16h-.023a.125.125 0 0 1-.114-.069zM68.503 50.543c0-.023-.615-1.639-.729-3.164-.113-1.525 0-2.231.023-2.254.023-.068.068-.09.137-.09.068.022.09.068.09.136 0 0-.136.706 0 2.185.115 1.48.707 3.096.707 3.096.022.068 0 .114-.069.137-.023.022-.045.022-.045.022a.125.125 0 0 1-.114-.068z" fill="#fff"/><path d="m98.142 78.543-3.187-8.65c-.023-.069 0-.114.068-.137.068-.023.114 0 .137.068l3.187 8.65c.023.07 0 .115-.069.137h-.022a.125.125 0 0 1-.114-.068z" fill="#DADAF7"/><path opacity=".348" d="M44.76 81.389c0 7.239 6.556 8.445 9.105 7.694 4.508-1.32 6.17-4.826 8.65-10.062.456-.979 1.094-2.39 1.822-4.075l-15.958-1.89c-1.98 2.87-3.62 5.965-3.62 8.333z" fill="#F9ACC0"/><path d="M41.686 135.272a6.485 6.485 0 0 1-6.487-6.488l.022-51.812 83.91.023-.023 51.812c.023 3.574-2.891 6.488-6.488 6.488l-70.934-.023z" fill="#F4F3FD"/><path fill-rule="evenodd" clip-rule="evenodd" d="M119.131 76.881v9.607h-83.91V76.88h83.91z" fill="#F4F3FD"/><path d="M35.221 83.665v2.823h2.3l5.736-9.607h-3.984l-4.052 6.784zM42.119 86.488h3.983l5.714-9.607h-3.983l-5.714 9.607zM50.382 86.488h3.984l5.714-9.607h-3.961l-5.737 9.607zM58.942 86.488l3.983.023 5.737-9.63h-3.984l-5.736 9.607zM67.82 86.51h3.984l5.736-9.629h-3.984l-5.736 9.63zM76.402 86.51h3.96l5.738-9.606-3.984-.023-5.714 9.63zM84.665 86.51h3.961l5.737-9.606H90.38l-5.714 9.607zM93.566 86.51h3.984l5.736-9.606h-3.984l-5.736 9.607zM102.148 86.51h3.961l5.737-9.606h-3.984l-5.714 9.607zM116.125 76.904l-5.713 9.607h3.961l4.757-7.968v-1.639h-3.005zM70.256 119.519l.341-22.9 19.646 11.746-19.987 11.154z" fill="#DADAF7"/><path d="M137.82 113.6c8.036 0 11.155-8.423 4.712-12.315-4.074-2.459-7.557.614-7.557.614s0-7.239-8.492-7.102c-8.513.136-7.512 9.197-7.512 9.197s-4.416.136-4.94 4.074c-.614 4.371 4.826 5.532 7.672 5.532h16.117zM22.337 54.663c-7.217 0-9.994-7.557-4.235-11.017 3.666-2.209 6.761.546 6.761.546s-.022-6.488 7.604-6.374c7.626.114 6.738 8.24 6.738 8.24s3.938.137 4.44 3.643c.545 3.915-4.349 4.962-6.876 4.962H22.337z" fill="#EAEAFF"/></svg>