<svg width="161" height="160" fill="none" xmlns="http://www.w3.org/2000/svg"><path fill-rule="evenodd" clip-rule="evenodd" d="M152.363 125.865v.237H8.637v-.237h143.726z" fill="#DADAF7"/><path opacity=".998" d="M67.003 126.007c-5.682 0-10.347-4.641-10.347-10.347l-.024-71.176c0-5.683 4.641-10.348 10.348-10.348l47.971-.024c5.683 0 10.348 4.642 10.348 10.348l.023 71.176c0 5.683-4.664 10.348-10.347 10.348l-47.972.023z" fill="#F4F3FD"/><path d="M73.444 51.895c-.782 0-1.42-.64-1.42-1.42 0-.782.638-1.422 1.42-1.422l35.043-.023c.782 0 1.421.64 1.421 1.42 0 .782-.639 1.421-1.421 1.421l-35.043.024zM73.444 65.794c-.782 0-1.42-.64-1.42-1.42 0-.782.638-1.422 1.42-1.422l35.043-.023c.782 0 1.421.639 1.421 1.42 0 .782-.639 1.421-1.421 1.421l-35.043.024zM73.444 79.693c-.782 0-1.42-.64-1.42-1.42 0-.782.638-1.421 1.42-1.421l35.043-.024c.782 0 1.421.64 1.421 1.42 0 .782-.639 1.421-1.421 1.421l-35.043.024zM73.444 93.568c-.782 0-1.42-.64-1.42-1.42 0-.782.638-1.421 1.42-1.421l35.043-.024c.782 0 1.421.64 1.421 1.42 0 .782-.639 1.421-1.421 1.421l-35.043.024z" fill="#DADAF7"/><path opacity=".533" d="M61.984 126.007a7.811 7.811 0 0 1-3.836-1.018c.616.64 1.492 1.018 2.58 1.018h1.256z" fill="#EAEAFF"/><path d="M129.608 108.462h-19.203l-38.832.024c.308 1.278.45 2.628.45 4.025 0 7.458-4.499 13.496-10.063 13.496l58.366-.023c.474 0 .971-.071 1.445-.213 4.712-1.137 8.287-6.654 8.287-13.284 0-1.397-.166-2.746-.45-4.025zM143.578 103.489c8.359 0 11.603-8.76 4.902-12.81-4.239-2.557-7.861.64-7.861.64s0-7.53-8.832-7.388c-8.856.142-7.814 9.566-7.814 9.566s-4.594.142-5.138 4.239c-.639 4.546 5.02 5.753 7.979 5.753h16.764zM30.8 51.421c-7.506 0-10.395-7.837-4.405-11.46 3.789-2.297 7.033.568 7.033.568s-.024-6.748 7.908-6.63c7.933.119 7.009 8.572 7.009 8.572s4.096.142 4.617 3.789c.569 4.072-4.522 5.161-7.15 5.161H30.8z" fill="#EAEAFF"/><path d="m36.648 102.329 12.313 4.736-8.05 18.942h-4.263l-5.872-8.997 5.872-14.681zM88.03 102.329l-12.313 4.736 8.05 18.942h4.263l5.872-9.021-5.872-14.657z" fill="#F9ACC0"/><path d="m44.935 109.906-11.602-5.446s.9-1.326 2.486-3.244c3.15-3.765 8.974-9.803 15.723-12.147 10.181-3.552 18.469-.947 24.625 1.658 4.12 1.728 15.39 14.68 15.39 14.68l-11.838 4.499 4.996 16.101H39.963l4.972-16.101z" fill="#3D5CFF"/><path d="M70.248 70.364c-.166-4.05-3.552-7.34-7.578-6.63-5.161.923-10.655 2.604-12.549 6.63-1.326 2.817-.024 8.43 3.078 10.655 4.973 3.552 6.63 1.42 6.63 1.42l6.393-3.788s4.262-2.605 4.026-8.287z" fill="#1F1F39"/><path d="M52.489 75.573c-1.894 1.184-.474 4.262 1.184 4.973 1.657.71 2.368.473 2.368.473v8.05s2.367 1.184 4.972.948c2.605-.237 4.262-1.184 4.262-1.184l-.71-5.683s3.315-1.42 3.315-4.972c0-3.552-.71-5.446-.71-5.446l-9.472 1.894s.237.947 0 2.368c-.237 1.42-.71 1.894-.71 1.894s.237-2.131-.947-2.841c0 0-1.658-1.658-3.552-.474z" fill="#F9D2DD"/><path d="M44.888 110.024c-.071-.023-.095-.094-.071-.142l3.552-9.708c.023-.071.094-.094.142-.071.07.024.094.095.07.142l-3.55 9.708c0 .048-.048.071-.096.071h-.047z" fill="#DADAF7"/><path d="M35.11 106.165C33.76 103.892 29 92.787 29 92.787s-1.231-4.523-3.907-5.138c-2.675-.616-3.29-1.232-4.31-1.847-1.017-.616-2.06-.829-2.675-.213-.615.615-.615 1.444-.213 2.25.403.828 1.018 1.23 1.018 1.23s-8.216-.213-9.234.616c-1.018.829-1.634 3.078 2.25 4.31 3.48 1.089 7.766 1.041 8.665 1.018.19.402 5.825 20.576 7.53 25.051 1.729 4.475 5.162 6.204 8.003 5.943 2.89-.237 6.417-2.391 5.02-7.979 0 0-4.144-8.69-6.038-11.863z" fill="#F9D2DD"/><path d="m79.624 109.953-3.552-9.708c-.024-.071 0-.118.071-.142.071-.023.118 0 .142.071l3.552 9.708c.024.071 0 .119-.071.142h-.024a.13.13 0 0 1-.118-.071z" fill="#DADAF7"/><path d="M89.521 106.118c1.35-2.273 6.11-13.378 6.11-13.378s1.23-4.523 3.906-5.139c2.676-.615 3.291-1.23 4.31-1.847 1.018-.615 2.06-.828 2.675-.213.616.616.616 1.445.213 2.25-.402.829-1.018 1.231-1.018 1.231s8.216-.213 9.235.616c1.018.828 1.633 3.078-2.25 4.31-3.48 1.088-7.766 1.065-8.666 1.04-.189.403-5.801 20.577-7.53 25.052-1.728 4.476-5.162 6.204-8.003 5.944-2.841-.237-6.37-2.392-4.996-7.98 0 0 4.12-8.69 6.014-11.886z" fill="#F9D2DD"/><path d="M11.289 93.9c-.71-.214-1.16-.758-1.255-1.445-.095-.805.308-1.633.97-2.036 1.208-.71 12.03-.403 12.503-.379.07 0 .118.047.118.118 0 .072-.07.119-.118.119-3.883-.118-11.46-.213-12.36.331-.592.356-.947 1.113-.876 1.8.047.355.237.994 1.089 1.255.071.023.095.095.071.142-.024.071-.071.095-.118.095h-.024z" fill="#fff"/><path d="M13.136 94.42c-.45-.141-.734-.473-.782-.923-.07-.497.19-1.018.616-1.278.71-.427 6.82-.26 7.53-.237.07 0 .118.047.118.118s-.071.119-.118.119c-2.7-.095-6.89-.095-7.388.189-.331.213-.544.64-.497 1.042.024.213.142.568.615.71.072.024.095.095.072.142-.048.095-.095.119-.143.119h-.023zM18.866 89.212c-.071 0-.118-.071-.118-.119 0-.07.047-.118.118-.118l4.238.237c.071 0 .119.07.119.118.023.047-.024.118-.095.118l-4.262-.236zM113.105 93.781c-.024-.07.023-.118.071-.142.852-.26 1.041-.9 1.089-1.255a1.83 1.83 0 0 0-.876-1.8c-.924-.544-8.501-.449-12.36-.33-.071 0-.119-.048-.119-.119s.048-.118.119-.118c.45-.024 11.294-.355 12.502.379.663.402 1.065 1.23.971 2.036-.095.71-.545 1.231-1.255 1.444h-.024c-.047 0-.095-.023-.118-.095z" fill="#fff"/><path d="M111.258 94.302c-.024-.07.024-.118.071-.142a.836.836 0 0 0 .616-.71 1.129 1.129 0 0 0-.498-1.042c-.497-.308-4.688-.284-7.387-.19-.071 0-.119-.047-.119-.118 0-.07.048-.118.119-.118.686-.024 6.795-.213 7.529.237.427.26.663.78.616 1.278-.047.45-.331.781-.781.924-.024-.024-.024-.024-.048-.024-.047 0-.094-.024-.118-.095zM101.29 89.283c0-.071.047-.119.118-.119l4.238-.237c.071 0 .119.048.119.119 0 .07-.048.118-.119.118l-4.238.237c-.071 0-.118-.047-.118-.118z" fill="#fff"/><path d="M64.825 83.031c-.071.024-.118.048-.19.072-3.078 1.183-5.824-.119-5.824-.119 1.776 2.108 4.144 3.102 6.18 3.576l-.426-3.41s.094-.047.26-.119z" fill="#F9ACC0"/></svg>