<svg width="161" height="160" fill="none" xmlns="http://www.w3.org/2000/svg"><path fill-rule="evenodd" clip-rule="evenodd" d="M155.849 125.755V126H7v-.245h148.849z" fill="#DADAF7"/><path d="M77.894 125.852H35.348V82.669l42.546 17.607v25.576z" fill="#EAEAFF"/><path d="m35.348 111.09 31.045 4.978 11.501-15.792-39.48-16.332-3.066 7.529v19.617z" fill="#DADAF7"/><path d="m66.393 116.068 11.501-15.792L35.25 82.669 23.504 97.113l42.89 18.955z" fill="#F4F3FD"/><path d="m27.477 92.184-1.227 5.395.246.98c2.01-.196 4.414-1.397 5.64-2.206 3.408-2.281 15.89-1.472 18.882-2.207 1.962-.49 4.61-1.104 5.174-2.82l-18.661-6.99-10.054 7.848zM77.894 125.852h42.57V82.669l-42.57 17.607v25.576z" fill="#DADAF7"/><path d="m120.464 111.09-31.045 4.978-11.525-15.792 39.505-16.332 3.065 7.529v19.617z" fill="#D0D0EF"/><path d="m77.894 69.795 42.669 12.874-42.669 17.386L35.25 82.669l42.644-12.874z" fill="#EAEAFF"/><path d="m89.42 116.068-11.526-15.792 42.669-17.607 11.746 14.444-42.89 18.955z" fill="#F4F3FD"/><path d="M98.59 96.352s2.477 3.997 4.659 3.679c3.434-.49 2.33-3.066 2.33-3.066s1.962 1.717 3.556 1.104 1.471-1.717 1.471-1.717 2.575.613 3.188-.49c.613-1.104-4.389-8.485-4.389-8.485l-1.644.49-16.576 6.842c.343.81 1.005 1.692 2.256 2.134 2.697.98 5.15-.49 5.15-.49z" fill="#DADAF7"/><path d="m110.189 89.216-14.615 6.008-4.438-18.023 12.8-3.384 6.253 15.4zM25.833 98.093c1.643 2.232 5.076-3.384 5.076-3.384s17.386 1.055 24.964-4.438c4.88-3.531 6.008-8.093 6.008-8.093l-13.316-3.653s-.27 4.168-14.075 5.493c-10.03.956-11.55 5.492-11.771 8.877-.147 2.133.785 4.168.785 4.168s3.138-3.678 3.727-4.193c0 0-2.722 3.384-1.398 5.223z" fill="#F9D2DD"/><path d="m91.136 77.2.784 7.308 13.978-5.983-1.962-4.708-12.8 3.384z" fill="#F9ACC0"/><path d="M106.02 76.416s-9.294-18.024-23.1-18.024c-13.806 0-20.157.785-25.576 5.738C51.9 69.084 48.05 78.5 48.05 78.5l13.904 3.654-1.52 10.79 17.386 7.234 17.484-7.308-2.6-12.8 13.316-3.654z" fill="#3D5CFF"/><path d="m110.214 89.216-1.054-2.599s-3.262-.417-7.823 1.054c-1.692.54-6.277 3.924-6.277 3.924l.784 3.63 14.37-6.009z" fill="#F9ACC0"/><path d="m92.631 80.29-1.74-8.68c-.025-.074.024-.148.097-.148.074-.024.147.025.147.099l1.741 8.68c.025.074-.024.147-.098.147h-.024c-.05 0-.123-.049-.123-.098zM61.807 82.571c-.074-.025-.123-.074-.098-.147l2.33-11.158c.024-.073.098-.122.147-.098.073.025.122.074.098.147l-2.33 11.158c0 .049-.049.098-.122.098h-.025z" fill="#DADAF7"/><path d="M61.88 82.154 48.566 78.5s-.049.638-.932 1.496l11.55 7.136c2.134-2.624 2.698-4.978 2.698-4.978z" fill="#F9ACC0"/><path d="M124.951 67.171c7.136 0 9.883-7.479 4.169-10.912-3.605-2.182-6.694.54-6.694.54s0-6.4-7.529-6.278c-7.528.123-6.67 8.166-6.67 8.166s-3.899.123-4.389 3.605c-.515 3.85 4.34 4.88 6.841 4.88h14.272z" fill="#EAEAFF"/><path d="M86.451 42.992c-.171-4.463-1.643-8.926-8.877-7.822-4.978.76-9.563 1.888-11.378 6.327-1.275 3.114-.025 9.294 2.943 11.746 4.757 3.923 6.326 1.57 6.326 1.57l6.082-4.194s5.125-1.373 4.904-7.627z" fill="#1F1F39"/><path d="M76.25 46.646c-.858.098-1.618.196-2.28.27.588 2.28-.858 4.708-.858 4.708V49.54c0-.932-.295-1.889-.515-2.477-1.619.147-2.355.147-2.355.147s-2.354-.27-2.869 2.084c-.515 2.355 1.84 3.14 3.14 3.14.76 0 .98-.099 1.053-.148v7.48s.27 1.839 4.954 1.839c3.924 0 4.708-1.84 4.708-1.84v-5.493s2.6-1.3 3.14-3.384c.539-2.084.244-6.841.244-6.841s-4.168 2.084-8.362 2.599z" fill="#F9D2DD"/><path d="M81.204 58.515v-4.292c-3.139 1.57-7.578.785-7.578.785 1.594 2.305 4.905 3.163 7.578 3.507z" fill="#F9ACC0"/><path d="M93.097 95.42c2.33 2.796 7.038-.661 7.038-.661s1.423 2.133 1.594 3.163c.172 1.03 1.422 2.133 3.384 1.275 1.962-.858 1.79-1.888 1.79-1.888s1.815 1.275 3.213.245c1.397-1.03 1.25-2.06 1.25-2.06s1.594 1.594 2.968.294c1.373-1.3-.736-5.958-2.281-7.283-1.545-1.324-2.918-1.618-6.008-1.103-3.09.54-7.97 2.943-7.97 2.943s-7.283 2.28-4.978 5.076z" fill="#F9D2DD"/><path d="m106.682 97.358-1.839-4.66c-.024-.073 0-.146.074-.171.073-.025.147 0 .171.074l1.84 4.659c.024.073 0 .147-.074.171h-.049a.136.136 0 0 1-.123-.073zM111.366 95.543l-1.839-4.659c-.024-.074 0-.147.074-.172.073-.024.147 0 .171.074l1.84 4.66c.024.073 0 .146-.074.17h-.049a.136.136 0 0 1-.123-.073zM22.988 95.886c-.098 0-.147-.073-.122-.147 0-.098.27-2.133 1.324-3.457 1.054-1.325 2.084-1.84 2.133-1.864.074-.025.147 0 .172.05.024.073 0 .146-.05.17 0 0-1.03.54-2.035 1.79-1.005 1.252-1.275 3.311-1.275 3.336-.024.074-.098.123-.147.123-.024 0-.024 0 0 0zM22.4 92.797c-.074-.025-.123-.098-.098-.147.024-.074.515-2.085 1.716-3.286 1.202-1.177 2.28-1.594 2.33-1.594.074-.025.147 0 .172.074.024.073 0 .147-.074.171 0 0-1.079.392-2.232 1.545-1.152 1.128-1.642 3.139-1.667 3.163-.024.025-.074.074-.123.074H22.4z" fill="#fff"/><path opacity=".999" d="M49.644 42.845a2.781 2.781 0 0 1 3.605 1.594l2.918 7.578a2.78 2.78 0 0 1-1.594 3.604l-3.899 1.496 1.766 4.561a.707.707 0 0 1-.393.908l-.196.073c-.196.123-.441.172-.662.074l-7.308-2.992-6.204 2.403a2.78 2.78 0 0 1-3.605-1.594l-2.918-7.577c-.613-1.447.099-3.04 1.545-3.605l16.945-6.523z" fill="#F4F3FD"/><path d="M37.947 54.322a1.272 1.272 0 0 0 1.275 1.226 1.272 1.272 0 0 0 1.227-1.276c-.025-.686-.589-1.25-1.276-1.226a1.272 1.272 0 0 0-1.226 1.276zM42.558 52.507c0 .686.588 1.226 1.275 1.226a1.272 1.272 0 0 0 1.226-1.275c0-.687-.589-1.226-1.275-1.226a1.272 1.272 0 0 0-1.226 1.275zM47.192 50.717a1.272 1.272 0 0 0 1.275 1.226 1.273 1.273 0 0 0 1.226-1.275c-.024-.711-.588-1.25-1.275-1.226a1.272 1.272 0 0 0-1.226 1.275z" fill="#DADAF7"/></svg>