<svg width="34" height="46" fill="none" xmlns="http://www.w3.org/2000/svg"><path d="M8.793 26.004C5.52 27.488 1.933 32.07.611 37.446h5.852l-.967 4.881a25.592 25.592 0 0 0 11.646 2.787c4.215 0 8.182-1.014 11.687-2.812l-1.025-4.229 5.918-.528c-.009 0-1.372-7.584-7.613-11.17-5-2.87-12.704-2.44-17.316-.371z" fill="#3D5CFF"/><path d="M13.24 22.26c-.744-.166-.826-.578-.826-.578s-.248.495-1.736.33c-1.488-.165-1.984-1.567-1.984-1.567s-1.818-.33-2.149-1.319c-.33-.989-.247-1.401-.247-1.401s-1.24-1.072-1.158-2.226c.083-1.154.496-1.402.496-1.402s-.66-.577-.496-1.071c.166-.495.496-.577.496-.577S3.901 10.717 4.48 8.82c.579-1.896 1.984-1.896 1.984-1.896s-.248-.66.496-1.072c.744-.412 1.074-.33 1.074-.33s-.165-2.06.91-2.555c1.074-.495 1.983-.247 1.983-.247s-.083-1.155.661-1.237c.744-.083 1.075.412 1.075.412s0-.33.661-.412c.661-.083.744.165.744.165S14.232 0 15.967 0c1.737 0 2.315.99 2.315.99s.413-.743 1.405-.578c.992.165.992 1.072.992 1.072s.827-.907 2.562-.412c1.736.494 2.232 3.545 2.232 3.545s.579-.165 1.075.082.413 1.154.413 1.154 1.57.083 1.9 1.402c.331 1.319 0 1.814 0 1.814s1.406 1.319.993 3.297c-.414 1.979-1.24 2.638-1.24 2.638s.33.99 0 1.731c-.33.742-.992.742-.992.742s.248 1.155-.33 1.567c-.58.412-1.158.247-1.158.247s-.578 1.979-2.645 2.638c-2.066.66-4.132-.247-4.132-.247l-4.877.742s-.496 0-1.24-.165z" fill="#F99A3D"/><path d="M10.777 14.51c.265.107.48.23.645.354.016-.725.843-2.993 1.67-3.735.785-.7 2.231-1.319 3.388-.412s1.653 2.391 2.397 1.979c.744-.412 1.57-1.237 2.397-.577.62.494.727 2.02.744 2.745.165-.124.38-.239.645-.354.909-.38 2.173.148 2.116 1.714.04.685-.265 1.427-.777 1.748-.736.47-2.39.33-2.39.33s-.14.7-.511 1.401c-.58 1.072-1.736 1.979-1.736 1.979v1.954l.182 2.663s-.19.099-.521.214a3.925 3.925 0 0 1-.736.214 7.105 7.105 0 0 1-1.562.174 6.233 6.233 0 0 1-1.562-.174 3.383 3.383 0 0 1-.736-.214c-.33-.115-.52-.214-.52-.214l.181-2.663v-1.954s-1.157-.907-1.735-1.979c-.38-.7-.438-1.154-.438-1.385-.463.042-1.736.116-2.472-.346-.52-.321-.826-1.063-.785-1.748-.058-1.566 1.199-2.094 2.116-1.714z" fill="#DA5742"/><path d="m14.075 23.644-.066 1.022c.752-.057 1.67-.222 2.703-.593 1.05-.38 1.942-.915 2.645-1.418v-.973c-1.488.907-4.629.577-5.282-.008v1.97z" fill="#C43D28"/><path d="M14.017 21.731a.1.1 0 0 1-.008-.132c.033-.04.091-.04.132-.008.389.355 1.728.602 2.976.544.05 0 .09.033.09.083s-.032.09-.082.09c-.124.025-.248.025-.372.025-1.19 0-2.347-.247-2.736-.602z" fill="#1F1F39"/><path d="M22.109 14.798c-.041.602.074.289-.19 2.102-.058.371-.265 1.072-.364 1.435.562.041 1.794.05 2.447-.363.512-.321.81-1.063.777-1.748.05-1.566-1.207-2.094-2.116-1.714-.215.09-.397.19-.554.288zM12.34 19.703c.008.017.024.042.033.058-.083-.165-.166-.33-.24-.486.058.132.124.272.206.428zM10.769 14.51c-.91-.38-2.174.148-2.116 1.714-.041.685.264 1.427.777 1.748.702.445 1.9.396 2.405.355-.231-1.03-.413-2.474-.529-3.537a3.227 3.227 0 0 0-.537-.28z" fill="#C43D28"/><path d="M11.505 17.585s-.009-.413-.471-1.097c-.463-.684-1.331-.923-1.34-.931a.096.096 0 0 1-.065-.107.097.097 0 0 1 .107-.066c.041.008.95.255 1.446 1.005.496.742.496 1.18.496 1.196.009.05-.033.09-.082.09a.092.092 0 0 1-.091-.09zM21.86 17.585c0-.017.01-.462.497-1.196.496-.742 1.405-.99 1.446-1.006.05-.016.1.017.108.066a.082.082 0 0 1-.067.108c-.008 0-.884.239-1.338.931-.463.684-.472 1.097-.472 1.097.009.05-.033.09-.082.09a.092.092 0 0 1-.091-.09z" fill="#1F1F39"/><path d="M14.067 14.84s.066-.66.545-.66c.48 0 .546.66.546.66M18.257 14.84s.066-.66.546-.66c.48 0 .545.66.545.66" fill="#fff"/><path d="M16.712 16.018a1.835 1.835 0 0 0-.124.437c-.009.074 0 .14.033.182 0 .008.008.008.008.016l.017.017a.174.174 0 0 0 .04.024.173.173 0 0 0 .092.033c.132.025.29-.033.43-.099a.586.586 0 0 1-.19.157.452.452 0 0 1-.257.058.353.353 0 0 1-.132-.042c-.025-.008-.041-.024-.058-.04l-.025-.026c-.008-.008-.016-.016-.024-.032a.375.375 0 0 1-.058-.273.92.92 0 0 1 .066-.247c.025-.074.066-.148.099-.223a2.11 2.11 0 0 1 .264-.379c-.066.149-.123.297-.181.437z" fill="#1F1F39"/><path d="M16.133 17.989s.314.783 1.19.66c.711-.1.794-.924.794-.924" fill="#fff"/><path fill-rule="evenodd" clip-rule="evenodd" d="M14.687 16.653c-.297 0-.538-.295-.538-.66 0-.364.24-.659.538-.659.296 0 .537.295.537.66 0 .364-.24.659-.537.659zM18.82 16.653c-.297 0-.538-.295-.538-.66 0-.364.24-.659.537-.659.297 0 .538.295.538.66 0 .364-.241.659-.538.659z" fill="#1F1F39"/><path fill-rule="evenodd" clip-rule="evenodd" d="M21.597 17.496c-.038.444-.696.751-1.469.685-.773-.066-1.369-.48-1.33-.925.037-.445.695-.751 1.468-.685.773.066 1.37.48 1.331.925zM14.902 17.496c-.038.444-.695.751-1.469.685-.773-.066-1.369-.48-1.33-.925.037-.444.695-.751 1.468-.685.773.066 1.37.48 1.331.925z" fill="#C43D28"/></svg>