<svg width="164" height="119" fill="none" xmlns="http://www.w3.org/2000/svg"><path fill-rule="evenodd" clip-rule="evenodd" d="M105.943 98.44c-.071-.142-.029-.312.113-.383l1.485-.806c.141-.07.311-.028.382.113.071.142.028.311-.113.382l-1.486.806c-.042.029-.084.029-.127.029a.314.314 0 0 1-.254-.142zm2.984-1.627c-.071-.142-.028-.312.113-.382l1.485-.807c.142-.07.312-.028.382.114.071.141.029.31-.113.382l-1.485.806c-.042.028-.085.028-.127.028a.317.317 0 0 1-.255-.141z" fill="#EAEAFF"/><path fill-rule="evenodd" clip-rule="evenodd" d="M69.08 91.99c0-.156.114-.284.27-.298a17.245 17.245 0 0 0 1.668-.127.285.285 0 0 1 .312.255.285.285 0 0 1-.255.31c-.58.057-1.146.1-1.712.128.015 0 0 0 0 0-.155 0-.282-.113-.282-.269zm-1.428.254a12.42 12.42 0 0 1-1.698-.198h-.014a.276.276 0 0 1-.226-.326.276.276 0 0 1 .325-.226h.029c.495.1 1.046.156 1.626.184a.294.294 0 0 1 .27.297.305.305 0 0 1-.298.269h-.014zm4.81-.594a.287.287 0 0 1 .225-.326c.538-.084 1.09-.198 1.656-.31a.3.3 0 0 1 .339.211.3.3 0 0 1-.212.34c-.566.127-1.132.226-1.683.311-.015.014-.029.014-.043.014a.288.288 0 0 1-.283-.24zm-8.205.014a18.537 18.537 0 0 1-1.64-.495c-.142-.057-.227-.212-.17-.354.056-.141.212-.226.353-.17.524.184 1.061.34 1.599.481.155.043.24.198.198.34a.272.272 0 0 1-.27.212c-.027 0-.042 0-.07-.014zm11.542-.68a.271.271 0 0 1 .213-.339c.523-.127 1.075-.282 1.626-.438a.283.283 0 0 1 .354.198.283.283 0 0 1-.198.354c-.552.155-1.118.31-1.655.438h-.07a.273.273 0 0 1-.27-.212zm-14.781-.452a19.673 19.673 0 0 1-1.542-.778c-.141-.07-.184-.254-.113-.382.07-.141.255-.183.382-.113.48.269.976.524 1.485.75.142.07.212.226.142.368a.255.255 0 0 1-.24.184.268.268 0 0 1-.114-.029zm18.049-.466c-.042-.156.028-.312.184-.354.523-.17 1.06-.34 1.612-.538a.273.273 0 0 1 .354.17c.042.142-.028.311-.17.354-.537.184-1.089.368-1.626.537a.2.2 0 0 1-.085.028.284.284 0 0 1-.27-.198zm3.21-1.104a.282.282 0 0 1 .17-.368c.524-.198 1.047-.396 1.585-.608a.287.287 0 0 1 .368.156.287.287 0 0 1-.156.368c-.538.212-1.075.41-1.598.608-.029.028-.071.028-.1.028a.29.29 0 0 1-.268-.184zm-24.258-.127c-.467-.34-.92-.693-1.358-1.075a.287.287 0 0 1-.028-.396.287.287 0 0 1 .396-.029c.41.368.849.708 1.301 1.033.128.085.156.269.071.396a.233.233 0 0 1-.212.127.272.272 0 0 1-.17-.056zm91.207-.184a.275.275 0 0 1-.226-.325.275.275 0 0 1 .325-.227c.523.085 1.061.1 1.612.029.156-.014.297.085.312.24.014.156-.085.297-.241.311-.269.029-.537.057-.792.057-.325 0-.665-.028-.99-.085zm3.112-.58a.287.287 0 0 1 .155-.368 8.498 8.498 0 0 0 1.471-.75.294.294 0 0 1 .397.085.294.294 0 0 1-.085.397 9.541 9.541 0 0 1-1.556.792c-.057.014-.085.028-.113.028a.29.29 0 0 1-.269-.184zm-4.795.014a8.149 8.149 0 0 1-1.471-.962.275.275 0 0 1-.043-.396.276.276 0 0 1 .396-.042c.439.368.905.665 1.358.891.142.07.198.24.127.382a.26.26 0 0 1-.24.156.41.41 0 0 1-.127-.029zm-62.097-.353a.287.287 0 0 1 .156-.368 51.568 51.568 0 0 0 1.556-.665c.141-.057.311 0 .368.141.056.142 0 .312-.142.368-.523.227-1.047.453-1.57.665-.028.028-.07.028-.113.028a.28.28 0 0 1-.255-.17zm-30.015-1.189c-.382-.424-.75-.877-1.09-1.343-.099-.128-.07-.297.057-.396.127-.1.297-.071.396.056.326.453.68.877 1.047 1.287.099.113.099.297-.014.396a.206.206 0 0 1-.184.1.273.273 0 0 1-.212-.1zm33.127-.17c-.07-.14 0-.31.142-.381.509-.24 1.032-.481 1.527-.722a.283.283 0 0 1 .382.128.284.284 0 0 1-.127.382c-.51.24-1.033.495-1.542.721a.228.228 0 0 1-.127.042.259.259 0 0 1-.255-.17zm66.722.029c-.099-.127-.085-.297.042-.396.411-.34.835-.707 1.245-1.118a.274.274 0 0 1 .396 0 .274.274 0 0 1 0 .396 18.92 18.92 0 0 1-1.273 1.16c-.071.029-.141.057-.198.057a.275.275 0 0 1-.212-.1zm-10.453-.495a16.016 16.016 0 0 1-.835-1.047c-.07-.099-.155-.212-.226-.311a.292.292 0 0 1 .071-.396c.127-.085.311-.057.396.07.07.1.141.199.226.312.255.368.523.707.806 1.004a.287.287 0 0 1-.028.396.338.338 0 0 1-.198.07.253.253 0 0 1-.212-.098zm-53.2-.99a.284.284 0 0 1 .128-.382c.495-.255 1.004-.51 1.513-.764a.284.284 0 0 1 .382.127.283.283 0 0 1-.127.382c-.51.255-1.018.524-1.513.778-.043 0-.085.014-.128.014a.298.298 0 0 1-.254-.155zm66.1-.877a.287.287 0 0 1-.028-.396 33.03 33.03 0 0 0 1.046-1.316.278.278 0 0 1 .397-.056.277.277 0 0 1 .056.396 20.1 20.1 0 0 1-1.075 1.343.33.33 0 0 1-.212.1.298.298 0 0 1-.184-.071zm-104.32-.269a14.29 14.29 0 0 1-.777-1.542c-.057-.141 0-.311.141-.368.142-.056.312 0 .368.142.226.51.481 1.004.75 1.485.07.141.028.311-.1.382a.273.273 0 0 1-.14.042.274.274 0 0 1-.241-.141zm41.248-.424c-.071-.142-.029-.311.113-.382l1.485-.806c.141-.071.311-.029.382.113.07.141.028.31-.113.381-.495.27-.99.552-1.485.807-.043.042-.085.042-.128.042a.298.298 0 0 1-.254-.155zm48.163-.212a26.027 26.027 0 0 1-.891-1.472c-.071-.141-.028-.31.113-.382.142-.07.311-.028.382.114.255.452.538.933.863 1.442a.294.294 0 0 1-.085.397.501.501 0 0 1-.141.028.28.28 0 0 1-.241-.127zM97.625 81.72c-.07-.141-.028-.311.1-.382.48-.283.975-.566 1.47-.849a.274.274 0 0 1 .382.1.274.274 0 0 1-.099.381c-.495.297-.99.58-1.471.863a.417.417 0 0 1-.141.028.274.274 0 0 1-.24-.141zm-45.617-1.103c-.184-.538-.34-1.09-.467-1.655-.028-.156.056-.312.212-.34.156-.028.311.057.34.212.127.552.282 1.09.452 1.613.042.141-.028.311-.184.354-.028.014-.056.014-.085.014a.284.284 0 0 1-.268-.198zm89.155-.495a10.328 10.328 0 0 1-.551-1.655.287.287 0 0 1 .212-.34.287.287 0 0 1 .339.212c.113.495.283 1.005.524 1.556.056.142 0 .312-.156.368a.265.265 0 0 1-.113.028.28.28 0 0 1-.255-.17zm-40.61-.128a.285.285 0 0 1 .099-.396l1.443-.89a.293.293 0 0 1 .396.084.293.293 0 0 1-.085.396c-.481.297-.962.608-1.443.891a.299.299 0 0 1-.169.057.264.264 0 0 1-.241-.142zm2.886-1.796a.293.293 0 0 1 .085-.396c.48-.311.947-.623 1.414-.934.127-.085.311-.056.396.071.085.127.057.311-.071.396-.466.311-.947.622-1.414.934a.338.338 0 0 1-.17.056.277.277 0 0 1-.24-.127zm-52.21-.934a16.717 16.717 0 0 1-.17-1.711.275.275 0 0 1 .27-.297.276.276 0 0 1 .297.269c.028.565.085 1.117.17 1.669.028.155-.085.297-.241.325-.014-.014-.028-.014-.042-.014a.288.288 0 0 1-.283-.24zm89.482-.268c-.156-.015-.283-.142-.269-.297.028-.58.141-1.146.353-1.74a.29.29 0 0 1 .368-.17.288.288 0 0 1 .17.368 5.266 5.266 0 0 0-.325 1.57c-.014.155-.128.269-.283.269h-.014zm-34.443-.694c-.085-.127-.057-.31.07-.396.467-.325.934-.65 1.387-.976a.292.292 0 0 1 .396.071.293.293 0 0 1-.071.396c-.453.325-.92.665-1.386.976a.273.273 0 0 1-.17.057c-.085 0-.184-.043-.226-.128zm2.758-1.966c-.099-.127-.071-.297.057-.396.452-.34.905-.679 1.343-1.018.128-.1.297-.07.396.056a.277.277 0 0 1-.056.397c-.439.339-.906.692-1.358 1.032-.043.014-.099.043-.156.043a.294.294 0 0 1-.226-.114zm-58.009-.495c.015-.566.029-1.131.085-1.711a.277.277 0 0 1 .312-.255.285.285 0 0 1 .254.311c-.042.566-.07 1.132-.085 1.67a.284.284 0 0 1-.566-.014zm90.641-.07c-.141-.085-.184-.255-.099-.382.241-.41.538-.877.934-1.443.085-.127.269-.156.396-.07.127.084.156.268.071.395-.382.566-.679 1.004-.906 1.4a.282.282 0 0 1-.396.1zm-29.945-1.514a.275.275 0 0 1 .043-.396c.438-.354.891-.722 1.315-1.075.128-.1.297-.085.396.042a.276.276 0 0 1-.042.396c-.424.354-.877.722-1.315 1.075a.235.235 0 0 1-.17.071.297.297 0 0 1-.227-.113zm31.812-1.301c-.127-.085-.155-.27-.07-.396.297-.425.622-.892.962-1.387.084-.127.268-.155.396-.07.127.085.155.268.07.396-.339.509-.679.976-.976 1.4-.028.07-.113.113-.212.113a.275.275 0 0 1-.17-.056zm-91.984-.213a.297.297 0 0 1-.24-.325 38.34 38.34 0 0 1 .296-1.683.29.29 0 0 1 .34-.226.29.29 0 0 1 .226.34 33.835 33.835 0 0 0-.297 1.654.3.3 0 0 1-.283.24h-.042zm62.803-.65a.287.287 0 0 1 .029-.396c.424-.368.848-.75 1.259-1.132.113-.099.297-.099.396.014.099.114.099.297-.014.396-.411.382-.835.764-1.274 1.132a.272.272 0 0 1-.183.085.256.256 0 0 1-.213-.1zm31.105-1.938a.29.29 0 0 1-.085-.396c.312-.481.594-.962.863-1.443a.266.266 0 0 1 .382-.099c.142.07.184.255.099.382-.283.495-.566.976-.877 1.457-.042.099-.127.141-.226.141a.325.325 0 0 1-.156-.042zm-28.587-.34a.274.274 0 0 1 .014-.396c.411-.396.821-.792 1.203-1.188a.274.274 0 0 1 .396 0 .274.274 0 0 1 0 .396c-.382.396-.792.807-1.217 1.203a.335.335 0 0 1-.198.07.281.281 0 0 1-.198-.085zm-64.67-.41a.274.274 0 0 1-.199-.34c.142-.537.312-1.088.481-1.64.043-.156.213-.226.354-.184.156.043.226.212.184.354-.17.537-.34 1.075-.481 1.612a.273.273 0 0 1-.269.212c-.028 0-.042 0-.07-.014zm67.047-2.008a.273.273 0 0 1-.015-.396c.382-.425.764-.85 1.118-1.26a.287.287 0 0 1 .396-.028c.113.1.127.283.028.396-.353.425-.735.85-1.131 1.288a.31.31 0 0 1-.396 0zm27.922-.17a.284.284 0 0 1-.128-.382c.071-.141.142-.283.227-.439.169-.339.339-.707.495-1.075a.287.287 0 0 1 .368-.155.287.287 0 0 1 .155.368c-.155.382-.325.764-.509 1.117-.071.156-.156.297-.226.439a.299.299 0 0 1-.255.155.412.412 0 0 1-.127-.028zM53.21 64.18a.289.289 0 0 1-.17-.368c.198-.523.41-1.06.637-1.584.056-.141.226-.212.367-.141.142.056.213.226.142.367a45.255 45.255 0 0 0-.637 1.556.243.243 0 0 1-.24.184c-.028 0-.07 0-.1-.014zm68.249-1.358a.29.29 0 0 1-.056-.396c.353-.452.693-.92.99-1.358.085-.127.269-.155.396-.07.127.085.156.268.071.396-.311.452-.651.92-1.019 1.386a.275.275 0 0 1-.212.099c-.056 0-.127-.014-.17-.057zm27.06-.707c-.156-.042-.227-.212-.184-.354.17-.523.325-1.06.452-1.612a.289.289 0 0 1 .34-.212c.155.042.24.184.212.34a27.696 27.696 0 0 1-.467 1.654.283.283 0 0 1-.268.198c-.029 0-.057 0-.085-.014zm-93.994-1.06a.283.283 0 0 1-.127-.383c.127-.268.269-.537.396-.792.128-.24.255-.48.396-.735a.266.266 0 0 1 .382-.1c.142.071.184.255.1.383-.142.24-.27.48-.383.707-.127.254-.269.523-.396.778a.276.276 0 0 1-.24.17c-.043 0-.085-.015-.128-.029zm68.886-1.02c-.127-.084-.184-.254-.099-.381.297-.495.566-.99.792-1.471a.284.284 0 0 1 .382-.127c.142.07.198.24.128.381-.241.495-.51 1.005-.821 1.514a.313.313 0 0 1-.24.127.276.276 0 0 1-.142-.042zm25.956-1.202a.276.276 0 0 1-.226-.325c.099-.552.17-1.103.226-1.669a.286.286 0 0 1 .312-.255.285.285 0 0 1 .254.312 21.98 21.98 0 0 1-.226 1.697c-.043.141-.17.24-.297.24h-.043zm-93.187-.735a.278.278 0 0 1-.07-.396c.31-.453.65-.92 1.004-1.386a.29.29 0 0 1 .396-.057.29.29 0 0 1 .057.396c-.354.453-.68.92-.99 1.358a.296.296 0 0 1-.397.085zm68.745-1.09a.289.289 0 0 1-.17-.367c.156-.438.283-.877.382-1.301.028-.1.042-.198.071-.297a.287.287 0 0 1 .339-.213.287.287 0 0 1 .212.34c-.028.099-.042.198-.07.297-.099.438-.241.905-.411 1.372-.028.113-.141.184-.254.184-.028 0-.071 0-.099-.014zm24.527-1.838v-.467c0-.41-.014-.806-.028-1.202-.014-.156.113-.283.269-.297.155-.014.283.113.297.268.028.41.042.82.042 1.231v.481a.293.293 0 0 1-.297.269.284.284 0 0 1-.283-.283zm-91.235.198a.287.287 0 0 1-.028-.396c.354-.425.736-.849 1.132-1.287a.274.274 0 0 1 .396-.015.273.273 0 0 1 .014.397c-.396.424-.764.848-1.118 1.258a.235.235 0 0 1-.212.114.298.298 0 0 1-.184-.071zm67.613-1.627a.284.284 0 0 1-.198-.353c.156-.566.325-1.118.495-1.641.043-.142.212-.227.354-.184.141.042.226.212.184.353-.17.51-.34 1.061-.495 1.613a.272.272 0 0 1-.269.226c-.028 0-.057 0-.071-.014zm-65.335-.89a.273.273 0 0 1 0-.397c.382-.396.792-.792 1.202-1.202.113-.113.297-.113.396 0 .113.113.113.297 0 .396-.41.41-.82.806-1.202 1.202a.28.28 0 0 1-.198.085.28.28 0 0 1-.198-.085zm88.745-1.02a18.538 18.538 0 0 0-.325-1.626.272.272 0 0 1 .198-.34c.155-.042.311.057.339.199.142.537.255 1.117.34 1.697.028.156-.085.297-.241.325 0-.014-.014-.014-.028-.014a.287.287 0 0 1-.283-.24zm-86.327-1.357a.273.273 0 0 1 .015-.396c.396-.368.82-.764 1.258-1.16.114-.1.297-.1.396.014.1.113.1.297-.014.396-.424.396-.848.778-1.244 1.146a.338.338 0 0 1-.198.085.312.312 0 0 1-.213-.085zm63.964.042a.287.287 0 0 1-.156-.368c.212-.551.453-1.075.679-1.57a.284.284 0 0 1 .382-.127c.142.07.198.24.127.382a26.676 26.676 0 0 0-.664 1.542.316.316 0 0 1-.269.155c-.028 0-.071 0-.099-.014zm21.528-1.91a10.382 10.382 0 0 0-.707-1.499c-.07-.141-.028-.31.113-.382.142-.07.312-.028.382.114.269.495.524 1.018.736 1.57a.287.287 0 0 1-.156.367c-.028.014-.056.014-.099.014a.291.291 0 0 1-.269-.183zm-82.988-.438c-.099-.113-.099-.297.028-.396.425-.368.849-.75 1.288-1.117a.287.287 0 0 1 .396.028.287.287 0 0 1-.029.396c-.424.368-.863.75-1.273 1.117a.338.338 0 0 1-.198.071.254.254 0 0 1-.212-.099zm62.889-.735c-.142-.085-.184-.255-.1-.382.298-.51.623-.99.948-1.443.099-.127.269-.156.396-.057.128.1.156.27.057.396-.311.425-.623.892-.92 1.387a.273.273 0 0 1-.24.141.271.271 0 0 1-.141-.042zm-60.315-1.486a.287.287 0 0 1 .029-.396c.424-.367.862-.735 1.301-1.103a.287.287 0 0 1 .396.028.287.287 0 0 1-.028.396c-.439.368-.863.736-1.301 1.104a.298.298 0 0 1-.184.07.255.255 0 0 1-.213-.099zm78.816-.212a9.1 9.1 0 0 0-1.117-1.216.272.272 0 0 1-.014-.396.273.273 0 0 1 .396-.014c.424.396.82.82 1.174 1.287.099.127.07.297-.057.396a.295.295 0 0 1-.156.056.297.297 0 0 1-.226-.113zm-16.521-1.06a.274.274 0 0 1 0-.397c.41-.424.848-.806 1.301-1.145.127-.1.297-.071.396.056a.277.277 0 0 1-.056.396c-.425.325-.849.693-1.231 1.09a.34.34 0 0 1-.212.084.278.278 0 0 1-.198-.085zm-59.692-.92a.276.276 0 0 1 .043-.396c.438-.368.876-.721 1.3-1.09a.276.276 0 0 1 .397.043.276.276 0 0 1-.043.396c-.438.368-.876.722-1.3 1.09a.46.46 0 0 1-.185.056.254.254 0 0 1-.212-.1zm73.794-.24a10.155 10.155 0 0 0-1.457-.779.27.27 0 0 1-.141-.367c.057-.142.226-.212.368-.142.537.24 1.046.51 1.527.82a.29.29 0 0 1 .085.397c-.042.07-.141.113-.226.113a.324.324 0 0 1-.156-.043zm-11.457-.934a.283.283 0 0 1 .127-.382 9.358 9.358 0 0 1 1.613-.65.286.286 0 0 1 .353.183.285.285 0 0 1-.184.354 10.12 10.12 0 0 0-1.527.608c-.043.042-.085.042-.127.042a.297.297 0 0 1-.255-.155zm8.444-.396a12.48 12.48 0 0 0-1.258-.283c-.128-.028-.241-.043-.354-.057a.297.297 0 0 1-.241-.325.298.298 0 0 1 .326-.24c.127.014.254.042.368.056.452.085.891.184 1.315.297.156.043.24.198.198.354a.301.301 0 0 1-.283.212c-.028 0-.056 0-.071-.014zm-5.247-.68c-.014-.155.085-.296.24-.31.552-.071 1.132-.1 1.74-.085.156 0 .283.127.269.297a.276.276 0 0 1-.297.269 12.738 12.738 0 0 0-1.655.07c.014.014 0 .014-.014.014a.278.278 0 0 1-.283-.254zm-62.931.072a.276.276 0 0 1 .042-.396l1.301-1.09a.287.287 0 0 1 .397.029.287.287 0 0 1-.029.396c-.438.367-.863.721-1.301 1.089a.376.376 0 0 1-.198.07.255.255 0 0 1-.212-.098zm2.602-2.179a.287.287 0 0 1 .029-.396c.438-.368.862-.735 1.287-1.103a.287.287 0 0 1 .396.028.287.287 0 0 1-.028.396c-.425.368-.863.736-1.302 1.104a.234.234 0 0 1-.17.07.255.255 0 0 1-.212-.099zm2.575-2.22a.287.287 0 0 1 .028-.397c.453-.396.863-.763 1.273-1.131.113-.1.297-.1.396.028.1.113.1.297-.028.396-.396.368-.82.736-1.273 1.132a.27.27 0 0 1-.184.07.255.255 0 0 1-.212-.099zm2.532-2.264a.274.274 0 0 1 .014-.396c.424-.396.834-.792 1.23-1.16a.286.286 0 0 1 .397 0 .286.286 0 0 1 0 .396c-.397.382-.807.778-1.245 1.175-.043.056-.113.07-.184.07a.312.312 0 0 1-.212-.085zm2.447-2.362a.274.274 0 0 1 0-.396c.41-.41.806-.834 1.16-1.23a.274.274 0 0 1 .396-.015.273.273 0 0 1 .014.396c-.368.396-.764.82-1.174 1.245-.043.057-.113.085-.198.085a.28.28 0 0 1-.198-.085zm2.32-2.49c-.114-.098-.142-.282-.029-.396a24.97 24.97 0 0 0 1.047-1.315c.099-.127.269-.155.396-.056.127.098.156.268.057.395a27.95 27.95 0 0 1-1.075 1.344.273.273 0 0 1-.213.1.298.298 0 0 1-.183-.071zm2.065-2.687a.29.29 0 0 1-.085-.396c.311-.495.594-.976.834-1.443a.284.284 0 0 1 .382-.127c.142.07.198.24.128.382-.255.48-.538.99-.863 1.485a.278.278 0 0 1-.24.142.322.322 0 0 1-.156-.043zm1.584-2.985a.289.289 0 0 1-.17-.367 8.731 8.731 0 0 0 .41-1.584.297.297 0 0 1 .326-.241c.155.028.254.17.24.325a8.457 8.457 0 0 1-.438 1.684.284.284 0 0 1-.269.198c-.028 0-.057 0-.099-.015zM58.528 21.69c0-.156.128-.283.283-.283a14.016 14.016 0 0 0 1.655-.142c.156-.028.297.085.326.24.028.156-.085.298-.24.326-.623.085-1.203.128-1.74.142a.284.284 0 0 1-.284-.283zm-1.456.17a8.099 8.099 0 0 1-1.698-.467.287.287 0 0 1-.156-.368.287.287 0 0 1 .368-.156c.481.198 1.019.34 1.57.439.156.028.255.17.24.325a.289.289 0 0 1-.282.226h-.042zm4.823-.58a.271.271 0 0 1 .212-.34 21.77 21.77 0 0 0 1.613-.453.286.286 0 0 1 .353.184.286.286 0 0 1-.184.354c-.58.184-1.131.325-1.655.453-.028.014-.056.014-.07.014a.273.273 0 0 1-.27-.212zm27.724-.453a6.115 6.115 0 0 0-.354-1.584c-.056-.142.029-.312.17-.368.142-.057.311.028.368.17a7.09 7.09 0 0 1 .382 1.725.285.285 0 0 1-.255.312h-.028a.29.29 0 0 1-.283-.255zm-35.773-.311a7.44 7.44 0 0 1-.99-.905 2.847 2.847 0 0 1-.269-.312.287.287 0 0 1 .029-.396.287.287 0 0 1 .396.028l.255.298c.282.31.594.594.919.848a.29.29 0 0 1 .056.396.334.334 0 0 1-.226.1.272.272 0 0 1-.17-.057zm11.288-.184c-.056-.142.028-.311.17-.368.495-.184 1.018-.368 1.584-.594a.287.287 0 0 1 .368.156.287.287 0 0 1-.156.367c-.566.227-1.089.425-1.598.595-.028.014-.057.028-.1.028a.29.29 0 0 1-.268-.184zm3.169-1.217a.287.287 0 0 1 .155-.367c.523-.213 1.047-.439 1.57-.651a.287.287 0 0 1 .368.156.287.287 0 0 1-.156.367c-.523.227-1.046.439-1.57.651-.028 0-.056.014-.099.014a.317.317 0 0 1-.268-.17zm-16.776-1.188a14.75 14.75 0 0 1-.877-1.5.284.284 0 0 1 .127-.381.284.284 0 0 1 .382.127c.24.481.523.962.834 1.429.085.127.057.311-.07.396a.235.235 0 0 1-.156.056.296.296 0 0 1-.24-.127zm19.93-.127a.287.287 0 0 1 .156-.368 73.398 73.398 0 0 1 1.57-.65.287.287 0 0 1 .367.155.287.287 0 0 1-.155.368c-.524.212-1.047.424-1.57.65-.043 0-.085.015-.114.015a.28.28 0 0 1-.254-.17zm17.073 0a7.116 7.116 0 0 0-1.033-1.259.273.273 0 0 1 0-.396.273.273 0 0 1 .396 0c.396.396.778.849 1.118 1.358a.293.293 0 0 1-.085.396c-.057.014-.1.028-.156.028a.278.278 0 0 1-.24-.127zm-13.947-1.287a.287.287 0 0 1 .156-.368c.58-.226 1.103-.41 1.598-.594a.273.273 0 0 1 .353.17.273.273 0 0 1-.17.353c-.494.17-1.018.368-1.583.58-.015.029-.043.043-.085.043a.29.29 0 0 1-.27-.184zm11.613-.934a6.096 6.096 0 0 0-1.514-.58.288.288 0 0 1-.212-.34.288.288 0 0 1 .34-.211 6.478 6.478 0 0 1 1.655.636c.141.07.184.24.113.382a.274.274 0 0 1-.24.141.504.504 0 0 1-.142-.028zm-8.402-.198a.283.283 0 0 1 .198-.354c.58-.17 1.146-.31 1.669-.438a.288.288 0 0 1 .34.212.288.288 0 0 1-.213.34c-.509.113-1.06.254-1.626.424-.043.014-.071.014-.1.014a.276.276 0 0 1-.268-.198zm-27.795-.566a11.77 11.77 0 0 1-.382-1.697c-.028-.156.085-.297.24-.325.156-.029.298.085.326.24.07.538.198 1.075.368 1.613a.286.286 0 0 1-.184.353c-.043.014-.07.014-.1.014a.272.272 0 0 1-.268-.198zm31.105-.198a.285.285 0 0 1 .254-.31 12.35 12.35 0 0 1 1.74-.086c.156 0 .283.142.269.297a.275.275 0 0 1-.297.269 11.198 11.198 0 0 0-1.655.085h-.028a.278.278 0 0 1-.283-.255zm-31.289-2.942c-.17 0-.283-.141-.283-.297.014-.566.085-1.146.184-1.726a.276.276 0 0 1 .325-.226c.156.028.255.17.227.325-.1.552-.17 1.104-.184 1.641 0 .156-.127.283-.269.283-.014 0-.014 0 0 0zm.524-3.352c-.142-.043-.227-.212-.184-.354.184-.537.396-1.075.65-1.612a.302.302 0 0 1 .382-.142c.142.07.198.24.142.382-.24.51-.453 1.033-.623 1.542a.316.316 0 0 1-.283.198c-.028 0-.056 0-.084-.014zm1.372-3.098c-.128-.085-.184-.255-.1-.382.298-.48.609-.962.962-1.429.1-.127.27-.155.396-.056.128.099.156.269.057.396-.34.453-.65.92-.934 1.386-.042.085-.141.127-.24.127a.24.24 0 0 1-.141-.042zm1.966-2.758a.287.287 0 0 1-.029-.396c.694-.792 1.189-1.23 1.203-1.245.113-.1.297-.1.396.028.099.113.099.297-.029.396 0 0-.495.439-1.16 1.203a.286.286 0 0 1-.197.085.298.298 0 0 1-.184-.071z" fill="#5DB571"/><path d="M154.162 106.686c1.415 6.506 1.839 8.062 1.839 8.062h-17.54l-9.477-25.319 20.086 1.273s3.678 9.477 5.092 15.984z" fill="#F9D2DD"/><path d="m128.984 89.429 2.264 5.94 20.227 1.981a278.216 278.216 0 0 0-2.405-6.648l-20.086-1.273z" fill="#F9ACC0"/><path d="m77.638 90.42-3.819 24.328h65.774l-4.809-20.227 15.842-1.414s-6.789-22.632-20.368-29.988c-13.58-7.355-33.1-6.93-45.264-.99-7.497 3.664-19.662 16.833-21.925 28.29h14.57z" fill="#3D5CFF"/><path d="m77.638 90.42-3.819 24.328h65.774l-4.809-20.227 15.842-1.414s-3.677-20.37-20.368-29.988c-13.381-7.709-32.916-6.563-45.264-.99-8.77 3.96-18.389 13.862-21.925 28.29h14.57z" fill="#3D5CFF"/><path fill-rule="evenodd" clip-rule="evenodd" d="M58.359 48.493c-1.598.623-2.405 2.42-1.782 4.018l2.9 7.539c.622 1.598 2.418 2.405 4.017 1.782l6.223-2.404a.242.242 0 0 1 .142 0l7.553 3.083a.76.76 0 0 0 .68-.056c.013 0 .013-.015.027-.015h.015a.93.93 0 0 0 .537-1.202l-1.697-4.385c-.043-.099.014-.212.113-.255l3.706-1.428c1.598-.623 2.404-2.419 1.782-4.017l-2.9-7.54a3.104 3.104 0 0 0-4.017-1.782l-17.3 6.662zm12.023 7.045c-.028.014-.042.014-.07.014l-3.183.113a.506.506 0 0 1-.51-.34l-1.966-5.106a.516.516 0 0 1 .297-.679c.057-.028.114-.028.17-.042l2.815-.113c.212 0 .41.127.495.325l2.094 5.502a.263.263 0 0 1-.142.326zm1.146-.467a.244.244 0 0 1-.34-.028.312.312 0 0 1-.042-.071l-2.122-5.503a.53.53 0 0 1 .142-.565l2.15-1.81a.519.519 0 0 1 .735.07c.028.042.071.085.085.141l1.966 5.12a.46.46 0 0 1-.127.595l-2.447 2.05z" fill="#fff"/><path d="M153.342 38.677c.453 0 .891-.269 1.061-.707.184-.439.071-.92-.226-1.245l-.679 1.627c-.043.113-.099.212-.156.325zM151.277 35.947l-.042-.962c-.029-.34-.241-.438-.481-.198l-.708.622-.905-.24c-.311-.07-.467.113-.339.41l.353.905-.523.85c-.17.282-.057.48.269.438l.947-.114.58.779c.198.254.41.198.495-.128l.227-.962.891-.382c.297-.141.325-.382.042-.551l-.806-.467zM146.737 35.975a1.97 1.97 0 0 1 .127-.382l.693-1.669a1.124 1.124 0 0 0-1.174.693 1.173 1.173 0 0 0 .354 1.358z" fill="#fff"/><path fill-rule="evenodd" clip-rule="evenodd" d="M142.281 26.979a3.172 3.172 0 0 0-4.088 1.81l-3.296 8.587a3.173 3.173 0 0 0 1.811 4.087l4.413 1.698-1.995 5.163a.784.784 0 0 0 .453 1.018l.226.085a.783.783 0 0 0 .75.07l8.275-3.38 7.03 2.716c1.627.622 3.465-.184 4.088-1.81l3.31-8.587c.622-1.612-.184-3.437-1.811-4.073l-19.166-7.384zM152.55 39.78a3.58 3.58 0 0 1-3.494.863l-.65 1.57 1.174.495c.24.1.353.368.254.608a.463.463 0 0 1-.608.255l-3.211-1.33a.464.464 0 0 1-.255-.608.464.464 0 0 1 .609-.255l1.174.496.665-1.585a3.615 3.615 0 0 1-1.74-3.013 2.09 2.09 0 0 1-1.089-2.715 2.102 2.102 0 0 1 2.404-1.231l.283-.693a.67.67 0 0 1 .877-.354l5.403 2.25a.67.67 0 0 1 .354.876l-.297.722a2.037 2.037 0 0 1 .707 2.46 2.096 2.096 0 0 1-2.56 1.19z" fill="#fff"/><path d="m77.285 92.654.594.156 4.017-14.838-8.317 12.447h4.06l-.354 2.235z" fill="#224BF4"/><path d="M85.842 25.07c.283-5.376 4.527-7.639 6.224-7.78 1.697-.142 2.83.566 2.83.566s.706-9.053 6.506-10.326c5.799-1.273 8.628.99 10.184 3.253 1.556 2.263 1.415 3.536 1.415 3.536s2.263-1.839 6.223-.283c3.961 1.556 2.829 5.941 2.829 5.941s3.112-.849 4.668 4.244c1.556 5.092-3.677 13.579-5.658 14.852-1.98 1.273-30.694-3.82-30.694-3.82s-4.81-4.808-4.527-10.184z" fill="#1F1F39"/><path d="M89.096 33.132c-2.83 1.273-3.112 5.092-.99 7.497 2.121 2.404 7.496 1.839 7.496 1.839l-1.442-8.714s-2.235-1.895-5.064-.622zM122.916 33.132c2.829 1.273 3.112 5.092.99 7.497-2.121 2.404-7.496 1.839-7.496 1.839l1.442-8.714s2.235-1.895 5.064-.622z" fill="#F9ACC0"/><path d="M94.612 40.7c0-.015-.028-.962-1.09-2.575-1.074-1.612-3.111-2.164-3.125-2.178a.21.21 0 1 1 .099-.41c.085.028 2.206.608 3.38 2.348 1.16 1.725 1.174 2.758 1.174 2.8-.014.128-.113.227-.226.227a.218.218 0 0 1-.212-.212zM118.065 40.46c-.099-.057-.142-.185-.099-.284.028-.07.877-1.74 2.164-3.027 1.301-1.301 2.192-1.47 2.235-1.47.113-.015.226.056.24.169.014.113-.056.226-.17.24 0 0-.806.156-2.008 1.358-1.231 1.23-2.079 2.9-2.079 2.914a.196.196 0 0 1-.184.127.258.258 0 0 1-.099-.028z" fill="#1F1F39"/><path d="M95.037 42.468c1.414 4.95 5.94 7.78 5.94 7.78s.142 3.536-.424 6.082-1.132 3.536-1.132 3.536.991 2.122 6.224 2.122c5.658 0 7.214-2.122 7.214-2.122s-.707-2.122-.99-4.102c-.283-1.98-.141-5.375-.141-5.375s4.385-.566 6.082-6.79c1.697-6.223.849-11.74.849-11.74s-8.346 1.273-11.175-2.122c-2.829-3.395-5.658-6.79-9.76-5.092-4.102 1.697-3.82 5.94-3.82 5.94s-.282 6.932 1.133 11.883z" fill="#F9D2DD"/><path fill-rule="evenodd" clip-rule="evenodd" d="M100.509 30.519c-.73.422-1.532.402-1.79-.045-.258-.446.126-1.15.856-1.572.731-.422 1.532-.402 1.79.044.258.447-.126 1.15-.856 1.573zM101.967 37.941c-.703 0-1.273-.665-1.273-1.485 0-.82.57-1.485 1.273-1.485s1.273.665 1.273 1.485c0 .82-.57 1.485-1.273 1.485zM111.303 37.941c-.703 0-1.273-.665-1.273-1.485 0-.82.57-1.485 1.273-1.485s1.273.665 1.273 1.485c0 .82-.57 1.485-1.273 1.485z" fill="#1F1F39"/><path d="M106.777 41.336c1.273-.141 1.98-1.131 1.98-1.131s.424 1.697-1.273 2.263c-1.698.565-3.112-1.132-2.688-2.264 0 0 .707 1.274 1.981 1.132z" fill="#F95368"/><path d="M105.645 38.507c.424.849 1.556.424 1.556.424s-1.132-.282-1.132-1.131.566-2.405.566-2.405-1.414 2.263-.99 3.112z" fill="#1F1F39"/><path fill-rule="evenodd" clip-rule="evenodd" d="M94.188 37.305a5.457 5.457 0 0 1 5.446-5.446 5.457 5.457 0 0 1 5.445 5.446 5.457 5.457 0 0 1-5.445 5.446 5.457 5.457 0 0 1-5.446-5.446zm.424 0a5.023 5.023 0 0 0 10.043 0 5.023 5.023 0 0 0-10.043 0zM107.767 37.305a5.457 5.457 0 0 1 5.446-5.446 5.457 5.457 0 0 1 5.445 5.446 5.457 5.457 0 0 1-5.445 5.446 5.457 5.457 0 0 1-5.446-5.446zm.424 0a5.023 5.023 0 0 0 10.043 0 5.022 5.022 0 0 0-10.043 0z" fill="#1F1F39"/><path d="M104.824 35.692c.029-.014.807-.198 1.783-.198.99 0 1.443.198 1.471.212l-.17.382s-.41-.17-1.287-.17c-.934-.014-1.698.17-1.698.184l-.099-.41z" fill="#1F1F39"/><path d="M100.553 56.33c-.099.424-.184.806-.283 1.16.085-.029.17-.043.255-.071 6.11-1.613 9.406-3.706 11.16-5.319 0-.99.029-1.711.029-1.711s-1.698.99-5.8.848c-1.895-.07-3.946-.424-4.936-.99.014.877.042 3.961-.425 6.083z" fill="#F9ACC0"/><path fill-rule="evenodd" clip-rule="evenodd" d="M113.637 41.619c-1.523 0-2.758-.76-2.758-1.697 0-.938 1.235-1.698 2.758-1.698s2.758.76 2.758 1.698c0 .937-1.235 1.697-2.758 1.697zM99.068 41.619c-1.523 0-2.758-.76-2.758-1.697 0-.938 1.234-1.698 2.758-1.698 1.523 0 2.758.76 2.758 1.698 0 .937-1.235 1.697-2.758 1.697z" fill="#F9ACC0"/><path d="m134.784 94.521 4.724-.396-10.524-17.992 5.8 18.388z" fill="#224BF4"/><path d="M100.935 50.644a.208.208 0 0 1-.071-.298.209.209 0 0 1 .298-.07c.014.014 1.683.962 4.13.962.113 0 .212.099.212.212a.217.217 0 0 1-.212.212c-2.575 0-4.286-.976-4.357-1.018z" fill="#1F1F39"/><path d="M96.31 93.135c.792-.679.678-2.15.339-3.055-.198-.51-.707-1.245-1.117-1.783-.439-.565-.524-1.33-.142-1.853.51-.693 2.009-.806 3.183-.48.778.212 1.584.58 2.136 1.202 1.358 1.584 1.697 2.97 1.697 2.97s2.405-1.414 4.668 0c1.117.693.99 2.122.99 2.122s1.245-.028 2.263.99c1.019 1.018.283 2.546.283 2.546s1.457 1.386.481 3.14c-.622 1.104-2.942 3.805-7.497 6.168-6.818 3.536-21.062 12.023-30.892 13.041-6.352.651-15.136-1.556-12.59-13.296 2.547-11.74 3.537-14.428 3.537-14.428H78.5l-2.277 8.911s19.293-5.516 20.085-6.195z" fill="#F9D2DD"/><path d="M67.75 102.16c-.042-.114.03-.227.128-.269l8.275-2.759c.113-.042.226.029.269.128.042.113-.029.226-.128.269l-8.274 2.758c-.029.014-.043.014-.071.014a.214.214 0 0 1-.198-.141zM103.835 94.846a.226.226 0 0 1 .07-.297l4.032-2.475a.226.226 0 0 1 .297.07.227.227 0 0 1-.071.298l-4.031 2.475c-.043.014-.071.028-.114.028a.24.24 0 0 1-.183-.099zM106.24 98.524a.226.226 0 0 1 .07-.297l4.032-2.475a.226.226 0 0 1 .297.07.227.227 0 0 1-.071.297l-4.031 2.476c-.043.014-.071.028-.114.028a.24.24 0 0 1-.183-.099z" fill="#1F1F39"/><path d="M102.406 90.122c.014 1.938-1.287 3.55-1.287 3.55 2.291-.17 3.706-2.362 4.484-4.102-1.613-.282-3.013.453-3.197.552zM78.487 90.42H63.635s-.396 1.06-1.316 4.78l15.772-3.21.396-1.57z" fill="#F9ACC0"/><path d="M106.367 86.43a.268.268 0 0 1-.114-.382l1.556-2.97a.268.268 0 0 1 .382-.113c.142.07.198.24.114.382l-1.556 2.97a.317.317 0 0 1-.255.141.41.41 0 0 1-.127-.028zM90.807 71.819l-1.273-4.668a.283.283 0 0 1 .198-.354.283.283 0 0 1 .354.198l1.273 4.668a.283.283 0 0 1-.198.354c-.042.014-.057.014-.085.014a.273.273 0 0 1-.269-.213zM96.918 79.513a.287.287 0 0 1-.156-.367l1.698-4.385a.287.287 0 0 1 .367-.156.287.287 0 0 1 .156.368l-1.697 4.385a.3.3 0 0 1-.27.17c-.028 0-.07 0-.098-.015zM86.154 89.698l-1.98-3.82a.283.283 0 0 1 .127-.381.283.283 0 0 1 .382.127l1.98 3.82a.284.284 0 0 1-.127.381.412.412 0 0 1-.128.028.298.298 0 0 1-.254-.155zM117.612 97.124a.274.274 0 0 1 0-.396l2.121-2.122a.275.275 0 0 1 .397 0 .274.274 0 0 1 0 .396l-2.122 2.122a.281.281 0 0 1-.198.085.278.278 0 0 1-.198-.085zM118.715 108.977l-2.263-2.829c-.099-.127-.085-.297.043-.396.127-.099.297-.085.396.043l2.263 2.829c.099.127.085.297-.043.396-.042.056-.113.07-.169.07a.296.296 0 0 1-.227-.113zM101.798 112.57a.29.29 0 0 1-.071-.396l2.122-2.97c.085-.128.269-.156.396-.071a.29.29 0 0 1 .071.396l-2.122 2.97a.272.272 0 0 1-.396.071zM129.451 106.247a.287.287 0 0 1-.169-.367l1.414-3.961a.29.29 0 0 1 .368-.17.29.29 0 0 1 .17.368l-1.415 3.961a.289.289 0 0 1-.269.183c-.028 0-.07 0-.099-.014zM119.225 80.235v-4.95c0-.156.127-.284.283-.284.155 0 .282.127.282.283v4.95a.283.283 0 0 1-.282.284.284.284 0 0 1-.283-.283zM109.62 68.848l-.707-2.687a.272.272 0 0 1 .198-.34c.155-.042.311.057.339.198l.708 2.688a.273.273 0 0 1-.199.34c-.028.013-.042.013-.07.013a.272.272 0 0 1-.269-.212zM127.895 69.046a.288.288 0 0 1-.169-.368l.99-2.687a.288.288 0 0 1 .368-.17.288.288 0 0 1 .169.368l-.99 2.687a.29.29 0 0 1-.269.184c-.028 0-.07 0-.099-.014zM70.283 79.259l-.142-3.112c0-.156.113-.283.27-.297.155 0 .282.113.296.269l.142 3.112a.296.296 0 0 1-.283.297c.014 0 0 0 0 0-.156 0-.269-.114-.283-.27zM144.303 78.976l-4.059-.722a.276.276 0 0 1-.227-.325.277.277 0 0 1 .326-.226l4.059.721c.156.028.255.17.227.325-.015.128-.142.227-.269.227h-.057zM133.694 92.017a.285.285 0 0 1 .255-.31l15.786-1.401a.285.285 0 0 1 .311.255.285.285 0 0 1-.255.31l-15.786 1.387s-.014.014-.028.014a.29.29 0 0 1-.283-.255zM63.324 88.184c0-.155.113-.283.268-.297l15.46-.509c.156 0 .284.113.298.269a.294.294 0 0 1-.269.297l-15.475.51c-.155 0-.282-.128-.282-.27z" fill="#EAEAFF"/><path d="M78.459 90.334c-.114-.028-.184-.141-.142-.254l3.82-13.721c.028-.113.155-.184.254-.141.113.028.184.141.141.254l-3.819 13.72c-.014.086-.099.156-.198.156-.014 0-.042 0-.056-.014zM134.374 94.507l-5.658-18.388a.223.223 0 0 1 .141-.27.225.225 0 0 1 .269.142l5.658 18.389a.224.224 0 0 1-.142.269c-.028.014-.056.014-.07.014a.208.208 0 0 1-.198-.156z" fill="#1F1F39"/><g clip-path="url(#a)"><rect x=".677" y="5.463" width="37.174" height="44.099" rx="5" fill="#fff"/><path fill="#63926C" d="M8.985 36.172h20.56v2.244H8.985z"/><path fill="#8FAC94" d="M12.553 40.968h13.423v2.244H12.553z"/><g clip-path="url(#b)"><circle cx="19.265" cy="21.602" r="9.364" fill="#C2E3DF"/><path fill-rule="evenodd" clip-rule="evenodd" d="m18.191 22.472 4.2-4.17 1.212 1.26-5.412 5.34-3.264-3.317 1.153-1.171 2.111 2.058z" fill="#63926C"/></g></g><defs><clipPath id="a"><path fill="#fff" transform="translate(.677 5.463)" d="M0 0h37.174v44.099H0z"/></clipPath><clipPath id="b"><path fill="#fff" transform="translate(9.9 12.238)" d="M0 0h18.728v18.728H0z"/></clipPath></defs></svg>