<svg width="98" height="97" fill="none" xmlns="http://www.w3.org/2000/svg"><circle opacity=".56" cx="48.929" cy="48.507" r="48.257" fill="#F5ECFF"/><path d="m58.638 54.177 2.439 6.496a25.664 25.664 0 0 0 5.86-3.817c-.43-1.253-.802-2.201-.802-2.201l-7.497-.478zM39.487 60.797l2.546-6.793-7.497.478a51.53 51.53 0 0 0-.934 2.589 25.477 25.477 0 0 0 5.885 3.726z" fill="#DA5742"/><path d="m58.638 54.177.843 2.21 7.439.461a144.642 144.642 0 0 0-.785-2.193l-7.497-.478zM42.108 53.765l-.843 2.21-7.555.733c.405-1.154.9-2.465.9-2.465l7.498-.478z" fill="#C43D28"/><path d="M41.794 44.004c-3.274 1.484-6.86 6.067-8.183 11.443h5.852l-.967 4.88a25.593 25.593 0 0 0 11.645 2.787c4.216 0 8.183-1.014 11.688-2.812l-1.025-4.229 5.918-.528c-.009 0-1.372-7.584-7.613-11.17-5-2.87-12.703-2.44-17.316-.371z" fill="#3D5CFF"/><path opacity=".467" d="M42.72 50.599c-.141 2.383-.274 4.757-.414 7.14-.075 1.327-.157 2.654-.232 3.973-.008.157.24.157.248 0 .14-2.374.281-4.74.414-7.115.14-2.374.272-4.748.413-7.123.074-1.31.157-2.621.231-3.932.009-.157-.24-.157-.248.008-.14 2.35-.28 4.7-.413 7.049zM45.992 50.516l-.149 7.75c-.024 1.45-.058 2.91-.082 4.361 0 .157.248.157.248 0 .05-2.589.099-5.177.157-7.766l.149-7.741c.024-1.443.057-2.894.082-4.337 0-.173-.248-.173-.248-.008-.05 2.58-.099 5.161-.157 7.741zM49.852 50.492c.042 2.646.091 5.292.133 7.939l.074 4.485c0 .156.248.156.248 0-.041-2.647-.091-5.293-.132-7.94-.042-2.646-.091-5.292-.133-7.939l-.074-4.484c0-.157-.248-.157-.248 0 .041 2.646.09 5.292.132 7.939zM53.572 46.287c.074 1.303.165 2.605.247 3.908.091 1.319.182 2.63.29 3.949.099 1.303.206 2.613.322 3.916.108 1.253.223 2.506.347 3.76.017.148.033.296.042.444.016.157.264.157.248 0-.124-1.245-.24-2.49-.347-3.726a321.616 321.616 0 0 1-.323-3.9c-.1-1.319-.198-2.63-.29-3.948-.09-1.311-.173-2.614-.255-3.925a572.828 572.828 0 0 1-.215-3.767l-.025-.445c-.008-.165-.256-.165-.248-.009.066 1.245.132 2.49.207 3.743zM57.795 50.277l1.14 6.909.62 3.767c.026.157.265.091.24-.065-.372-2.268-.744-4.526-1.115-6.794l-1.141-6.908-.62-3.768c-.033-.156-.273-.09-.24.066l1.116 6.793zM39.09 49.148a332.438 332.438 0 0 0-1.346 6.175c-.033.156.206.222.24.066.272-1.328.561-2.647.85-3.974.29-1.303.587-2.613.877-3.916.173-.75.339-1.5.504-2.25.041-.149-.19-.215-.232-.058l-.892 3.957zM61.647 49.42c.421 1.336.851 2.68 1.281 4.015.24.75.488 1.5.744 2.242.05.149.29.083.24-.066a321.812 321.812 0 0 1-1.306-3.998c-.422-1.336-.852-2.68-1.282-4.015-.24-.75-.487-1.5-.743-2.242-.05-.157-.29-.091-.24.066.446 1.327.876 2.663 1.306 3.998z" fill="#CDECFE"/><path d="m41.058 49.915-3.48 5.532 1.976-.009 1.504-5.523zM60.804 56.073l1.76-.148-3.926-6.703 2.166 6.851z" fill="#224BF4"/><path d="M39.537 55.529c-.041-.008-.066-.058-.058-.099l1.653-6.117c.009-.041.058-.066.1-.058.04.008.066.058.057.099l-1.653 6.117a.08.08 0 0 1-.074.058h-.025zM60.647 56.073l-2.116-6.85c-.017-.042.008-.083.05-.1.04-.016.082.009.099.05l2.124 6.85c.016.042-.009.083-.05.1-.016 0-.025.008-.033.008a.08.08 0 0 1-.074-.058z" fill="#1F1F39"/><path d="M46.24 40.26c-.744-.166-.826-.578-.826-.578s-.248.495-1.736.33c-1.488-.165-1.983-1.567-1.983-1.567s-1.819-.33-2.15-1.319c-.33-.989-.248-1.401-.248-1.401s-1.24-1.072-1.157-2.226c.083-1.154.496-1.402.496-1.402s-.66-.577-.496-1.071c.166-.495.496-.577.496-.577s-1.735-1.732-1.157-3.628c.579-1.896 1.984-1.896 1.984-1.896s-.248-.66.496-1.072c.744-.412 1.074-.33 1.074-.33s-.165-2.06.91-2.555c1.074-.495 1.983-.247 1.983-.247s-.083-1.155.661-1.237c.744-.083 1.075.412 1.075.412s0-.33.661-.412c.661-.083.744.165.744.165S47.232 18 48.967 18c1.737 0 2.315.99 2.315.99s.414-.743 1.405-.578c.992.165.992 1.072.992 1.072s.827-.907 2.562-.412c1.736.494 2.232 3.545 2.232 3.545s.579-.165 1.075.082c.495.247.413 1.154.413 1.154s1.57.083 1.9 1.402c.331 1.319 0 1.814 0 1.814s1.406 1.319.993 3.297c-.414 1.979-1.24 2.638-1.24 2.638s.33.99 0 1.732-.992.742-.992.742.248 1.154-.33 1.566c-.58.412-1.158.247-1.158.247s-.578 1.979-2.645 2.638c-2.066.66-4.132-.247-4.132-.247l-4.877.742s-.496 0-1.24-.165z" fill="#F99A3D"/><path d="M43.777 32.51c.265.107.48.23.645.354.016-.725.843-2.992 1.67-3.734.785-.701 2.231-1.32 3.388-.413s1.653 2.391 2.397 1.979c.744-.412 1.57-1.237 2.397-.577.62.494.727 2.02.744 2.745.165-.124.38-.239.645-.354.909-.38 2.173.148 2.116 1.714.04.685-.265 1.427-.777 1.748-.736.47-2.39.33-2.39.33s-.14.7-.512 1.401c-.578 1.072-1.735 1.979-1.735 1.979v1.954l.182 2.663s-.19.099-.521.214a3.925 3.925 0 0 1-.736.214 7.105 7.105 0 0 1-1.562.174 6.233 6.233 0 0 1-1.562-.174 3.383 3.383 0 0 1-.736-.214c-.33-.115-.52-.214-.52-.214l.182-2.663v-1.954s-1.158-.907-1.736-1.979c-.38-.7-.438-1.154-.438-1.385-.463.042-1.736.116-2.472-.346-.52-.321-.826-1.063-.785-1.748-.058-1.566 1.199-2.094 2.116-1.714z" fill="#DA5742"/><path d="m47.075 41.644-.066 1.022c.752-.057 1.67-.222 2.703-.593 1.05-.38 1.942-.915 2.645-1.418v-.973c-1.488.907-4.629.577-5.282-.008v1.97z" fill="#C43D28"/><path d="M47.017 39.731a.1.1 0 0 1-.008-.132c.033-.04.091-.04.132-.008.389.355 1.728.602 2.976.544.05 0 .09.033.09.083s-.032.09-.082.09c-.124.025-.248.025-.372.025-1.19 0-2.347-.247-2.736-.602z" fill="#1F1F39"/><path d="M55.109 32.798c-.041.602.074.289-.19 2.102-.058.371-.265 1.072-.364 1.435.562.041 1.794.05 2.447-.363.512-.321.81-1.063.777-1.748.05-1.566-1.207-2.094-2.116-1.714-.215.09-.397.19-.554.288zM45.34 37.703c.008.017.024.042.032.058-.082-.165-.165-.33-.24-.486.059.132.125.272.207.428zM43.769 32.51c-.91-.38-2.174.148-2.116 1.714-.041.685.264 1.427.777 1.748.702.445 1.9.396 2.405.355-.231-1.03-.413-2.474-.529-3.537a3.227 3.227 0 0 0-.537-.28z" fill="#C43D28"/><path d="M44.505 35.585s-.009-.413-.471-1.097c-.463-.684-1.331-.923-1.34-.931a.096.096 0 0 1-.066-.108.097.097 0 0 1 .108-.066c.041.009.95.256 1.446 1.006.496.742.496 1.18.496 1.196.009.05-.033.09-.082.09a.092.092 0 0 1-.091-.09zM54.86 35.585c0-.017.01-.462.497-1.196.496-.742 1.405-.99 1.446-1.006.05-.016.1.017.108.066a.082.082 0 0 1-.067.108c-.008 0-.884.239-1.339.931-.462.684-.47 1.097-.47 1.097.008.05-.034.09-.083.09a.092.092 0 0 1-.091-.09z" fill="#1F1F39"/><path d="M47.067 32.84s.066-.66.545-.66c.48 0 .546.66.546.66M51.257 32.84s.066-.66.546-.66c.48 0 .545.66.545.66" fill="#fff"/><path d="M49.712 34.018a1.835 1.835 0 0 0-.124.437c-.009.074 0 .14.033.181 0 .009.008.009.008.017l.017.017a.174.174 0 0 0 .04.024.173.173 0 0 0 .092.033c.132.025.29-.033.43-.099a.586.586 0 0 1-.19.157.452.452 0 0 1-.257.058.353.353 0 0 1-.132-.042c-.025-.008-.041-.024-.058-.04l-.025-.026c-.008-.008-.016-.016-.024-.032a.375.375 0 0 1-.058-.273.92.92 0 0 1 .066-.247c.025-.074.066-.148.099-.222a2.11 2.11 0 0 1 .265-.38c-.067.149-.124.297-.182.437z" fill="#1F1F39"/><path d="M49.133 35.989s.314.783 1.19.66c.711-.1.794-.924.794-.924" fill="#fff"/><path fill-rule="evenodd" clip-rule="evenodd" d="M47.687 34.653c-.297 0-.538-.295-.538-.66 0-.364.24-.659.538-.659.296 0 .537.295.537.66 0 .364-.24.659-.537.659zM51.82 34.653c-.297 0-.538-.295-.538-.66 0-.364.24-.659.537-.659.297 0 .537.295.537.66 0 .364-.24.659-.537.659z" fill="#1F1F39"/><path fill-rule="evenodd" clip-rule="evenodd" d="M54.597 35.496c-.038.444-.696.751-1.469.685-.773-.066-1.369-.48-1.33-.925.037-.444.695-.751 1.468-.685.773.066 1.37.48 1.331.925zM47.902 35.496c-.038.444-.695.751-1.469.685-.773-.066-1.369-.48-1.33-.925.037-.444.695-.751 1.468-.685.773.066 1.37.48 1.331.925z" fill="#C43D28"/><path d="M23.67 39.8c-2.776 1.436-3.915 5.446-5.307 7.591-1.383 2.145-1.952 2.688-3.03 3.459-1.076.77-2.425.788-2.425.788s2.4 6.024 11.646 7.084c9.246 1.059 14.202-2.067 16.076-3.345 1.873-1.27 2.924-3.31 2.924-3.31s-4.352-.963-5.586-4.965c-1.235-4.01-2.977-6.83-5.674-7.276-2.697-.446-4.028.42-4.028.42s-1.821-1.89-4.597-.446z" fill="#1F1F39"/><path d="m36.97 71.847 2.583 6.9a27.183 27.183 0 0 0 6.208-4.055c-.456-1.33-.85-2.337-.85-2.337l-7.942-.508zM16.682 78.878l2.697-7.215-7.942.508a54.573 54.573 0 0 0-.99 2.75 26.978 26.978 0 0 0 6.235 3.957z" fill="#F9D2DD"/><path d="m36.97 71.847.893 2.346 7.88.49c-.43-1.234-.832-2.329-.832-2.329l-7.942-.507zM19.458 71.409l-.893 2.346-8.004.78c.43-1.226.955-2.618.955-2.618l7.942-.508z" fill="#F9ACC0"/><path d="M19.134 61.042c-3.468 1.567-7.277 6.436-8.678 12.144h6.2L15.63 78.37a27.019 27.019 0 0 0 12.329 2.96c4.465 0 8.668-1.078 12.38-2.978l-1.085-4.491 6.27-.56c0 .008-1.445-8.047-8.047-11.856-5.29-3.056-13.459-2.6-18.344-.403z" fill="#3D5CFF"/><path d="m18.346 67.32-3.687 5.875 2.093-.009 1.594-5.866zM39.264 73.86l1.865-.157-4.16-7.119 2.295 7.277z" fill="#224BF4"/><path d="M16.735 73.283c-.044-.01-.07-.062-.062-.105l1.752-6.497c.008-.044.06-.07.105-.062.043.01.07.062.06.105l-1.75 6.497a.084.084 0 0 1-.08.062h-.025zM39.097 73.86l-2.241-7.276c-.018-.044.009-.087.052-.105.044-.017.088.009.105.053l2.242 7.276c.017.044-.009.087-.053.105-.008 0-.017.009-.026.009a.084.084 0 0 1-.079-.061z" fill="#1F1F39"/><path d="M34.684 48.24c-.28.114-.508.246-.683.377 0-.753-.079-1.445-.079-1.445l-1.733-.017-.105-1.042-.21 1.042-2.653-.026-.114-1.016-.184 1.007-4.378-.044-.175-1.821-.245 1.821-1.331-.009s-.018.727-.018 1.541a3.455 3.455 0 0 0-.683-.376c-.963-.403-2.303.157-2.241 1.821-.044.727.28 1.515.823 1.856.779.5 2.049.42 2.53.368.026.245.149.727.552 1.471.613 1.138 1.838 2.102 1.838 2.102v2.075l-.192 2.828s.201.105.552.227c.175.07.42.158.779.228a7.51 7.51 0 0 0 1.655.184c.63.009 1.19-.07 1.655-.184.359-.07.604-.149.779-.227.35-.123.552-.228.552-.228l-.193-2.828v-2.067s1.226-.963 1.839-2.101c.402-.744.542-1.489.542-1.489s1.752.15 2.53-.35c.552-.341.876-1.13.833-1.856.061-1.664-1.27-2.224-2.242-1.822z" fill="#F9D2DD"/><path d="M22.102 48.24c-.963-.402-2.303.158-2.242 1.822-.043.727.28 1.515.823 1.856.771.49 2.014.42 2.513.377 0 0-.175-.981-.306-1.953-.123-.884-.105-1.76-.105-1.725a3.45 3.45 0 0 0-.683-.376zM34.01 48.617c0-.026.009.814-.079 1.637a21.996 21.996 0 0 1-.341 2.014c.149.01 1.777.123 2.521-.35.543-.341.859-1.13.824-1.856.052-1.664-1.279-2.224-2.242-1.821-.28.113-.508.245-.683.376z" fill="#F9ACC0"/><path d="M22.697 51.507s-.008-.5-.551-1.331c-.543-.832-1.576-1.121-1.585-1.121-.061-.018-.088-.079-.079-.132.018-.06.079-.087.131-.078.044.008 1.121.315 1.708 1.217.586.893.586 1.427.586 1.445a.106.106 0 0 1-.105.105.106.106 0 0 1-.105-.105zM34.124 51.384c-.053-.026-.079-.088-.053-.149.018-.035.447-.902 1.095-1.567.657-.674 1.112-.762 1.13-.762.06-.009.113.026.122.088.009.06-.026.113-.088.122 0 0-.411.079-1.015.7-.622.64-1.051 1.498-1.051 1.507a.112.112 0 0 1-.096.07c-.018 0-.035 0-.044-.01z" fill="#1F1F39"/><path fill-rule="evenodd" clip-rule="evenodd" d="M32.049 52.417c-.77 0-1.392-.392-1.392-.875 0-.484.623-.876 1.392-.876.769 0 1.392.392 1.392.876 0 .483-.623.875-1.392.875zM24.685 52.417c-.769 0-1.392-.392-1.392-.875 0-.484.623-.876 1.392-.876.769 0 1.392.392 1.392.876 0 .483-.623.875-1.392.875z" fill="#F9ACC0"/><path d="M26.655 56.209a4.063 4.063 0 0 1-1.06-.298v2.022l-.087 1.261c.236-.017.5-.07.788-.184 2.023-.788 4.212-2.89 4.212-2.89s-2.364.264-3.853.089z" fill="#F9ACC0"/><path d="M24.974 47.934a.727.727 0 0 1 .517-.122c.175.017.35.07.499.183.14.114.236.29.219.464a.678.678 0 0 0-.298-.341 1.213 1.213 0 0 0-.43-.123.886.886 0 0 0-.428.062.903.903 0 0 0-.342.315.63.63 0 0 1 .263-.438zM30.84 48.057a.758.758 0 0 1 .517-.08.675.675 0 0 1 .254.089.645.645 0 0 1 .201.175c.114.14.175.306.175.472a1.205 1.205 0 0 0-.28-.367.55.55 0 0 0-.175-.114c-.035-.009-.061-.026-.096-.035l-.105-.027a.894.894 0 0 0-.43.027.838.838 0 0 0-.393.236.667.667 0 0 1 .332-.376zM28.424 50.053c-.088.21-.167.42-.193.64-.009.052-.009.104-.009.157.009.052.009.105.026.149a.388.388 0 0 0 .158.227.749.749 0 0 0 .298.105c.114.018.227.027.341.018a.926.926 0 0 1-.35.07.797.797 0 0 1-.368-.079.521.521 0 0 1-.254-.306c-.026-.062-.026-.132-.035-.193 0-.061 0-.131.01-.193.034-.245.13-.464.244-.674a2.74 2.74 0 0 1 .412-.551c-.096.21-.193.42-.28.63z" fill="#1F1F39"/><path fill-rule="evenodd" clip-rule="evenodd" d="M26.215 50.072c-.05.413-.363.715-.698.674-.337-.04-.569-.408-.519-.821.05-.413.363-.715.699-.674.336.04.568.408.518.82zM31.826 50.188c-.05.413-.362.715-.698.674-.337-.04-.569-.408-.519-.82.05-.413.363-.715.699-.675.336.04.568.408.518.821z" fill="#1F1F39"/><path d="M28.205 52.18H29.01c.167 0 .36 0 .622.01a.723.723 0 0 1-.114.35.997.997 0 0 1-.236.271 1.108 1.108 0 0 1-1.077.175.998.998 0 0 1-.333-.201.89.89 0 0 1-.219-.315.682.682 0 0 1-.026-.377c.254.061.429.079.578.088z" fill="#DA5742"/><path d="M25.184 55.823a.106.106 0 0 1-.009-.14c.035-.044.097-.044.14-.009.412.377 1.83.64 3.153.578.052 0 .096.035.096.088 0 .052-.035.096-.088.096-.131.026-.262.026-.394.026-1.26 0-2.486-.262-2.898-.639z" fill="#1F1F39"/><path opacity=".55" d="M35.306 64.86c-.666-.29-1.489-.99-1.646-2.689-.07-.796-.061-1.54.044-2.206a.184.184 0 0 1 .2-.149.184.184 0 0 1 .15.201 8.886 8.886 0 0 0-.044 2.12c.114 1.225.595 2.03 1.436 2.398 1.173.508 3.047.053 4.562-1.111.079-.062.184-.044.245.035.061.078.044.183-.035.245-1.287.99-2.6 1.392-3.651 1.392-.49 0-.92-.088-1.261-.237z" fill="#EAEAFF"/><path opacity=".55" d="m44.123 70.122-.21-.097c-3.467-1.61-6.742-3.134-7.355-6.882-.122-.77-.131-1.488-.017-2.136a.17.17 0 0 1 .201-.14.17.17 0 0 1 .14.201c-.105.613-.096 1.296.026 2.023.587 3.563 3.774 5.052 7.163 6.62l.21.096c.087.043.123.148.087.236-.052.052-.113.096-.175.096a.164.164 0 0 1-.07-.017z" fill="#EAEAFF"/><path opacity=".55" fill-rule="evenodd" clip-rule="evenodd" d="M39.167 78.633c.368-1.27.114-2.636-.709-3.835-.972-1.41-2.705-2.549-5.017-3.293-2.653-.858-4.64-.613-5.84-.262-.7.21-1.314.507-1.813.884.622.061 1.261.105 1.892.149 3.406.245 6.62.481 7.38 2.767.325.963.106 1.847-.603 2.486-.692.622-1.804.981-3.135 1.007-1.418.026-2.96-.324-4.465-.998-1.13-.508-1.927-1.156-2.356-1.917-.403-.71-.464-1.471-.175-2.207.14-.368.359-.71.648-1.024-1.979-.246-3.765-.692-4.816-1.804-.727-.762-1.007-1.769-.84-2.925-.71-.017-1.471-.07-2.294-.175-1.445-.184-2.478-.516-3.573-1.147l.175-.306c.885.508 1.804.893 3.433 1.103.831.105 1.61.158 2.32.175.254-1.13.902-2.303 1.839-3.3.893-.964 1.952-1.647 2.985-1.945 1.183-.341 2.26-.149 3.109.56.578.482.735 1.157.429 1.874-.43.999-1.664 1.9-3.389 2.478-1.024.342-2.565.692-4.65.692h-.025c-.158.99.035 1.944.726 2.68 1.034 1.085 2.864 1.506 4.886 1.733 1.594-1.4 4.676-2.058 8.266-.902 2.382.77 4.176 1.953 5.2 3.424.868 1.287 1.14 2.75.745 4.124l-.333-.096zm-14.526-5.096c-.534 1.392.342 2.766 2.356 3.686 2.407 1.094 5.656 1.462 7.215.052.612-.551.788-1.278.507-2.119-.691-2.066-3.791-2.294-7.074-2.53a46.425 46.425 0 0 1-2.242-.184c-.35.333-.613.7-.762 1.095zm-3.187-9.282c-.832.885-1.47 1.988-1.725 3.065 2.014-.009 3.503-.333 4.492-.674 1.602-.543 2.793-1.392 3.178-2.286.246-.569.132-1.077-.332-1.462-.473-.394-1.104-.63-1.83-.63-1.121 0-2.452.569-3.783 1.987z" fill="#EAEAFF"/><path d="M75.09 48.447s-.248-.198-.786-.264c-.537-.066-.868.132-.876.132a.132.132 0 0 1-.173-.04.12.12 0 0 1 .041-.166c.016-.008.413-.239 1.033-.165.62.075.901.314.918.322.05.041.057.123.016.173a.132.132 0 0 1-.09.033.16.16 0 0 1-.084-.025zM68.576 48.43a.128.128 0 0 1 .017-.172c.008-.009.298-.248.917-.322.62-.074 1.017.157 1.034.165.058.033.074.107.041.173-.033.058-.107.074-.174.041-.008 0-.347-.198-.876-.132-.537.066-.785.264-.785.264a.133.133 0 0 1-.074.025.153.153 0 0 1-.1-.041z" fill="#1F1F39"/><path d="m79.702 72.479 2.438 6.496A25.663 25.663 0 0 0 88 75.158a60.055 60.055 0 0 0-.802-2.201l-7.496-.478zM60.55 79.099l2.547-6.793-7.497.478a51.413 51.413 0 0 0-.934 2.588 25.477 25.477 0 0 0 5.885 3.727z" fill="#F9D2DD"/><path d="m79.702 72.479.843 2.21 7.439.46a144.177 144.177 0 0 0-.786-2.192l-7.496-.478zM63.171 72.067l-.843 2.21-7.555.733c.405-1.154.901-2.465.901-2.465l7.497-.478z" fill="#F9ACC0"/><path d="M62.865 62.306c-3.273 1.475-6.869 6.059-8.19 11.434h5.85l-.966 4.88a25.558 25.558 0 0 0 11.637 2.787 25.62 25.62 0 0 0 11.688-2.803l-1.025-4.23 5.918-.527c0 .009-1.364-7.576-7.596-11.162-4.992-2.878-12.704-2.449-17.316-.38z" fill="#3D5CFF"/><path d="m62.121 68.217-3.48 5.531 1.976-.008 1.504-5.523zM81.867 74.375l1.76-.148-3.925-6.703 2.165 6.851z" fill="#224BF4"/><g opacity=".451" fill-rule="evenodd" clip-rule="evenodd" fill="#F9EDC7"><path opacity=".451" d="M68.601 73.377a1.156 1.156 0 0 1-1.157-1.154c0-.637.518-1.154 1.157-1.154.64 0 1.157.517 1.157 1.154 0 .638-.518 1.154-1.157 1.154zM74.015 71.193a1.156 1.156 0 0 1-1.157-1.154c0-.638.518-1.155 1.157-1.155a1.156 1.156 0 1 1 0 2.308zM64.593 67.318c-.64 0-1.158-.517-1.158-1.154 0-.638.519-1.154 1.158-1.154.639 0 1.157.516 1.157 1.154 0 .637-.518 1.154-1.157 1.154zM64.593 78.695c-.64 0-1.158-.517-1.158-1.154 0-.638.519-1.154 1.158-1.154.639 0 1.157.516 1.157 1.154 0 .637-.518 1.154-1.157 1.154zM74.759 79.85a1.156 1.156 0 0 1-1.157-1.155c0-.637.518-1.154 1.157-1.154s1.157.517 1.157 1.154c0 .637-.518 1.154-1.157 1.154zM84.016 74.985c-.639 0-1.157-.517-1.157-1.154 0-.638.518-1.154 1.157-1.154.64 0 1.157.516 1.157 1.154 0 .637-.518 1.154-1.157 1.154zM56.906 70.616c-.64 0-1.157-.517-1.157-1.154 0-.638.518-1.155 1.157-1.155s1.157.517 1.157 1.154c0 .638-.518 1.155-1.157 1.155zM84.43 68.225c-.64 0-1.158-.517-1.158-1.154 0-.638.518-1.154 1.157-1.154.64 0 1.157.516 1.157 1.154 0 .637-.518 1.154-1.157 1.154zM77.321 63.278c-.639 0-1.157-.516-1.157-1.154 0-.637.518-1.154 1.157-1.154.64 0 1.157.517 1.157 1.154 0 .638-.518 1.154-1.157 1.154z"/></g><path d="M60.6 73.83c-.04-.007-.066-.057-.057-.098l1.653-6.117c.008-.041.058-.066.099-.058s.066.058.058.1L60.7 73.772a.08.08 0 0 1-.075.058H60.6zM81.71 74.375l-2.116-6.851c-.016-.041.008-.082.05-.099.041-.016.082.008.099.05l2.124 6.85c.016.042-.008.083-.05.1-.016 0-.024.008-.033.008a.08.08 0 0 1-.074-.058z" fill="#1F1F39"/><path d="M63.353 43.41c1.074-2.143 2.562-2.308 2.562-2.308s1.405-3.545 6.116-3.545c4.712 0 5.786 4.616 5.786 4.616s2.15.66 2.067 2.803C79.8 47.12 77.8 52.043 77.8 52.043l-13.208-2.614s-2.315-3.874-1.24-6.018z" fill="#fff"/><path d="M63.593 48.571c-1.356.618-1.488 2.481-.472 3.652 1.017 1.17 3.58.899 3.58.899l-.687-4.246s-1.066-.923-2.421-.305zM79.743 48.571c1.347.618 1.488 2.481.471 3.652-1.016 1.17-3.579.899-3.579.899l.686-4.246s1.067-.923 2.422-.305z" fill="#F9ACC0"/><path d="M66.23 52.256s-.01-.47-.522-1.253c-.512-.783-1.487-1.055-1.496-1.055-.058-.017-.082-.074-.074-.124.017-.058.074-.082.124-.074.041.008 1.058.297 1.612 1.146.553.84.553 1.344.553 1.36a.1.1 0 0 1-.099.1.1.1 0 0 1-.099-.1zM77.429 52.14a.106.106 0 0 1-.05-.14c.017-.032.422-.849 1.033-1.475.62-.635 1.05-.717 1.066-.717.058-.009.108.024.116.082.009.058-.025.107-.082.115 0 0-.389.075-.96.66a6.23 6.23 0 0 0-.991 1.418.105.105 0 0 1-.091.066c-.016 0-.033 0-.041-.008z" fill="#1F1F39"/><path d="M66.428 53.114c.677 2.407 2.43 3.784 2.43 3.784l-.34 4.682s.472 1.03 2.968 1.03c2.703 0 3.447-1.03 3.447-1.03l-.133-4.608s1.687-.272 2.496-3.306c.81-3.026.405-5.713.405-5.713s-3.983.618-5.33-1.03c-1.348-1.65-2.703-3.307-4.662-2.482-1.96.824-1.546 3.091-1.546 3.091s-.413 3.174.265 5.582z" fill="#F9D2DD"/><path fill-rule="evenodd" clip-rule="evenodd" d="M69.734 50.912c-.338 0-.612-.325-.612-.725 0-.4.274-.726.612-.726.338 0 .611.325.611.726 0 .4-.273.725-.611.725zM74.189 50.912c-.338 0-.612-.325-.612-.725 0-.4.274-.726.612-.726.338 0 .611.325.611.726 0 .4-.273.725-.611.725z" fill="#1F1F39"/><path d="M71.494 51.184c.207.413.744.206.744.206s-.537-.14-.537-.552c-.008-.412-.042-1.822-.042-1.822s-.372 1.756-.165 2.168z" fill="#1F1F39"/><path d="M68.668 60.31c.04-.008 4.471-1.722 5.306-2.506 0-.478.016-.832.016-.832s-.81.478-2.768.412c-.91-.033-1.893-.206-2.364-.486.008.42-.15 3.248-.19 3.413z" fill="#F9ACC0"/><path fill-rule="evenodd" clip-rule="evenodd" d="M75.304 52.701c-.725 0-1.314-.369-1.314-.824 0-.455.589-.825 1.314-.825.726 0 1.315.37 1.315.825 0 .455-.589.824-1.315.824zM68.353 52.701c-.725 0-1.314-.369-1.314-.824 0-.455.589-.825 1.314-.825.726 0 1.315.37 1.315.825 0 .455-.589.824-1.315.824z" fill="#F9ACC0"/><path d="M69.684 53.74c2.984.742 5.174-.412 6.141-1.492.967-1.08 1-4.55 1-4.55l1.009-.33s.272 6.454-1.042 8.194c-1.314 1.74-3.182 2.275-5.207 2.193-1.455-.066-2.942-.536-4.265-2.275-1.314-1.74-1.818-7.783-1.818-7.783l.66-1.154s.538 6.447 3.522 7.197z" fill="#fff"/><path d="M71.949 52.479c.33-.083.992-.578.992-.578s.165-.082.248 0c.082.083-.447 1.023-.91 1.155-.578.165-.992-.083-1.24-.412-.248-.33.083-.248.083-.248s.496.165.827.083z" fill="#F95368"/></svg>