<svg width="34" height="45" fill="none" xmlns="http://www.w3.org/2000/svg"><path d="M21.09 11.447s-.248-.198-.786-.264c-.537-.066-.867.132-.876.132a.132.132 0 0 1-.173-.04.12.12 0 0 1 .041-.166c.017-.008.413-.239 1.033-.165.62.075.901.314.918.322.05.041.057.123.016.173a.132.132 0 0 1-.09.033.16.16 0 0 1-.083-.025zM14.576 11.43a.128.128 0 0 1 .017-.172c.008-.009.298-.248.918-.322.62-.074 1.016.157 1.033.165.058.033.074.107.041.173-.033.058-.107.074-.174.041-.008 0-.347-.198-.876-.132-.537.066-.785.264-.785.264a.133.133 0 0 1-.074.025.153.153 0 0 1-.1-.041z" fill="#1F1F39"/><path d="m25.702 35.479 2.438 6.496A25.663 25.663 0 0 0 34 38.158c-.43-1.253-.802-2.201-.802-2.201l-7.496-.478zM6.55 42.099l2.547-6.793-7.497.478a51.44 51.44 0 0 0-.934 2.589 25.476 25.476 0 0 0 5.885 3.726z" fill="#F9D2DD"/><path d="m25.702 35.479.843 2.21 7.438.46a144.177 144.177 0 0 0-.785-2.192l-7.496-.478zM9.171 35.067l-.843 2.21-7.555.733c.405-1.154.901-2.465.901-2.465l7.497-.478z" fill="#F9ACC0"/><path d="M8.865 25.305c-3.273 1.476-6.868 6.06-8.19 11.435h5.85l-.966 4.88a25.558 25.558 0 0 0 11.637 2.787 25.62 25.62 0 0 0 11.688-2.803l-1.025-4.23 5.918-.527c0 .008-1.364-7.576-7.596-11.162-4.992-2.877-12.704-2.449-17.316-.38z" fill="#3D5CFF"/><path d="m8.121 31.217-3.48 5.531 1.976-.008 1.504-5.523zM27.867 37.375l1.76-.148-3.925-6.703 2.165 6.851z" fill="#224BF4"/><g opacity=".451" fill-rule="evenodd" clip-rule="evenodd" fill="#F9EDC7"><path opacity=".451" d="M14.601 36.377a1.156 1.156 0 0 1-1.157-1.154c0-.637.518-1.154 1.157-1.154.64 0 1.157.517 1.157 1.154 0 .638-.518 1.154-1.157 1.154zM20.015 34.193a1.156 1.156 0 0 1-1.157-1.154c0-.638.518-1.155 1.157-1.155a1.156 1.156 0 1 1 0 2.308zM10.593 30.318c-.64 0-1.157-.517-1.157-1.154 0-.638.518-1.154 1.157-1.154s1.157.516 1.157 1.154c0 .637-.518 1.154-1.157 1.154zM10.593 41.695c-.64 0-1.157-.517-1.157-1.154 0-.638.518-1.154 1.157-1.154s1.157.516 1.157 1.154c0 .637-.518 1.154-1.157 1.154zM20.759 42.85a1.156 1.156 0 0 1-1.157-1.155c0-.638.518-1.154 1.157-1.154s1.157.517 1.157 1.154c0 .637-.518 1.154-1.157 1.154zM30.016 37.985c-.639 0-1.157-.517-1.157-1.154 0-.638.518-1.154 1.157-1.154.64 0 1.157.516 1.157 1.154 0 .637-.518 1.154-1.157 1.154zM2.906 33.616c-.64 0-1.157-.517-1.157-1.154 0-.638.518-1.155 1.157-1.155s1.157.517 1.157 1.155c0 .637-.518 1.154-1.157 1.154zM30.43 31.225c-.64 0-1.158-.517-1.158-1.154 0-.638.518-1.154 1.157-1.154.64 0 1.158.516 1.158 1.154 0 .637-.519 1.154-1.158 1.154zM23.321 26.278c-.639 0-1.157-.516-1.157-1.154 0-.637.518-1.154 1.157-1.154.64 0 1.157.517 1.157 1.154 0 .638-.518 1.154-1.157 1.154z"/></g><path d="M6.6 36.83c-.04-.007-.066-.057-.057-.098l1.653-6.117c.008-.041.058-.066.099-.058s.066.058.058.1L6.7 36.772a.08.08 0 0 1-.075.058H6.6zM27.71 37.375l-2.116-6.851c-.017-.041.008-.082.05-.099.041-.016.082.008.099.05l2.124 6.85c.017.042-.008.083-.05.1-.016 0-.024.008-.033.008a.08.08 0 0 1-.074-.058z" fill="#1F1F39"/><path d="M9.353 6.41c1.074-2.143 2.562-2.308 2.562-2.308S13.32.557 18.032.557c4.71 0 5.785 4.616 5.785 4.616s2.15.66 2.067 2.803C25.8 10.12 23.8 15.042 23.8 15.042l-13.208-2.614S8.278 8.554 9.353 6.41z" fill="#fff"/><path d="M9.593 11.571c-1.356.618-1.488 2.481-.471 3.652 1.016 1.17 3.579.899 3.579.899l-.687-4.246s-1.066-.923-2.421-.305zM25.743 11.571c1.347.618 1.488 2.481.471 3.652-1.016 1.17-3.579.899-3.579.899l.686-4.246s1.066-.923 2.422-.305z" fill="#F9ACC0"/><path d="M12.23 15.256s-.01-.47-.522-1.253c-.512-.783-1.487-1.055-1.496-1.055-.057-.017-.082-.074-.074-.124.017-.058.074-.082.124-.074.041.008 1.058.297 1.612 1.146.553.84.553 1.344.553 1.36a.1.1 0 0 1-.099.1.1.1 0 0 1-.099-.1zM23.429 15.14a.106.106 0 0 1-.05-.14c.017-.032.422-.849 1.033-1.475.62-.635 1.05-.717 1.067-.717.057-.009.107.024.115.082.008.058-.025.107-.082.115 0 0-.389.075-.96.66a6.23 6.23 0 0 0-.991 1.418.105.105 0 0 1-.091.066c-.017 0-.033 0-.041-.008z" fill="#1F1F39"/><path d="M12.428 16.113c.677 2.408 2.43 3.785 2.43 3.785l-.34 4.682s.472 1.03 2.968 1.03c2.703 0 3.447-1.03 3.447-1.03l-.133-4.608s1.686-.272 2.497-3.306c.81-3.026.404-5.713.404-5.713s-3.983.618-5.33-1.03c-1.348-1.65-2.703-3.307-4.662-2.482-1.96.824-1.546 3.091-1.546 3.091s-.413 3.174.265 5.581z" fill="#F9D2DD"/><path fill-rule="evenodd" clip-rule="evenodd" d="M15.734 13.912c-.338 0-.612-.325-.612-.725 0-.4.274-.726.612-.726.338 0 .611.325.611.726 0 .4-.273.725-.611.725zM20.189 13.912c-.338 0-.612-.325-.612-.725 0-.4.274-.726.612-.726.338 0 .611.325.611.726 0 .4-.273.725-.611.725z" fill="#1F1F39"/><path d="M17.494 14.184c.207.413.744.206.744.206s-.537-.14-.537-.552l-.042-1.822s-.371 1.756-.165 2.168z" fill="#1F1F39"/><path d="M14.668 23.31c.04-.008 4.471-1.722 5.306-2.506 0-.478.016-.832.016-.832s-.81.478-2.768.412c-.91-.033-1.893-.206-2.364-.486.008.42-.15 3.248-.19 3.413z" fill="#F9ACC0"/><path fill-rule="evenodd" clip-rule="evenodd" d="M21.304 15.701c-.725 0-1.314-.369-1.314-.824 0-.455.589-.825 1.314-.825.726 0 1.315.37 1.315.825 0 .455-.589.824-1.315.824zM14.354 15.701c-.726 0-1.315-.369-1.315-.824 0-.455.589-.825 1.315-.825.725 0 1.314.37 1.314.825 0 .455-.589.824-1.314.824z" fill="#F9ACC0"/><path d="M15.684 16.74c2.984.742 5.174-.412 6.141-1.492.967-1.08 1-4.55 1-4.55l1.009-.33s.272 6.455-1.042 8.194c-1.314 1.74-3.182 2.275-5.207 2.193-1.455-.066-2.943-.536-4.265-2.275-1.314-1.74-1.818-7.783-1.818-7.783l.66-1.154s.538 6.447 3.522 7.197z" fill="#fff"/><path d="M17.949 15.479c.33-.083.991-.577.991-.577s.166-.083.248 0c.083.082-.446 1.022-.909 1.154-.578.165-.992-.083-1.24-.413-.248-.33.083-.247.083-.247s.496.165.827.083z" fill="#F95368"/></svg>