<svg width="115" height="135" fill="none" xmlns="http://www.w3.org/2000/svg"><g clip-path="url(#a)"><mask id="b" style="mask-type:alpha" maskUnits="userSpaceOnUse" x="0" y="0" width="120" height="135"><path fill="#fff" d="M.485.05h118.688v134.208H.485z"/></mask><g mask="url(#b)"><path opacity=".4" fill-rule="evenodd" clip-rule="evenodd" d="M1.96 112.858c-.194-.015-.329-.194-.314-.388 0-.015.09-.776.268-2.104.03-.194.194-.328.388-.298.193.03.327.194.298.388-.18 1.313-.268 2.089-.268 2.089a.318.318 0 0 1-.328.313h-.045zm.55-4.193c-.193-.03-.327-.209-.298-.388.09-.642.194-1.328.298-2.089a.354.354 0 1 1 .7.104c-.119.746-.208 1.448-.298 2.074a.378.378 0 0 1-.357.299H2.51zm43.4-.731c-.625-.045-1.25-.374-1.846-.97a.353.353 0 0 1 0-.493.35.35 0 0 1 .491 0c.477.478.953.746 1.415.776h.104a.349.349 0 0 1 .373.313.35.35 0 0 1-.313.374H45.91zm1.475-1.284a.359.359 0 0 1-.12-.477c.284-.463.582-1.075.865-1.836a.34.34 0 0 1 .446-.194.341.341 0 0 1 .194.448c-.298.791-.61 1.447-.923 1.94a.323.323 0 0 1-.283.179.285.285 0 0 1-.18-.06zm-4.602-1.447a22.14 22.14 0 0 1-.968-1.896.35.35 0 0 1 .178-.462.35.35 0 0 1 .462.179c.313.701.626 1.313.924 1.835.104.164.044.373-.12.478a.394.394 0 0 1-.178.045.328.328 0 0 1-.298-.179zm-39.677-.687a.344.344 0 0 1-.283-.403c.104-.657.223-1.358.343-2.074a.343.343 0 0 1 .402-.284c.193.03.312.209.283.403-.12.716-.224 1.403-.343 2.074-.015.165-.164.284-.342.284h-.06zm45.917-1.701a.37.37 0 0 1-.238-.433c.179-.612.372-1.283.551-2.015a.353.353 0 0 1 .417-.253.353.353 0 0 1 .253.417c-.193.732-.372 1.418-.566 2.03a.318.318 0 0 1-.313.269c-.03 0-.074 0-.104-.015zm-8.013-1.463c-.223-.612-.476-1.268-.715-1.985a.356.356 0 0 1 .224-.447c.179-.06.372.03.447.224.238.701.476 1.358.7 1.955a.335.335 0 0 1-.194.447c-.06.015-.09.03-.134.03a.37.37 0 0 1-.328-.224zm-37.204-.985a.344.344 0 0 1-.283-.403c.12-.671.238-1.358.372-2.074a.35.35 0 0 1 .402-.284c.194.03.313.224.283.403-.134.702-.253 1.388-.372 2.06a.35.35 0 0 1-.342.298h-.06zm46.304-1.612c-.193-.044-.297-.223-.268-.417a76.24 76.24 0 0 0 .447-2.045.344.344 0 0 1 .417-.269.345.345 0 0 1 .268.418 78.337 78.337 0 0 1-.446 2.06.382.382 0 0 1-.343.268c-.03 0-.045 0-.075-.014zm-10.47-1.387c-.193-.627-.402-1.284-.61-2.015a.344.344 0 0 1 .238-.433c.193-.06.372.045.432.239.223.716.417 1.373.61 2a.347.347 0 0 1-.223.432c-.045.015-.075.015-.12.015a.335.335 0 0 1-.327-.238zm-35.09-1.12a.351.351 0 0 1-.282-.403c.134-.671.268-1.358.402-2.06a.344.344 0 0 1 .417-.268.345.345 0 0 1 .268.418l-.402 2.06c-.03.134-.179.253-.343.253h-.06zm46.424-1.582a.33.33 0 0 1-.268-.403c.134-.656.253-1.343.387-2.059a.35.35 0 0 1 .402-.283c.194.03.313.223.284.402-.135.717-.269 1.418-.388 2.06-.044.164-.178.283-.342.283h-.075zm-12.54-1.328c-.194-.656-.387-1.328-.581-2.014-.06-.18.06-.374.238-.433a.368.368 0 0 1 .432.238c.194.687.387 1.359.581 2.015.06.18-.06.373-.238.433-.03.015-.06.015-.105.015a.349.349 0 0 1-.327-.254zM5.37 92.13a.345.345 0 0 1-.268-.417c.149-.687.298-1.373.447-2.045.044-.194.223-.299.417-.269a.345.345 0 0 1 .268.418c-.15.672-.298 1.358-.447 2.045a.35.35 0 0 1-.343.283c-.03 0-.044 0-.074-.015zm46.379-1.596a.344.344 0 0 1-.283-.403c.119-.672.238-1.358.357-2.06a.343.343 0 0 1 .402-.283c.194.03.313.209.283.403-.119.701-.238 1.388-.357 2.059a.35.35 0 0 1-.343.284h-.06zm-14.447-1.224-.566-2.015a.369.369 0 0 1 .238-.433.368.368 0 0 1 .432.24l.566 2.014a.369.369 0 0 1-.238.433c-.045 0-.075.014-.105.014-.148 0-.297-.104-.327-.253zM6.293 88.04a.342.342 0 0 1-.253-.418c.164-.7.328-1.387.492-2.044a.342.342 0 0 1 .417-.254.342.342 0 0 1 .253.418 206.54 206.54 0 0 0-.492 2.03c-.044.164-.193.283-.342.283-.03 0-.06 0-.075-.015zm46.17-1.626a.344.344 0 0 1-.282-.403c.119-.687.223-1.373.342-2.06a.343.343 0 0 1 .402-.283c.194.03.313.209.283.403-.119.701-.223 1.388-.342 2.074a.37.37 0 0 1-.343.269h-.06zm-16.293-1.15c-.194-.671-.387-1.343-.566-2.014-.06-.18.06-.373.238-.433.179-.06.373.06.432.239l.581 2.014c.06.18-.06.374-.238.433-.06.015-.09.015-.12.015-.148 0-.297-.104-.327-.254zM7.276 83.966a.363.363 0 0 1-.253-.433c.179-.686.372-1.373.551-2.03a.341.341 0 0 1 .432-.238.342.342 0 0 1 .238.433c-.178.656-.372 1.343-.55 2.015a.322.322 0 0 1-.328.268c-.03 0-.06 0-.09-.015zm45.873-1.701a.344.344 0 0 1-.283-.403c.104-.686.223-1.373.327-2.075a.343.343 0 0 1 .403-.283c.193.03.312.209.283.403-.12.701-.224 1.388-.328 2.074a.35.35 0 0 1-.343.284h-.06zm-18.14-1.03c-.21-.701-.403-1.358-.596-2a.347.347 0 0 1 .223-.432.346.346 0 0 1 .432.223c.193.642.387 1.299.596 2a.344.344 0 0 1-.239.433c-.015.03-.06.03-.09.03a.349.349 0 0 1-.327-.254zM8.392 79.922a.369.369 0 0 1-.238-.433c.208-.686.417-1.358.625-2.015a.346.346 0 0 1 .432-.224c.18.06.283.254.224.433a53.312 53.312 0 0 0-.61 2c-.03.164-.18.254-.329.254-.03 0-.06 0-.104-.015zm45.411-1.791a.343.343 0 0 1-.283-.403l.328-2.074a.333.333 0 0 1 .402-.284c.194.03.313.21.283.403l-.328 2.075c-.015.164-.164.283-.342.283h-.06zm-20.017-.88c-.223-.687-.447-1.359-.655-1.985a.357.357 0 0 1 .223-.448c.179-.06.372.03.447.224.208.627.432 1.298.655 2a.347.347 0 0 1-.223.432c-.045 0-.09.015-.12.015a.335.335 0 0 1-.327-.239zm66.083-.27a.354.354 0 0 1 .298-.402c.566-.09 1.072-.373 1.564-.88a.35.35 0 0 1 .491 0 .352.352 0 0 1 0 .492c-.595.612-1.251.97-1.951 1.075-.029.014-.044.014-.059.014a.35.35 0 0 1-.343-.298zm-1.787-.283c-.492-.373-.953-.925-1.4-1.671-.104-.164-.045-.373.12-.478.163-.104.371-.044.476.12.402.656.819 1.164 1.236 1.492.149.12.179.343.06.493a.407.407 0 0 1-.284.119.355.355 0 0 1-.208-.075zm-88.424-.76a.338.338 0 0 1-.208-.448c.238-.672.476-1.344.715-1.985a.36.36 0 0 1 .446-.21.361.361 0 0 1 .209.448 50.162 50.162 0 0 0-.7 1.97.367.367 0 0 1-.343.24c-.044 0-.074 0-.119-.016zm93.324-1.389c-.164-.09-.238-.298-.149-.462.283-.538.536-1.164.789-1.88a.342.342 0 0 1 .447-.21c.179.06.283.269.209.448a13.694 13.694 0 0 1-.834 1.97.358.358 0 0 1-.298.18.339.339 0 0 1-.164-.046zm-48.509-.552a.344.344 0 0 1-.283-.403c.105-.686.224-1.373.328-2.074a.343.343 0 0 1 .402-.284c.194.03.313.21.283.403-.104.687-.223 1.388-.328 2.075a.35.35 0 0 1-.342.283h-.06zm-22.042-.701c-.239-.672-.492-1.328-.73-1.955a.336.336 0 0 1 .193-.448.335.335 0 0 1 .447.194c.239.627.492 1.284.745 1.97.06.18-.03.388-.209.448-.03 0-.074.015-.119.015a.341.341 0 0 1-.327-.224zm63.268-.18a30.341 30.341 0 0 1-.775-1.97c-.06-.178.03-.387.209-.447s.387.03.447.209c.253.716.506 1.358.76 1.925a.35.35 0 0 1-.18.463c-.044.03-.104.03-.148.03-.134 0-.268-.075-.313-.21zm-84.596-1.119c-.179-.074-.268-.283-.194-.447a47.23 47.23 0 0 1 .834-1.94.35.35 0 1 1 .64.283c-.267.612-.55 1.254-.818 1.91a.372.372 0 0 1-.328.224c-.045 0-.09-.015-.134-.03zm93.368-1.358a.363.363 0 0 1-.253-.432 37.59 37.59 0 0 0 .477-2.03.344.344 0 0 1 .417-.269.345.345 0 0 1 .268.418 71.793 71.793 0 0 1-.492 2.06.332.332 0 0 1-.327.268c-.03 0-.06 0-.09-.015zm-49.342-.776a.343.343 0 0 1-.283-.403c.104-.686.223-1.373.342-2.074a.343.343 0 0 1 .402-.284c.194.03.313.21.283.403-.119.687-.223 1.373-.342 2.075a.34.34 0 0 1-.343.283h-.06zm-24.218-.447a58.485 58.485 0 0 0-.863-1.896.333.333 0 0 1 .163-.462.332.332 0 0 1 .462.164c.298.597.596 1.253.879 1.925a.35.35 0 0 1-.179.463c-.06 0-.104.014-.149.014-.134 0-.268-.074-.313-.208zm63.358-.284a60.447 60.447 0 0 1-.58-2.03.369.369 0 0 1 .238-.432.368.368 0 0 1 .432.238c.193.717.387 1.388.58 2a.347.347 0 0 1-.223.433c-.06.045-.09.045-.12.045a.332.332 0 0 1-.327-.254zm-81.468-.97c-.164-.09-.239-.299-.15-.463a26.44 26.44 0 0 1 1.014-1.85c.104-.164.312-.224.476-.12.164.105.224.314.12.478-.328.567-.67 1.179-.998 1.82-.045.12-.164.18-.298.18a.338.338 0 0 1-.164-.045zm92.594-1.597a.343.343 0 0 1-.283-.403c.119-.642.223-1.343.342-2.06a.354.354 0 0 1 .402-.298c.194.03.313.21.298.403-.119.732-.223 1.433-.342 2.075a.381.381 0 0 1-.358.283h-.059zm-76.315-.88a25.54 25.54 0 0 0-1.088-1.746c-.104-.164-.074-.373.09-.478.164-.104.372-.075.476.09.373.552.745 1.149 1.117 1.805.09.165.03.374-.134.478a.533.533 0 0 1-.164.03.327.327 0 0 1-.297-.18zm26.734.044a.344.344 0 0 1-.283-.403c.119-.686.223-1.372.342-2.074a.343.343 0 0 1 .402-.283c.194.03.313.209.283.402-.119.687-.238 1.373-.342 2.075a.35.35 0 0 1-.343.284h-.06zm37.323-.656c-.164-.642-.327-1.328-.506-2.045a.347.347 0 0 1 .253-.418.346.346 0 0 1 .417.254c.164.717.343 1.403.506 2.03a.342.342 0 0 1-.253.418c-.015.03-.044.03-.074.03a.362.362 0 0 1-.343-.27zm-78.236-.522c-.164-.105-.194-.329-.09-.493.432-.612.864-1.179 1.311-1.671a.338.338 0 0 1 .491-.03.34.34 0 0 1 .03.492c-.417.478-.849 1.03-1.266 1.612a.36.36 0 0 1-.283.15.299.299 0 0 1-.193-.06zm11.84-2.24c-.491-.536-.983-.999-1.474-1.357a.355.355 0 0 1-.075-.493.354.354 0 0 1 .492-.074c.536.388 1.072.88 1.579 1.447a.34.34 0 0 1-.03.493.34.34 0 0 1-.239.104.34.34 0 0 1-.253-.12zm79.309.105c-.194-.03-.328-.208-.298-.388.09-.656.179-1.328.268-2.074.03-.194.194-.328.388-.298.193.03.327.194.297.388-.089.746-.178 1.417-.268 2.089a.365.365 0 0 1-.342.283h-.045zm-49.536-.835a.344.344 0 0 1-.283-.403l.357-2.06a.343.343 0 0 1 .402-.283c.194.03.313.209.283.403l-.357 2.06a.35.35 0 0 1-.343.283h-.06zm-38.917-.21a.353.353 0 0 1 .044-.492 8.983 8.983 0 0 1 1.817-1.149c.179-.074.387 0 .462.164.074.18 0 .388-.164.463a7.972 7.972 0 0 0-1.668 1.06.328.328 0 0 1-.223.09.318.318 0 0 1-.268-.135zM92.155 61c-.149-.672-.313-1.358-.461-2.045a.345.345 0 0 1 .268-.418.344.344 0 0 1 .417.269c.149.686.313 1.373.461 2.044a.345.345 0 0 1-.268.418h-.074a.35.35 0 0 1-.343-.268zm-68.615-.94a4.774 4.774 0 0 0-1.891-.21.339.339 0 0 1-.373-.313.339.339 0 0 1 .313-.373 5.68 5.68 0 0 1 2.175.239c.178.06.283.254.223.433a.383.383 0 0 1-.343.238c-.03 0-.074 0-.104-.014zm83.032-1.806a.333.333 0 0 1-.298-.388c.075-.687.164-1.388.239-2.075.015-.194.193-.328.387-.313.194.015.328.194.313.388-.075.701-.149 1.388-.238 2.09a.368.368 0 0 1-.358.298h-.045zm-49.342-.791a.344.344 0 0 1-.283-.403c.119-.687.253-1.373.372-2.06a.35.35 0 0 1 .402-.283c.194.03.313.224.283.403-.134.686-.253 1.373-.372 2.06a.339.339 0 0 1-.343.283h-.06zm34.017-.552c-.15-.672-.298-1.358-.447-2.045a.345.345 0 0 1 .268-.418.344.344 0 0 1 .417.269c.149.686.298 1.373.447 2.044a.345.345 0 0 1-.268.418h-.075a.35.35 0 0 1-.342-.268zm15.787-2.821c-.194-.015-.328-.194-.313-.388l.015-.15c.075-.641.149-1.298.209-1.94.015-.193.193-.328.387-.313.194.015.328.194.313.388a76.83 76.83 0 0 0-.209 1.94l-.015.15a.342.342 0 0 1-.342.313h-.045zm-49.03-.746a.351.351 0 0 1-.283-.403l.402-2.06c.045-.194.224-.313.402-.268.194.045.313.224.268.403l-.402 2.06c-.015.148-.163.268-.327.268h-.06zm32.35-.537c-.15-.687-.299-1.358-.448-2.045a.345.345 0 0 1 .268-.418.344.344 0 0 1 .417.269c.15.686.298 1.373.447 2.044a.345.345 0 0 1-.268.418h-.074a.35.35 0 0 1-.343-.268zm17.142-2.88c-.194-.016-.328-.195-.313-.389.074-.701.164-1.402.253-2.089.03-.194.194-.328.387-.298.194.03.328.194.298.388-.089.686-.164 1.373-.253 2.074 0 .179-.149.313-.328.313h-.044zm-48.703-.687a.345.345 0 0 1-.268-.418c.15-.686.283-1.373.432-2.06a.344.344 0 0 1 .417-.268.345.345 0 0 1 .268.418c-.149.671-.283 1.358-.431 2.044a.35.35 0 0 1-.343.284h-.075zm30.667-.522c-.15-.687-.298-1.359-.462-2.045a.345.345 0 0 1 .268-.418.344.344 0 0 1 .417.269c.149.686.313 1.358.462 2.044a.345.345 0 0 1-.268.418h-.075a.35.35 0 0 1-.343-.268zm18.557-2.955c-.194-.03-.328-.21-.298-.388.104-.747.209-1.433.313-2.09a.343.343 0 0 1 .402-.283c.194.03.313.209.283.403a47.378 47.378 0 0 0-.298 2.074.37.37 0 0 1-.357.284h-.045zm-48.345-.642a.345.345 0 0 1-.268-.418c.149-.701.313-1.388.462-2.044a.341.341 0 0 1 .417-.254.342.342 0 0 1 .253.418c-.149.656-.313 1.343-.462 2.044-.015.164-.163.269-.327.269-.03 0-.045 0-.075-.015zm28.864-.493c-.164-.686-.313-1.358-.477-2.03a.347.347 0 0 1 .254-.417.353.353 0 0 1 .417.254c.164.671.327 1.358.476 2.044a.347.347 0 0 1-.253.418h-.074a.35.35 0 0 1-.343-.269zm29.936-.582a34.998 34.998 0 0 0-.327-2.06.343.343 0 0 1 .283-.402c.193-.03.372.09.402.284.164.88.268 1.626.328 2.089a.333.333 0 0 1-.298.388h-.045a.341.341 0 0 1-.343-.299zm-9.8-2.432c-.193-.03-.312-.224-.283-.403a27.52 27.52 0 0 1 .447-2.075.342.342 0 0 1 .417-.253.342.342 0 0 1 .253.418 36.28 36.28 0 0 0-.431 2.03c-.045.163-.179.283-.343.283h-.06zm-48.061-.567a.342.342 0 0 1-.254-.418c.179-.702.343-1.388.522-2.03a.362.362 0 0 1 .431-.254c.194.045.298.24.254.433-.164.657-.343 1.328-.507 2.03a.386.386 0 0 1-.357.254c-.03 0-.06 0-.09-.015zm26.942-.493c-.179-.686-.357-1.373-.521-2.03a.365.365 0 0 1 .253-.432.364.364 0 0 1 .432.253c.179.657.357 1.344.521 2.03a.342.342 0 0 1-.253.418c-.045.03-.074.03-.09.03a.363.363 0 0 1-.342-.269zm30.16-.597a23.395 23.395 0 0 0-.566-1.985.347.347 0 0 1 .223-.432.345.345 0 0 1 .432.224c.209.626.402 1.313.581 2.044a.346.346 0 0 1-.253.418h-.075a.35.35 0 0 1-.342-.269zm-8.087-2.417a.357.357 0 0 1-.224-.448c.253-.776.536-1.448.834-1.985a.355.355 0 0 1 .477-.134c.164.09.223.298.134.477-.283.493-.536 1.12-.79 1.866a.353.353 0 0 1-.327.239c-.03 0-.075 0-.104-.015zm-47.958-.553a.342.342 0 0 1-.238-.432c.193-.687.387-1.373.58-2.015a.368.368 0 0 1 .432-.239c.18.06.283.254.239.433a89.088 89.088 0 0 0-.581 2.015.353.353 0 0 1-.343.253c-.03 0-.06 0-.09-.014zm24.813-.462c-.194-.687-.387-1.358-.581-2a.344.344 0 0 1 .238-.433c.179-.06.373.045.432.24.194.64.402 1.327.596 2.014.06.179-.06.373-.238.433h-.12c-.149 0-.297-.105-.327-.254zm29.921-.463c-.327-.701-.685-1.268-1.057-1.686a.34.34 0 0 1 .03-.493.337.337 0 0 1 .491.03c.417.463.804 1.09 1.162 1.836a.333.333 0 0 1-.164.463.287.287 0 0 1-.149.044.348.348 0 0 1-.313-.194zm-4.781-2.134c-.104-.164-.074-.373.09-.477.744-.523 1.489-.747 2.189-.672.194.015.328.194.313.388-.015.194-.194.328-.387.313-.522-.06-1.103.135-1.713.553a.585.585 0 0 1-.209.044.36.36 0 0 1-.283-.149zm-48.762-.955a.347.347 0 0 1-.223-.433c.223-.686.447-1.358.67-2a.342.342 0 0 1 .447-.209c.179.06.283.27.209.448a76.053 76.053 0 0 0-.67 1.985.341.341 0 0 1-.328.224c-.03 0-.075 0-.105-.015zm22.4-.448a43.038 43.038 0 0 0-.685-1.97c-.06-.179.03-.388.209-.447.179-.06.387.03.447.209.223.626.461 1.298.685 1.985.06.179-.045.373-.224.447-.03.015-.074.015-.104.015a.335.335 0 0 1-.328-.239zm-21.03-3.522a.341.341 0 0 1-.193-.447c.268-.672.536-1.329.804-1.955.075-.18.283-.254.462-.18.179.075.253.284.179.463a39.6 39.6 0 0 0-.79 1.925c-.074.135-.208.224-.342.224a.28.28 0 0 1-.12-.03zm19.6-.403a33.445 33.445 0 0 0-.818-1.91.35.35 0 0 1 .64-.283c.283.611.551 1.268.82 1.94a.336.336 0 0 1-.195.447c-.03.03-.074.03-.119.03a.372.372 0 0 1-.327-.224zm-17.946-3.432a.335.335 0 0 1-.15-.463 30.84 30.84 0 0 1 1.014-1.865c.104-.164.312-.224.476-.12.164.105.224.314.12.478a28.801 28.801 0 0 0-.984 1.82c-.089.105-.208.18-.327.18a.44.44 0 0 1-.15-.03zm16.234-.328a31.883 31.883 0 0 0-1.028-1.791.342.342 0 0 1 .105-.478.34.34 0 0 1 .476.105 25.97 25.97 0 0 1 1.058 1.835c.089.164.03.388-.15.478a.53.53 0 0 1-.148.03.383.383 0 0 1-.313-.18zm-14.15-3.298a.355.355 0 0 1-.073-.493 13.87 13.87 0 0 1 1.385-1.612.35.35 0 0 1 .491 0 .352.352 0 0 1 0 .493c-.447.433-.879.955-1.31 1.537a.34.34 0 0 1-.283.15.279.279 0 0 1-.21-.075zm11.946-.18a11.05 11.05 0 0 0-1.385-1.477c-.15-.134-.15-.343-.03-.492.134-.15.342-.15.491-.03.492.447.983.97 1.46 1.567.119.149.09.373-.06.492a.278.278 0 0 1-.208.075.318.318 0 0 1-.268-.135zm-9.07-2.745a.35.35 0 0 1 .133-.478c.656-.373 1.326-.627 2.011-.731h.045a.353.353 0 0 1 .402.298.354.354 0 0 1-.298.403h-.03c-.596.09-1.191.314-1.772.657-.075.015-.134.03-.194.03a.328.328 0 0 1-.298-.18zm6.061.119a6.105 6.105 0 0 0-1.832-.642.343.343 0 0 1-.283-.403.343.343 0 0 1 .402-.283c.7.119 1.385.358 2.04.716.165.09.24.299.15.477a.35.35 0 0 1-.477.135z" fill="#3D5CFF"/><path d="M24.895 54.477c-7.149-13.401-5.749-25.967-5.749-25.967S17.33 15.87 12.43 15.6c-4.9-.268-5.883 1.27-7.983 8-2.1 6.73.983 29.474 5.75 41.13C14.96 76.385 26.28 85.757 26.28 85.757l14.73-18.222S29.29 62.7 24.895 54.477z" fill="#DA5742"/><path d="M4.938 43.613c.983-2.418 3.232-7.94 4.84-11.148 2.1-4.209 2.234-5.06 2.234-5.06l-8.161 5.418c.149 3.253.52 6.97 1.087 10.79zM17.761 76.982c4.334 5.313 8.505 8.775 8.505 8.775L41.01 67.535s-3.083-1.373-6.717-3.82L17.761 76.982z" fill="#C43D28"/><path d="M37.093 64.73s12.615 5.297 19.615 5.029c7-.269 15.266 1 23.115 3.955 7.85 2.954 13.866 12.909 16.115 17.55 2.234 4.626 4.066 13.759 4.066 13.759h-21.73l4.2 23.028H27.978l7.983-34.817-13.3-10.253L37.093 64.73z" fill="#3D5CFF"/><path d="M56.708 32.032c-5.45.701-6.732 7.715-6.732 7.715s-7.878-.85-11.2 3.09c-3.783 4.492 2.25 7.715 2.25 7.715s-6.077-1.567-6.584 2.388c-.566 4.358 3.083 6.178 18.632 9.536 15.55 3.358 34.881 8.835 37.964 4.343 3.768-5.492-7.566-7.865-7.566-7.865s5.75.567 5.75-4.358c0-4.91-11.633-10.386-11.633-10.386s0-10.104-7.715-11.223c-5.436-.776-6.166 1.15-6.166 1.15s-1.549-2.807-7-2.105z" fill="#F99A3D"/><path d="M78.379 105.023h5.063L75.55 90.697l2.83 14.326zM30.019 73.684l-1.058 1.328-.67 12.297 7.685 5.925-7.998 34.802h1.058l3.291-3.507 19.75-1.254 12.42 4.761h5.675L48.427 92.293 30.02 73.683z" fill="#224BF4"/><path d="M52.493 57.014c.834 3.656 4.9 5.477 4.9 5.477l-1.266 8.566s1.966 3.507 6.017 3.224c4.066-.284 5.883-2.388 5.883-2.388l1.266-12.491s5.05-.135 6.583-4.209c1.073-2.835-.566-5.327-3.083-5.477-2.517-.134-3.649 2.105-3.649 2.105s-2.666-.836-3.083-4.209c-.417-3.373-.283-6.029-2.1-6.596-1.817-.567-3.083.836-3.083.836s-.134-1.821-1.966-1.537c-1.817.283-2.383 3.223-3.083 4.357-.7 1.134-2.487 2.657-3.336 2.94 0 0-.834 5.76 0 9.402z" fill="#DA5742"/><path opacity=".55" fill-rule="evenodd" clip-rule="evenodd" d="M45.478 128.08c-4.17-1.79-6.85-5.835-7.357-11.073-.536-5.507 1.46-10.82 4.96-13.237 2.397-1.657 5.048-2.88 7.625-4.074 4.334-2.015 8.474-3.94 10.426-7.567-1.475-.298-3.128-1.06-4.707-2.387-1.98-1.687-2.934-3.731-2.532-5.448.64-2.775 2.92-3.656 4.766-3.298 2.517.493 4.856 3.269 4.051 8.178a10.808 10.808 0 0 1-.73 2.523c.939.104 1.788.014 2.428-.254 1.4-.567 2.19-1.88 2.383-3.88.358-3.895-.715-6.97-3.113-8.91-2.963-2.402-7.983-2.97-12.778-1.462-1.996.627-3.858.731-5.392.298-1.43-.403-2.457-1.238-2.89-2.358-.684-1.805.224-4.716 5.11-6.94l.238.508c-4.513 2.06-5.422 4.642-4.811 6.223.7 1.821 3.53 3 7.58 1.717 4.975-1.567 10.188-.956 13.3 1.567 2.548 2.06 3.695 5.312 3.322 9.401-.253 2.776-1.623 3.896-2.725 4.358-.745.299-1.758.418-2.89.269-1.995 3.88-6.285 5.88-10.783 7.969-2.547 1.179-5.183 2.403-7.536 4.029-3.291 2.254-5.228 7.492-4.721 12.715.491 5.03 3.053 8.895 7.03 10.611 1.355.582 2.889.925 4.557 1.015l-.06.567c-1.727-.09-3.32-.433-4.75-1.06zm8.966-43.651c-.342 1.507.536 3.343 2.353 4.895 1.505 1.283 3.143 2.014 4.603 2.298.357-.761.61-1.597.76-2.522.744-4.537-1.356-7.089-3.605-7.537a3.315 3.315 0 0 0-.745-.074c-1.832 0-3.008 1.447-3.366 2.94z" fill="#EAEAFF"/><path opacity=".55" fill-rule="evenodd" clip-rule="evenodd" d="M54.34 124.335c-1.564-.747-2.323-2.612-2.144-5.268.238-3.552 2.055-8.044 4.84-12.014 3.187-4.522 7.209-7.73 11.349-9.074 2.472-.79 4.602-.94 6.345-.776 4.26-2.298 9.13-5.402 12.257-12.118.775-1.641.85-3.626.224-5.73l.536-.164c.655 2.223.58 4.342-.253 6.118-3.039 6.537-7.656 9.7-11.811 11.999.893.15 1.668.373 2.293.612 2.518.94 4.424 2.641 5.198 4.671.894 2.328.328 5.507-3.931 7.447-4.96 2.253-9.503 1.164-11.796-.911-1.534-1.387-2.07-3.178-1.49-4.924.968-2.896 3.888-4.433 7.283-6.209.18-.09.358-.179.537-.283-1.49-.03-3.247.179-5.213.806-9.01 2.91-15.37 14.132-15.802 20.579-.12 1.702.119 3.896 1.831 4.716 4.215 2.015 9.19 1.463 13.986.94l.834-.089.06.552-.835.09c-2.234.283-4.498.522-6.702.522-2.651 0-5.228-.358-7.596-1.492zm19.153-25.833c-3.41 1.791-6.12 3.208-7 5.895-.506 1.522-.03 3.104 1.34 4.327 2.16 1.955 6.465 2.955 11.186.821 3.277-1.492 4.677-4.059 3.649-6.73-.73-1.881-2.502-3.463-4.87-4.343a11.913 11.913 0 0 0-2.964-.687c-.462.24-.909.478-1.34.717z" fill="#EAEAFF"/><path opacity=".55" d="M81.223 83.354c-2.442-1.238-4.453-3.208-5.495-5.432-1.043-2.209-.939-4.283.253-5.283l.357.433c-.998.82-1.042 2.626-.104 4.611 1.49 3.164 6.42 8.044 15.445 6.298l.104.552a20.42 20.42 0 0 1-3.738.358c-2.488 0-4.796-.522-6.822-1.537z" fill="#EAEAFF"/><path fill-rule="evenodd" clip-rule="evenodd" d="M99.438 100.949v.567H77.44v-.567h21.998z" fill="#EAEAFF"/><path d="M62.16 46.761s.134-.7.982-.7c.834 0 .983.7.983.7M55.16 46.478s.416-.836 1.117-.702c.7.135.834.836.834.836" fill="#fff"/><path d="M58.883 48.433c-.15.403-.313.82-.432 1.239a1.71 1.71 0 0 0-.09.597c.03.164.164.313.343.417.358.224.79.344 1.206.448a3.39 3.39 0 0 1-.67-.06 2.575 2.575 0 0 1-.655-.209c-.045-.03-.104-.06-.15-.089a1.052 1.052 0 0 1-.148-.12.715.715 0 0 1-.194-.343c-.044-.268.03-.492.075-.716a6.5 6.5 0 0 1 .506-1.254c.209-.403.432-.79.685-1.149-.149.418-.312.821-.476 1.239z" fill="#1F1F39"/><path d="M58.66 53.223s1.116.836 2.234.568c1.117-.284 1.265-.985 1.265-.985" fill="#fff"/><path fill-rule="evenodd" clip-rule="evenodd" d="M55.725 50c-.46 0-.834-.474-.834-1.06 0-.585.373-1.06.834-1.06.46 0 .834.475.834 1.06 0 .586-.373 1.06-.834 1.06zM63.142 50c-.46 0-.834-.474-.834-1.06 0-.585.374-1.06.834-1.06.461 0 .834.475.834 1.06 0 .586-.373 1.06-.834 1.06z" fill="#1F1F39"/><path fill-rule="evenodd" clip-rule="evenodd" d="M68.843 53.075c-.087 1.026-1.5 1.744-3.156 1.603-1.655-.14-2.926-1.087-2.839-2.114.087-1.026 1.5-1.744 3.156-1.603 1.656.14 2.927 1.087 2.84 2.114z" fill="#C43D28"/><path d="M.992 31.824a1.705 1.705 0 0 1 0-2.417L29.782.559a1.697 1.697 0 0 1 2.413 0l2.338 2.343c.67.672.67 1.746 0 2.418L5.743 34.167a1.697 1.697 0 0 1-2.412 0L.992 31.824z" fill="#EAEAFF"/><path d="m27.83 2.498-1.088 1.09 2.994 3.014a.772.772 0 0 0 1.087 0 .776.776 0 0 0 0-1.09l-2.994-3.014zM24.061 6.274l2.994 3.014a.772.772 0 0 0 1.087 0 .776.776 0 0 0 0-1.09l-2.994-3.014-1.087 1.09zM21.678 8.661l2.994 3.015a.772.772 0 0 0 1.087 0 .776.776 0 0 0 0-1.09l-2.994-3.014-1.087 1.09zM18.848 11.497l2.994 3.014a.772.772 0 0 0 1.087 0 .776.776 0 0 0 0-1.089l-2.993-3.014-1.088 1.089zM16.168 14.183l2.993 3.015a.772.772 0 0 0 1.087 0 .776.776 0 0 0 0-1.09l-2.993-3.014-1.087 1.09zM13.784 16.57l2.994 3.015a.772.772 0 0 0 1.087 0 .776.776 0 0 0 0-1.089l-2.993-3.014-1.088 1.089zM10.582 19.78l2.994 3.014a.772.772 0 0 0 1.087 0 .776.776 0 0 0 0-1.09L11.67 18.69l-1.088 1.09zM7.902 22.466l2.993 3.014a.772.772 0 0 0 1.088 0 .776.776 0 0 0 0-1.09l-2.994-3.014-1.087 1.09zM5.519 24.854l2.993 3.014a.772.772 0 0 0 1.087 0 .776.776 0 0 0 0-1.09l-2.993-3.014-1.087 1.09z" fill="#FFFFFE"/><path d="M11.998 28.66s.283-2.956 1.534-4.91c1.25-1.956 2.517-2.389 2.517-2.389s-3.917-2.67-4.051-5.193c-.134-2.522 1.683-2.671 2.517-2.104.834.567 3.366 3.507 4.765 4.357 1.4.851 3.083.985 3.65 4.075.565 3.089-4.618 8.148-4.618 8.148" fill="#DA5742"/><path d="M2.212 21.78c-.834 2.104 1.817 5.193 3.083 5.76 1.266.567 2.383.134 3.083-.418.7-.552.7-1.686.7-1.686s1.4.134 2.383-.702c.983-.836.7-2.238.7-2.238s1.266.134 1.966-.836c.7-.985.134-3.656-1.906-5.313-1.296-1.06-2.994-1.597-3.992-.746-1.846 1.582-5.48 4.805-6.017 6.178z" fill="#DA5742"/><path d="m12.191 22.57-3.917-4.208a.14.14 0 0 1 0-.194.139.139 0 0 1 .194 0l3.931 4.223a.14.14 0 0 1 0 .194c-.03.03-.074.03-.104.03a.135.135 0 0 1-.104-.045zM8.974 25.525l-3.649-4.074c-.045-.06-.045-.15.015-.194.06-.045.149-.045.194.015l3.649 4.074c.044.06.044.15-.015.194a.21.21 0 0 1-.09.03.135.135 0 0 1-.104-.045z" fill="#1F1F39"/><path d="M12.295 28.793c-.09-.015-.149-.074-.134-.149.015-.12.298-3 1.564-4.97.953-1.492 1.906-2.104 2.353-2.328a.605.605 0 0 0-.134-.074c-1.087-.672-3.619-2.269-3.783-5.09 0-.074.06-.148.134-.148.075 0 .15.06.15.134.148 2.671 2.516 4.149 3.648 4.865.134.09.253.164.358.224l.238.164-.268.09c-.015 0-1.236.432-2.443 2.328-1.221 1.91-1.519 4.82-1.519 4.85a.183.183 0 0 1-.164.104s-.015 0 0 0z" fill="#1F1F39"/><path fill-rule="evenodd" clip-rule="evenodd" d="m41.51 66.294.455.337L25.27 89.193l-.455-.337 16.694-22.561z" fill="#EAEAFF"/><path d="M59.925 62.909c-1.176-.239-1.95-.284-2.517-.418l-.685 4.611c1.087-.09 2.473-.343 3.753-.955 2.666-1.268 3.798-3.373 3.798-3.373s-1.534.702-4.349.135z" fill="#C43D28"/><path d="M60.908 63.192c-2.1-.134-3.515-.567-3.53-.567-.074-.015-.119-.104-.089-.179.015-.074.104-.12.179-.09.015 0 1.415.419 3.47.553 2.04.134 3.157-.269 3.157-.269.075-.03.15.015.18.09.029.074-.016.149-.09.179-.045 0-.879.313-2.428.313-.268 0-.55-.015-.849-.03z" fill="#1F1F39"/><path d="M71.125 56.163c.283-1.82 1.4-3.372 1.4-3.372s-1.593 0-2.62 2.955c-.641 1.835-.656 3.014-.582 3.656.12-.015.864-.045 1.832-.314-.104-.641-.208-1.76-.03-2.925z" fill="#C43D28"/><path d="M69.457 57.999c-.089-.015-.149-.075-.134-.15 0-.059.15-1.581.85-3.133.714-1.567 2.501-2.552 2.576-2.597.074-.03.149-.015.194.06.044.074.014.149-.06.194-.015.015-1.787.985-2.457 2.462a10.682 10.682 0 0 0-.835 3.045c-.014.06-.074.119-.134.119-.014 0-.014 0 0 0z" fill="#1F1F39"/><path fill-rule="evenodd" clip-rule="evenodd" d="m26.697 127.513 40.6-6.029-49.595-54.8 8.995 60.829zm26.541-12.043-21.477 3.194-4.766-32.176 26.243 28.982z" fill="#EAEAFF"/><path d="m27.085 106.725-3.292.492.224 1.522 3.291-.492a.743.743 0 0 0 .655-.866.784.784 0 0 0-.878-.656zM25.998 99.323l-3.307.492.224 1.522 3.306-.492a.771.771 0 0 0 .655-.866.784.784 0 0 0-.878-.656zM26.549 103.024l-3.292.492.223 1.522 3.292-.492a.771.771 0 0 0 .655-.866.784.784 0 0 0-.878-.656zM28.187 114.127l-3.277.492.224 1.523 3.276-.493a.752.752 0 0 0 .655-.865.784.784 0 0 0-.878-.657zM25.447 95.622l-3.307.492.223 1.522 3.307-.492a.76.76 0 0 0 .655-.866.784.784 0 0 0-.878-.656zM27.636 110.426l-3.292.492.224 1.523 3.276-.493a.754.754 0 0 0 .67-.866.784.784 0 0 0-.878-.656zM23.808 84.504l-3.321.492.223 1.522 3.322-.492c.416-.045.714-.448.655-.866a.784.784 0 0 0-.879-.656zM28.738 117.828l-3.277.492.224 1.523 3.276-.493c.417-.045.715-.448.655-.865a.784.784 0 0 0-.878-.657zM24.344 88.204l-3.321.493.223 1.522 3.322-.492a.736.736 0 0 0 .655-.866.784.784 0 0 0-.879-.657zM24.895 91.92l-3.306.493.223 1.522 3.307-.492a.76.76 0 0 0 .655-.866.784.784 0 0 0-.879-.656z" fill="#FFFFFE"/><path d="M99.14 119.067c-.7 7.864-2.948 14.461-12.749 15.162-9.8.701-23.68-7.163-30.532-14.461-6.85-7.298-15.132-15.446-15.132-15.446s-2.8 0-5.182.836c-2.384.835-4.35.701-4.9.134-.567-.567-.418-.985-.418-.985s-1.683-.134-2.1-1.268c-.417-1.12 0-1.687 0-1.687s-1.966-.134-2.234-2.238c-.283-2.105 4.617-4.627 6.583-5.477 1.966-.836 4.9-1.269 4.9-1.269s-3.083-.701-5.049 0c-1.965.702-3.083-.134-3.083-1.403 0-1.268 2.518-3.372 6.583-3.372 4.066 0 10.65 2.805 14.15 5.894 3.5 3.09 28.863 14.879 28.863 14.879l-.566-3.372h20.732v.029s.835 6.179.135 14.044z" fill="#DA5742"/><path d="M28.023 101.457a.142.142 0 0 1 .03-.194c.03-.015 2.413-1.85 4.632-3.239 2.234-1.403 3.768-1.686 3.827-1.701.075-.015.15.03.164.12.015.074-.03.149-.119.163-.015 0-1.549.299-3.738 1.672-2.204 1.388-4.587 3.209-4.617 3.223-.015 0-.045.015-.075.015-.044 0-.09-.015-.104-.059zM30.108 104.397a.142.142 0 0 1 .03-.194c.03-.015 2.696-1.985 5.079-2.97 2.383-.985 3.113-1 3.142-1 .075 0 .134.06.134.134 0 .075-.06.135-.134.135 0 0-.73.014-3.023.97-2.338.97-4.99 2.91-5.02 2.925-.029.059-.059.059-.089.059a.136.136 0 0 1-.119-.059z" fill="#1F1F39"/><path d="m78.274 105.023.566 3.373 20.345-1.776c-.104-1.029-.179-1.597-.179-1.597H78.274z" fill="#C43D28"/><path fill-rule="evenodd" clip-rule="evenodd" d="m83.175 110.217-7.626-3.268z" fill="#1F1F39"/><path d="m83.115 110.336-7.626-3.268c-.074-.03-.104-.119-.074-.179.03-.075.119-.105.178-.075l7.626 3.269c.075.029.104.119.075.179-.015.059-.06.089-.12.089-.015 0-.03 0-.06-.015z" fill="#1F1F39"/><path fill-rule="evenodd" clip-rule="evenodd" d="m75.34 89.578 3.5 18.804z" fill="#1F1F39"/><path d="m78.706 108.411-3.5-18.804c-.015-.074.03-.149.12-.164.074-.015.148.03.163.12l3.5 18.803a.136.136 0 0 1-.119.164h-.03c-.06 0-.119-.044-.134-.119z" fill="#1F1F39"/><path d="M54.102 50.507c-.715-.06-1.37.03-1.906.254-.06.925-.09 1.955-.06 3a4.565 4.565 0 0 0 1.653.462c1.668.135 3.083-.582 3.158-1.611.089-1.03-1.192-1.97-2.845-2.105z" fill="#C43D28"/><circle opacity=".52" cx="97.019" cy="17.422" r="2.985" fill="#fff"/></g></g><defs><clipPath id="a"><path fill="#fff" transform="translate(.485 .05)" d="M0 0h118.688v134.208H0z"/></clipPath></defs></svg>