<svg width="260" height="260" fill="none" xmlns="http://www.w3.org/2000/svg"><mask id="a" style="mask-type:alpha" maskUnits="userSpaceOnUse" x="0" y="0" width="260" height="260"><path fill="#fff" d="M0 0h260v260H0z"/></mask><g mask="url(#a)"><path fill-rule="evenodd" clip-rule="evenodd" d="M200 0c33.137 0 60 26.863 60 60v140c0 33.137-26.863 60-60 60H60c-33.137 0-60-26.863-60-60V60C0 26.863 26.863 0 60 0h140z" fill="#D9F4F1"/><path d="m71.348 32.449-46.72 3.555L73.888 49.46l-2.54-17.012z" fill="#DADAF7"/><path fill-rule="evenodd" clip-rule="evenodd" d="M226.002 208.101a.508.508 0 0 1-.229-.685s.356-.711.991-2.59c.101-.254.381-.406.634-.305.254.102.407.381.305.635-.685 1.955-1.041 2.666-1.041 2.691a.456.456 0 0 1-.432.305.722.722 0 0 1-.228-.051zm2.057-5.51c-.28-.076-.407-.355-.33-.634.279-.914.558-1.879.863-2.92a.507.507 0 0 1 .635-.356.508.508 0 0 1 .355.635c-.305 1.041-.584 2.006-.863 2.92-.102.254-.305.381-.508.381-.051 0-.102 0-.152-.026zm1.675-5.865a.492.492 0 0 1-.355-.609c.203-.813.432-1.651.66-2.565l.102-.381a.529.529 0 0 1 .609-.38.53.53 0 0 1 .381.609l-.102.381a92.578 92.578 0 0 1-.685 2.59.49.49 0 0 1-.483.381c-.05 0-.076 0-.127-.026zm1.498-5.89a.487.487 0 0 1-.38-.61c.203-.965.406-1.98.609-2.971a.496.496 0 0 1 .584-.406c.279.051.457.33.406.584a306.64 306.64 0 0 1-.609 2.996.515.515 0 0 1-.508.407h-.102zm1.168-5.967a.533.533 0 0 1-.431-.584c.152-.99.304-2.006.457-2.996.051-.28.304-.483.584-.432.279.051.482.305.431.584a658.717 658.717 0 0 1-.457 3.022.518.518 0 0 1-.507.406h-.077zm.864-6.043a.512.512 0 0 1-.457-.559c.101-1.015.228-2.031.304-3.021a.498.498 0 0 1 .559-.457.512.512 0 0 1 .457.558c-.076 1.016-.203 2.032-.305 3.047-.025.229-.254.432-.508.432h-.05zm.558-6.069a.526.526 0 0 1-.482-.533c.051-1.015.101-2.031.127-3.021 0-.28.228-.483.508-.483H234c.279 0 .508.254.482.534a63.516 63.516 0 0 1-.152 3.072c0 .203-.228.431-.482.431h-.026zm-.304-6.601c0-1.016-.026-2.031-.051-3.022 0-.279.203-.507.482-.533.28 0 .508.203.533.483.026.99.051 2.031.051 3.072a.51.51 0 0 1-.508.508.51.51 0 0 1-.507-.508zm-177.963-3.199a.478.478 0 0 1-.432-.559.478.478 0 0 1 .559-.432c.94.127 1.93.178 2.97.178a.51.51 0 0 1 .508.508.51.51 0 0 1-.508.508c-1.092 0-2.133-.076-3.097-.203zm5.636-.381a.512.512 0 0 1 .457-.559c.94-.076 1.955-.203 2.996-.381.28-.05.534.153.584.432.051.279-.152.533-.431.584a35.46 35.46 0 0 1-3.047.381h-.05a.52.52 0 0 1-.509-.457zm-8.683-.229a14.95 14.95 0 0 1-2.92-1.193c-.254-.127-.33-.432-.203-.686.127-.254.431-.33.685-.203.813.457 1.727.813 2.717 1.117.28.077.432.356.33.635a.488.488 0 0 1-.457.356c-.05 0-.101 0-.152-.026zm14.701-.66a.538.538 0 0 1 .38-.609c.94-.203 1.93-.432 2.946-.711.28-.076.559.101.61.355a.49.49 0 0 1-.356.61 51.626 51.626 0 0 1-2.996.711c0 .05-.025.05-.076.05a.513.513 0 0 1-.508-.406zm5.916-1.473a.513.513 0 0 1 .33-.634c.94-.28 1.904-.584 2.895-.914.254-.077.558.05.634.33.077.254-.05.558-.33.634-.99.331-1.98.635-2.92.915-.025.025-.076.025-.127.025a.495.495 0 0 1-.482-.356zm160.164-.126a112.524 112.524 0 0 0-.279-3.022c-.026-.279.178-.533.431-.559.28-.025.534.153.559.432.127.99.229 2.006.305 3.047.025.279-.178.533-.457.533-.026.051-.026.051-.051.051a.521.521 0 0 1-.508-.482zm-186.266-.762a13.308 13.308 0 0 1-2.03-2.412.504.504 0 0 1 .151-.711.503.503 0 0 1 .712.152 13.45 13.45 0 0 0 1.878 2.234.491.491 0 0 1 .026.711c-.127.077-.254.153-.381.153a.608.608 0 0 1-.356-.127zm31.891-1.016c-.102-.254.05-.558.305-.66.94-.33 1.879-.711 2.844-1.066a.515.515 0 0 1 .66.279.515.515 0 0 1-.28.66c-.965.381-1.93.736-2.869 1.092-.05.025-.127.025-.177.025a.52.52 0 0 1-.483-.33zm5.713-2.183a.517.517 0 0 1 .28-.661c.913-.38 1.853-.787 2.792-1.218.254-.102.559 0 .66.254.102.253 0 .558-.253.66-.94.406-1.88.838-2.819 1.218a.762.762 0 0 1-.203.051.502.502 0 0 1-.457-.304zm147.926-2.032c-.153-.838-.305-1.675-.483-2.463l-.101-.507a.516.516 0 0 1 .381-.61.517.517 0 0 1 .609.381l.102.508c.177.812.355 1.65.507 2.514a.496.496 0 0 1-.406.584c-.025.025-.051.025-.101.025a.517.517 0 0 1-.508-.432zm-189.034 0a19.406 19.406 0 0 1-.939-2.97.487.487 0 0 1 .38-.61.487.487 0 0 1 .61.381c.229 1.016.533 1.955.889 2.818a.517.517 0 0 1-.28.661c-.05.05-.126.05-.177.05-.203 0-.38-.127-.483-.33zm46.669-.431c-.127-.254 0-.559.253-.686.915-.431 1.828-.863 2.743-1.32a.508.508 0 0 1 .685.228.51.51 0 0 1-.228.686c-.914.457-1.854.889-2.768 1.32a.724.724 0 0 1-.229.051.48.48 0 0 1-.457-.279zm5.484-2.692a.508.508 0 0 1 .228-.685c.89-.457 1.803-.94 2.692-1.422.254-.127.558-.051.685.203s.051.559-.203.686c-.888.482-1.802.964-2.691 1.421a.567.567 0 0 1-.254.077.535.535 0 0 1-.457-.28zm135.611-2.793c-.254-1.041-.482-2.006-.736-2.945-.076-.279.101-.559.355-.609a.489.489 0 0 1 .61.355c.254.965.508 1.93.736 2.971a.487.487 0 0 1-.381.609h-.101a.49.49 0 0 1-.483-.381zm-189.236-.101a29.074 29.074 0 0 1-.229-3.073c0-.279.204-.507.483-.533.28-.025.508.203.533.483.025 1.041.101 2.056.228 2.996.026.279-.177.533-.431.558-.026.026-.05.026-.076.026a.5.5 0 0 1-.508-.457zm59.008 0c-.127-.254-.051-.559.203-.686.888-.508 1.752-1.015 2.64-1.523a.492.492 0 0 1 .686.178.492.492 0 0 1-.178.685c-.863.508-1.752 1.041-2.64 1.524-.127.05-.203.076-.28.076a.492.492 0 0 1-.431-.254zm5.23-3.073a.51.51 0 0 1 .178-.71c.863-.534 1.726-1.067 2.564-1.625a.525.525 0 0 1 .711.152c.153.228.076.558-.152.711-.838.558-1.727 1.092-2.59 1.625a.51.51 0 0 1-.279.076.499.499 0 0 1-.432-.229zm123.449-2.691a96.892 96.892 0 0 0-.888-2.894c-.076-.28.05-.559.33-.635.279-.076.558.051.635.33.304.965.609 1.955.888 2.92a.509.509 0 0 1-.355.635c-.026-.026-.076 0-.127 0a.496.496 0 0 1-.483-.356zm-187.916-.406c.026-.508.051-1.041.077-1.6.025-.482.076-.99.177-1.498a.532.532 0 0 1 .584-.431c.28.05.457.304.432.584a14.58 14.58 0 0 0-.153 1.396c-.025.533-.05 1.066-.076 1.574a.53.53 0 0 1-.533.508c-.304 0-.508-.254-.508-.533zm69.596-.203c-.152-.229-.102-.559.127-.711.838-.559 1.676-1.143 2.514-1.727.228-.152.558-.101.711.127.152.229.101.559-.127.711-.838.584-1.676 1.168-2.514 1.727a.382.382 0 0 1-.279.101.532.532 0 0 1-.432-.228zm5.027-3.504a.497.497 0 0 1 .102-.711l2.437-1.828a.497.497 0 0 1 .711.101.497.497 0 0 1-.101.711 198.69 198.69 0 0 1-2.438 1.854.67.67 0 0 1-.304.076.53.53 0 0 1-.407-.203zm111.44-1.676c-.33-.965-.686-1.904-1.041-2.844a.506.506 0 0 1 .305-.66.508.508 0 0 1 .66.305c.355.939.711 1.904 1.041 2.869a.491.491 0 0 1-.305.635c-.076 0-.127.025-.178.025a.52.52 0 0 1-.482-.33zm-184.742-.102c-.28-.076-.407-.38-.33-.634.304-.94.66-1.905 1.091-2.895.102-.254.407-.381.66-.254.255.102.381.407.255.66a25.925 25.925 0 0 0-1.067 2.793.459.459 0 0 1-.457.356c-.05 0-.101 0-.152-.026zm78.127-1.904c-.178-.228-.153-.533.076-.711.787-.635 1.574-1.295 2.336-1.929a.515.515 0 0 1 .711.05.516.516 0 0 1-.051.711 60.34 60.34 0 0 1-2.361 1.955.626.626 0 0 1-.305.102.596.596 0 0 1-.406-.178zm104.457-3.681a54.184 54.184 0 0 0-1.219-2.793.484.484 0 0 1 .254-.661.483.483 0 0 1 .66.254c.406.914.838 1.879 1.219 2.819a.516.516 0 0 1-.28.66c-.05.025-.101.025-.177.025a.502.502 0 0 1-.457-.304zm-180.274-.026c-.254-.127-.33-.432-.203-.685.457-.864.965-1.778 1.523-2.666a.528.528 0 0 1 .686-.178.528.528 0 0 1 .178.685 74.252 74.252 0 0 0-1.498 2.616.536.536 0 0 1-.457.279.725.725 0 0 1-.229-.051zm80.489-.254c-.178-.203-.178-.533.05-.711.762-.685 1.498-1.371 2.235-2.056a.491.491 0 0 1 .711.025.491.491 0 0 1-.026.711c-.736.686-1.472 1.396-2.26 2.082a.452.452 0 0 1-.33.127.488.488 0 0 1-.38-.178zm4.417-4.164a.491.491 0 0 1 0-.711 86.845 86.845 0 0 0 2.108-2.183.515.515 0 0 1 .711-.026.514.514 0 0 1 .025.711 82.493 82.493 0 0 1-2.133 2.209c-.076.102-.203.153-.355.153a.502.502 0 0 1-.356-.153zm-81.783-.812c-.228-.153-.279-.483-.127-.711a75.427 75.427 0 0 1 1.778-2.489c.177-.228.482-.279.71-.101.23.178.28.482.102.711-.61.812-1.219 1.65-1.752 2.463a.581.581 0 0 1-.431.203.518.518 0 0 1-.28-.076zm174.637-.28c-.432-.914-.914-1.802-1.371-2.691a.523.523 0 0 1 .203-.686.523.523 0 0 1 .686.204c.482.888.939 1.828 1.396 2.742a.509.509 0 0 1-.228.685c-.077.026-.153.026-.229.026-.178 0-.381-.102-.457-.28zm-88.664-3.326a.515.515 0 0 1-.051-.711c.66-.761 1.32-1.549 1.955-2.31a.495.495 0 0 1 .711-.076.493.493 0 0 1 .076.71 55.468 55.468 0 0 1-1.98 2.336.458.458 0 0 1-.381.178.534.534 0 0 1-.33-.127zm-82.393-1.32a.495.495 0 0 1-.076-.711c.635-.787 1.295-1.574 1.955-2.361a.515.515 0 0 1 .711-.051.515.515 0 0 1 .051.711c-.66.762-1.32 1.549-1.93 2.336-.076.127-.228.177-.38.177a.56.56 0 0 1-.33-.101zm168.239-.711c-.508-.863-1.016-1.752-1.549-2.615a.51.51 0 0 1 .178-.711c.228-.153.558-.076.71.178a88.37 88.37 0 0 1 1.575 2.64c.127.254.05.559-.178.686a.898.898 0 0 1-.305.076.492.492 0 0 1-.431-.254zm-81.961-2.666c-.229-.178-.28-.482-.102-.711.609-.812 1.193-1.65 1.777-2.463.153-.228.483-.279.711-.127.229.152.28.483.127.711a40.972 40.972 0 0 1-1.802 2.488.53.53 0 0 1-.407.203.486.486 0 0 1-.304-.101zm-82.317-1.27a.49.49 0 0 1-.025-.711c.685-.736 1.396-1.498 2.107-2.234a.491.491 0 0 1 .711 0 .49.49 0 0 1 0 .711 83.25 83.25 0 0 0-2.082 2.209c-.076.102-.203.152-.355.152a.6.6 0 0 1-.356-.127zm161.078-1.218a85.879 85.879 0 0 0-1.726-2.489.524.524 0 0 1 .127-.711.526.526 0 0 1 .711.127c.584.813 1.168 1.676 1.752 2.514a.504.504 0 0 1-.432.787.533.533 0 0 1-.432-.228zm-75.283-2.514a.522.522 0 0 1-.152-.711 70.752 70.752 0 0 0 1.549-2.59c.127-.254.457-.33.685-.203.254.127.33.457.203.686a39.906 39.906 0 0 1-1.574 2.64.497.497 0 0 1-.431.254.579.579 0 0 1-.28-.076zm-81.554-.66c-.204-.203-.204-.533 0-.711a87.42 87.42 0 0 1 2.209-2.108.491.491 0 0 1 .71.026.49.49 0 0 1-.025.711c-.736.685-1.473 1.396-2.209 2.082a.41.41 0 0 1-.33.152.503.503 0 0 1-.356-.152zm153.308-1.752a83.08 83.08 0 0 0-1.879-2.361c-.178-.229-.152-.534.076-.711a.495.495 0 0 1 .711.076c.66.787 1.295 1.574 1.905 2.386a.497.497 0 0 1-.102.711c-.076.077-.178.102-.305.102a.53.53 0 0 1-.406-.203zm-148.865-2.412c-.178-.203-.178-.533.05-.711.762-.66 1.55-1.346 2.311-2.006a.515.515 0 0 1 .711.051.515.515 0 0 1-.05.711c-.762.66-1.55 1.32-2.311 1.98a.408.408 0 0 1-.33.152.456.456 0 0 1-.381-.177zm80.107-.457a.509.509 0 0 1-.228-.686c.457-.914.863-1.828 1.269-2.742a.515.515 0 0 1 .66-.279.516.516 0 0 1 .28.66 92.253 92.253 0 0 1-1.27 2.793.568.568 0 0 1-.482.305c-.076 0-.153-.026-.229-.051zm64.899-1.803c-.66-.762-1.371-1.498-2.057-2.234a.491.491 0 0 1 .025-.711.491.491 0 0 1 .711.025 85.678 85.678 0 0 1 2.082 2.26c.178.203.178.533-.05.711-.077.101-.203.127-.33.127a.456.456 0 0 1-.381-.178zm-140.36-1.676c-.177-.228-.152-.533.076-.711.788-.634 1.6-1.269 2.413-1.879a.497.497 0 0 1 .71.102c.178.228.127.533-.101.711a85.11 85.11 0 0 0-2.387 1.879c-.076.025-.203.076-.304.076a.597.597 0 0 1-.407-.178zm77.924-2.107a.515.515 0 0 1-.279-.66c.355-.94.711-1.905 1.041-2.844.101-.254.381-.406.635-.305.254.102.406.381.304.635-.33.965-.685 1.93-1.041 2.869a.52.52 0 0 1-.482.33c-.051 0-.127 0-.178-.025zm58.246-.584a82.812 82.812 0 0 0-2.209-2.057.515.515 0 0 1-.05-.71.514.514 0 0 1 .71-.052 90.214 90.214 0 0 1 2.235 2.082.491.491 0 0 1 0 .711.37.37 0 0 1-.33.178.505.505 0 0 1-.356-.152zM74.268 99.759c-.178-.228-.127-.533.101-.71.813-.61 1.65-1.194 2.488-1.778.229-.152.559-.101.711.127.153.229.102.559-.127.711a86.723 86.723 0 0 0-2.463 1.777.604.604 0 0 1-.304.077.53.53 0 0 1-.406-.204zm126.851-2.97c-.762-.635-1.574-1.27-2.361-1.905-.229-.177-.254-.482-.102-.71a.52.52 0 0 1 .711-.102c.813.61 1.6 1.27 2.387 1.93.203.177.254.507.076.71a.521.521 0 0 1-.381.204.535.535 0 0 1-.33-.127zm-121.875-.534a.504.504 0 0 1 .153-.71c.837-.559 1.7-1.118 2.564-1.676a.527.527 0 0 1 .71.152.527.527 0 0 1-.152.711c-.863.533-1.7 1.092-2.538 1.65a.489.489 0 0 1-.305.102.531.531 0 0 1-.432-.228zm70.154-.584c-.279-.076-.406-.355-.33-.634.305-.965.584-1.93.864-2.895a.507.507 0 0 1 .634-.355c.28.076.432.355.356.634-.279.99-.559 1.956-.863 2.946-.102.178-.28.33-.508.33-.051 0-.102 0-.153-.026zm-65-2.716a.478.478 0 0 1 .178-.686 89.877 89.877 0 0 1 2.64-1.549.492.492 0 0 1 .686.178.492.492 0 0 1-.177.686c-.864.507-1.752 1.015-2.616 1.548a.662.662 0 0 1-.279.077.471.471 0 0 1-.432-.254zm111.922.127a85.661 85.661 0 0 0-2.488-1.727.526.526 0 0 1-.152-.71.521.521 0 0 1 .711-.153 55.336 55.336 0 0 1 2.513 1.752c.229.152.28.482.127.71a.487.487 0 0 1-.711.128zM89.654 89.908c-.127-.254-.05-.559.203-.686.89-.482 1.803-.965 2.692-1.447a.509.509 0 0 1 .685.228.509.509 0 0 1-.228.686 136.7 136.7 0 0 0-2.692 1.422.479.479 0 0 1-.203.05.567.567 0 0 1-.457-.253zm101.639-.178a89.009 89.009 0 0 0-2.615-1.549c-.254-.127-.33-.457-.203-.685.127-.254.457-.33.685-.203a89.119 89.119 0 0 1 2.641 1.548.555.555 0 0 1 .178.711c-.077.178-.254.254-.432.254a.428.428 0 0 1-.254-.076zm-40.244.05a.517.517 0 0 1-.381-.609c.228-.99.457-1.98.66-2.945a.521.521 0 0 1 .61-.406.52.52 0 0 1 .406.61c-.203.99-.432 2.005-.66 2.995a.543.543 0 0 1-.508.381c-.051 0-.076 0-.127-.025zm-55.987-2.69a.509.509 0 0 1 .229-.686c.914-.457 1.853-.889 2.768-1.32.254-.127.558 0 .685.254.127.253 0 .558-.254.685-.914.406-1.828.863-2.742 1.295a.742.742 0 0 1-.229.05c-.177 0-.38-.1-.457-.278zm90.975-.33a90.514 90.514 0 0 0-2.717-1.346.508.508 0 0 1-.228-.686.508.508 0 0 1 .685-.228c.914.431 1.828.914 2.743 1.37a.481.481 0 0 1 .203.686.569.569 0 0 1-.457.254.738.738 0 0 1-.229-.05zm-85.439-2.235c-.102-.254 0-.559.254-.66.939-.406 1.878-.787 2.818-1.168a.515.515 0 0 1 .66.28.515.515 0 0 1-.279.66c-.94.38-1.879.761-2.793 1.167-.076 0-.127.026-.203.026a.501.501 0 0 1-.457-.305zm79.955-.406c-.914-.406-1.854-.787-2.793-1.168a.516.516 0 0 1-.28-.66.516.516 0 0 1 .661-.28c.939.381 1.904.788 2.818 1.194.254.101.381.406.254.66a.465.465 0 0 1-.457.305c-.076 0-.127-.026-.203-.051zm-28.26-.28a.495.495 0 0 1-.406-.584c.177-.99.304-2.005.431-2.996a.478.478 0 0 1 .559-.431c.279.025.482.28.432.558-.127.99-.28 2.032-.457 3.022a.474.474 0 0 1-.483.431h-.076zm-46.059-1.6a.508.508 0 0 1 .305-.66c.965-.355 1.93-.71 2.869-1.015a.49.49 0 0 1 .635.305.49.49 0 0 1-.305.635c-.939.33-1.904.66-2.843 1.015-.077.026-.127.051-.178.051a.522.522 0 0 1-.483-.33zm68.707-.355a54.354 54.354 0 0 0-2.869-.99c-.254-.076-.406-.38-.33-.635.076-.254.381-.406.635-.33.965.33 1.93.66 2.894 1.016.254.102.407.38.305.66-.051.178-.254.305-.457.305-.051 0-.127 0-.178-.026zm-62.968-1.65a.513.513 0 0 1 .33-.635c.965-.304 1.955-.61 2.92-.863a.507.507 0 0 1 .634.355.507.507 0 0 1-.355.635c-.965.28-1.93.559-2.895.864h-.152a.487.487 0 0 1-.482-.356zm57.23-.28c-.965-.279-1.93-.558-2.92-.837a.508.508 0 0 1-.355-.635.507.507 0 0 1 .634-.355c.991.279 1.981.558 2.946.838a.477.477 0 0 1 .33.634c-.076.229-.279.381-.483.381-.05 0-.101 0-.152-.025zm-51.391-1.396a.49.49 0 0 1 .356-.61c.99-.253 1.98-.482 2.971-.71a.516.516 0 0 1 .609.38.517.517 0 0 1-.381.61c-.965.229-1.955.457-2.945.711-.026-.025-.076 0-.127 0a.49.49 0 0 1-.483-.38zm45.526-.203c-.965-.228-1.955-.457-2.945-.685a.486.486 0 0 1-.381-.61c.05-.28.33-.457.609-.38.99.202 2.006.431 2.971.685.279.076.431.33.381.61-.077.253-.28.406-.508.406-.051 0-.076 0-.127-.026zm-10.233-.559a.513.513 0 0 1-.457-.558c.102-1.016.153-2.031.204-3.022a.526.526 0 0 1 .533-.482c.279.025.508.254.482.533a124.611 124.611 0 0 1-.203 3.047.521.521 0 0 1-.508.483h-.051zm-29.376-.609a.495.495 0 0 1 .406-.584c.99-.203 2.006-.38 2.996-.533.279-.05.533.152.584.432.051.279-.153.533-.432.584-.99.152-1.98.33-2.97.533-.026-.026-.051-.026-.077-.026a.54.54 0 0 1-.507-.406zm33.667-.076c-.99-.178-2.005-.33-2.996-.483-.279-.05-.482-.304-.431-.583.051-.28.304-.483.584-.432 1.015.152 2.031.305 3.021.482.28.051.457.305.406.584a.472.472 0 0 1-.482.432h-.102zm-27.675-.94c-.026-.279.152-.533.431-.558 1.016-.127 2.032-.254 3.022-.356a.511.511 0 0 1 .101 1.016c-.99.102-2.005.229-2.996.356 0-.026-.025-.026-.05-.026a.516.516 0 0 1-.508-.431zm21.709.102a58.054 58.054 0 0 0-3.022-.254.527.527 0 0 1-.482-.533.527.527 0 0 1 .533-.483c1.016.077 2.057.153 3.047.254.279.026.482.28.457.559 0 .254-.229.457-.483.457h-.05zm-15.666-.736a.494.494 0 0 1 .482-.534 61.279 61.279 0 0 1 3.047-.152c.279 0 .508.203.533.483 0 .279-.203.507-.482.533-.99.025-2.006.076-3.022.152h-.051a.521.521 0 0 1-.507-.482zm9.648.304c-.99-.025-1.98-.05-2.971-.05h-.076a.51.51 0 0 1-.508-.508.51.51 0 0 1 .508-.508h.076c.991 0 1.981.025 2.971.05.279 0 .508.255.483.534 0 .28-.229.482-.483.482-.025 0-.025 0 0 0zm7.516-4.62v-.356c0-.889-.026-1.777-.051-2.666 0-.28.203-.508.482-.533.28 0 .508.203.534.482.025.889.05 1.803.05 2.692v.355a.515.515 0 0 1-.507.533.51.51 0 0 1-.508-.508zm-.254-6.044c-.102-1.015-.203-2.03-.33-2.996-.051-.279.152-.533.431-.584.28-.05.534.153.584.432.153.99.254 2.031.356 3.047a.513.513 0 0 1-.457.558h-.076a.52.52 0 0 1-.508-.457zm-.838-5.966c-.203-.99-.432-1.98-.66-2.946-.076-.279.101-.558.355-.61a.49.49 0 0 1 .61.356c.254.965.482 1.98.685 2.996a.495.495 0 0 1-.406.584c-.025 0-.051.026-.076.026a.541.541 0 0 1-.508-.406zm-1.524-5.866a33.51 33.51 0 0 0-1.041-2.818.516.516 0 0 1 .28-.66.515.515 0 0 1 .66.28c.381.939.736 1.903 1.066 2.894.077.254-.05.558-.33.634-.051.026-.101.026-.152.026a.511.511 0 0 1-.483-.356zm-2.259-5.535a53.068 53.068 0 0 0-1.448-2.64.478.478 0 0 1 .178-.686.478.478 0 0 1 .686.178 30.894 30.894 0 0 1 1.472 2.717.509.509 0 0 1-.228.685c-.051 0-.127.026-.203.026a.534.534 0 0 1-.457-.28zm-3.073-5.154a42.025 42.025 0 0 0-1.853-2.361.515.515 0 0 1 .051-.711.515.515 0 0 1 .711.05c.66.762 1.295 1.6 1.904 2.438a.525.525 0 0 1-.127.71.512.512 0 0 1-.279.077.531.531 0 0 1-.407-.203zm-3.91-4.57a41.821 41.821 0 0 0-2.234-2.006.495.495 0 0 1-.076-.711.495.495 0 0 1 .711-.076 44.39 44.39 0 0 1 2.31 2.056.491.491 0 0 1 0 .711.442.442 0 0 1-.355.178.503.503 0 0 1-.356-.152zm-60.277-1.6a.509.509 0 0 1 .228-.686c.051-.025 1.041-.533 2.793-1.294.254-.102.56 0 .66.253.102.254 0 .559-.253.66-1.727.762-2.743 1.27-2.743 1.27a.41.41 0 0 1-.228.076.535.535 0 0 1-.457-.279zm55.631-2.158a45.976 45.976 0 0 0-1.854-1.168c-.228-.127-.482-.28-.711-.406-.254-.127-.33-.457-.203-.686.127-.254.457-.33.686-.203.254.127.482.28.736.406.635.381 1.295.787 1.904 1.194a.497.497 0 0 1 .127.71c-.076.153-.254.229-.406.229a.512.512 0 0 1-.279-.076zm-50.07-.33a.516.516 0 0 1 .279-.66c.94-.381 1.904-.737 2.869-1.067.254-.101.559.05.66.305.102.254-.05.558-.305.66-.964.33-1.904.71-2.843 1.066-.051 0-.102.026-.178.026a.52.52 0 0 1-.483-.33zm5.763-2.082c-.076-.28.051-.559.33-.635.965-.305 1.955-.61 2.92-.889a.508.508 0 0 1 .635.356.508.508 0 0 1-.355.634c-.965.28-1.93.584-2.895.89H92.6a.51.51 0 0 1-.483-.356zm39.051-.508c-.914-.381-1.854-.762-2.793-1.067-.254-.076-.406-.38-.33-.634.076-.254.381-.407.635-.33.99.33 1.955.685 2.894 1.091a.483.483 0 0 1 .254.66.488.488 0 0 1-.457.33c-.076 0-.127-.025-.203-.05zm-33.211-1.194a.487.487 0 0 1 .38-.609c.991-.254 2.007-.482 2.997-.685a.538.538 0 0 1 .609.38.539.539 0 0 1-.381.61c-.964.203-1.955.431-2.945.685-.076-.025-.127 0-.178 0a.49.49 0 0 1-.482-.38zm27.523-.71a37.666 37.666 0 0 0-2.945-.584.532.532 0 0 1-.431-.584.532.532 0 0 1 .584-.432c1.015.178 2.056.38 3.021.61.279.076.432.33.381.609a.487.487 0 0 1-.483.406c-.05 0-.076 0-.127-.026zm-21.582-.61a.496.496 0 0 1 .407-.584 62.811 62.811 0 0 1 3.047-.457c.279-.025.533.152.558.432.026.28-.152.533-.431.558-.991.127-1.981.28-2.997.457 0 .026-.05.026-.076.026a.517.517 0 0 1-.508-.432zm15.641-.33c-.99-.076-1.98-.152-3.021-.178a.495.495 0 0 1-.483-.533c0-.28.229-.508.533-.482 1.041.025 2.082.101 3.073.178.279.025.482.279.457.558a.52.52 0 0 1-.508.457h-.051zm-9.598-.457a.513.513 0 0 1 .457-.558c1.041-.077 2.057-.153 3.073-.178h.025c.279 0 .508.228.508.482 0 .28-.203.508-.483.533-.99.026-2.005.076-3.021.178h-.051a.52.52 0 0 1-.508-.457z" fill="#EAEAFF"/><path d="m73.887 49.46-21.582-5.89 14.98-3.758 6.602 9.649z" fill="#EAE9FF"/><path d="M67.285 39.812 54.59 51.492 24.629 36.004l42.656 3.808zM79.98 24.832 24.63 36.004l46.719-3.555 8.633-7.617z" fill="#F4F3FD"/><path d="M36.08 216.023c-1.117 8.684-1.574 18.637-1.574 18.637h33.87l6.45-31.23-33.972-7.846s-3.631 11.756-4.774 20.439z" fill="#F9D2DD"/><path d="M36.08 216.023c-1.117 8.684-1.574 18.637-1.574 18.637h33.87l6.45-31.23-33.972-7.846s-3.631 11.756-4.774 20.439z" fill="#DA5742"/><path d="m38.264 205.004 33.718 12.137 2.819-13.711-33.948-7.846s-1.294 4.189-2.59 9.42z" fill="#C43D28"/><path d="m71.17 209.574-32.703-7.845s.558-2.438 1.676-6.373c3.377-11.832 12.035-37.096 26.634-48.42 25.899-20.059 51.112-19.373 71.348-16.504 25.137 3.554 42.707 27.168 47.734 34.277 6.703 9.496 14.219 24.959 14.219 24.959l-34.455 14.574 5.053 30.52h-102.3v.025l2.794-25.213z" fill="#3D5CFF"/><path d="M157.422 125.861c-3.199-.482-5.408-3.453-4.926-6.652l6.424-42.987c.482-3.199 3.453-5.408 6.652-4.925l18.053 2.691c3.199.483 5.408 3.453 4.926 6.653l-6.424 42.986c-.457 3.199-3.453 5.408-6.652 4.926l-18.053-2.692z" fill="#B7B8D1"/><path fill-rule="evenodd" clip-rule="evenodd" d="M248.752 234.229v.837H11.248v-.837h237.504z" fill="#1F1F39"/><path d="M157.422 125.861c-3.199-.482-5.408-3.453-4.926-6.652l6.424-42.987c.482-3.199 3.453-5.408 6.652-4.925l18.053 2.691c3.199.483 5.408 3.453 4.926 6.653l-6.424 42.986c-.457 3.199-3.453 5.408-6.652 4.926l-18.053-2.692z" fill="#1F1F39"/><path d="M165.648 204.268s4.266 17.976 23.03 27.498c18.763 9.521 41.386-2.286 43.088-18.815 1.421-13.863-2.793-45.094-11.756-66.092-8.963-20.998-22.395-43.976-32.221-53.777-9.826-9.8-23.816-8.684-27.168-8.125-3.352.559-6.17 3.072-4.189 5.332 1.955 2.234 13.431 3.352 13.431 3.352s-8.785-1.194-14.193 1.802c-3.834 2.133-3.606 4.698-3.047 6.094.559 1.397 2.793 2.031 2.793 2.031s-2.311 1.549-1.777 4.063c.761 3.554 4.189 3.377 4.189 3.377s-.838 1.117 0 3.072 3.631 2.793 7.008 3.352c3.351.558 6.728-.559 9.242 2.793 2.514 3.351 18.281 72.744 18.281 72.744l-26.711 11.299z" fill="#DA5742"/><path d="M153.639 96.89a.368.368 0 0 1 .025-.532c.508-.458 1.092-.864 1.803-1.27 2.285-1.27 5.408-1.955 9.293-2.057 2.869-.076 5.053.203 5.129.229a.395.395 0 0 1 .33.431.395.395 0 0 1-.432.33c-.076 0-8.734-1.142-13.965 1.752a7.871 7.871 0 0 0-1.65 1.169c-.076.025-.178.076-.254.076a.406.406 0 0 1-.279-.127zM165.369 204.801l-8.404-32.78c-.051-.228.076-.457.304-.507.229-.051.457.076.508.304l8.405 32.78c.05.228-.077.457-.305.507h-.102a.435.435 0 0 1-.406-.304zM71.246 209.854c-.228-.051-.38-.254-.33-.483l5.611-31.941c.051-.229.254-.381.483-.33.228.051.38.254.33.482l-5.612 31.942c-.025.203-.203.33-.406.33h-.076z" fill="#1F1F39"/><path fill-rule="evenodd" clip-rule="evenodd" d="M248.752 234.229v.837H11.248v-.837h237.504z" fill="#1F1F39"/><path d="M154.324 103.517c-.101-.177-.025-.406.153-.507.177-.102 4.672-2.387 9.75-2.895 5.103-.508 6.703 0 6.754.025.203.077.304.28.228.483-.076.203-.279.305-.482.228 0 0-1.575-.482-6.45.026-4.951.482-9.445 2.793-9.496 2.793 0 .05-.076.05-.127.05-.127 0-.279-.076-.33-.203zM155.848 111.388c-.102-.177-.026-.406.152-.507.178-.102 4.672-2.387 9.75-2.895 5.104-.508 6.703 0 6.754.025.203.077.305.28.228.483-.076.203-.279.305-.482.228 0 0-1.574-.482-6.449.026-4.951.482-9.445 2.793-9.496 2.793 0 .051-.076.051-.127.051-.127 0-.279-.077-.33-.204zM155.315 95.596c-.102-.178-.026-.407.152-.508 2.336-1.295 5.281-1.828 7.896-2.006-3.047-.584-6.246-1.422-7.236-2.565-.127-.152-.127-.406.025-.533.153-.127.407-.127.534.026 1.396 1.6 8.556 2.716 12.213 3.123.558.05.914.101.99.101l-.076.762c-.077 0-.33-.025-.762-.076-2.209-.203-8.887-.559-13.203 1.828a.789.789 0 0 1-.203.05.396.396 0 0 1-.33-.203z" fill="#1F1F39"/><path d="m192.334 192.969-26.711 11.299s1.219 5.179 5.256 11.451l22.267-19.119-.812-3.631z" fill="#C43D28"/><path d="m194.721 205.334-2.793-12.188a.434.434 0 0 1 .304-.507.435.435 0 0 1 .508.304l2.793 12.188a.436.436 0 0 1-.304.508c-.051 0-.077.025-.102.025-.203 0-.355-.127-.406-.33z" fill="#1F1F39"/><path d="m61.191 207.188 9.979 2.386-.66 6.043 5.865-34.988-15.184 26.559zM165.826 205.385l-.203-1.118 9.065-3.833-17.317-26.737 8.455 31.688z" fill="#224BF4"/><path fill-rule="evenodd" clip-rule="evenodd" d="m40.739 193.193 32.26 6.867-.212.993-32.26-6.867.212-.993zM190.261 184.157l.379.942-27.237 10.939-.379-.942 27.237-10.939z" fill="#EAEAFF"/><path d="M54.107 196.6c.051-.254 5.485-24.655 16.098-38.289 10.613-13.661 28.97-21.405 29.148-21.481l.381.94c-.177.076-18.28 7.718-28.742 21.175-10.486 13.457-15.844 37.655-15.894 37.883l-.99-.228z" fill="#EAEAFF"/><path fill-rule="evenodd" clip-rule="evenodd" d="M51.035 195.406s.254-1.142.711-2.996l.482.127a84.826 84.826 0 0 0-.685 2.971l-.508-.102zm1.524-5.941c.279-.965.558-1.955.838-2.945l.482.152a63.006 63.006 0 0 0-.838 2.92l-.482-.127zm1.752-5.865a77.17 77.17 0 0 1 .964-2.895l.483.178c-.33.939-.66 1.904-.965 2.869l-.483-.152zm1.98-5.764c.356-.965.736-1.93 1.092-2.844l.482.178c-.355.914-.736 1.879-1.092 2.844l-.482-.178zm2.285-5.687c.406-.94.838-1.879 1.244-2.793l.457.228c-.406.889-.837 1.828-1.244 2.768l-.457-.203zm2.59-5.51c.482-.94.965-1.828 1.447-2.692l.432.254c-.457.838-.94 1.727-1.422 2.666l-.457-.228zm3.047-5.332a54.825 54.825 0 0 1 1.701-2.539l.406.304c-.558.787-1.142 1.625-1.675 2.514l-.432-.279zm3.555-4.977a56.939 56.939 0 0 1 1.98-2.336l.38.33c-.66.787-1.32 1.549-1.954 2.336l-.406-.33zm4.062-4.57c.711-.736 1.422-1.473 2.158-2.158l.356.355a87.304 87.304 0 0 0-2.158 2.158l-.356-.355zm4.418-4.24a56.598 56.598 0 0 1 2.336-1.981l.33.406c-.812.61-1.6 1.27-2.336 1.955l-.33-.38zm4.723-3.86c.812-.609 1.65-1.193 2.488-1.777l.28.432a73.236 73.236 0 0 0-2.464 1.751l-.304-.406zm5.052-3.453a55.821 55.821 0 0 1 2.641-1.549l.254.432c-.889.482-1.752 1.016-2.615 1.549l-.28-.432zm5.333-2.996c.939-.457 1.853-.914 2.767-1.295l.203.457c-.888.406-1.828.838-2.742 1.295l-.228-.457zm5.61-2.437c.94-.331 1.448-.483 1.474-.483l.126.483c.026 0-.507.152-1.422.482l-.177-.482zM186.596 179.943l.457-.228c.482.914.965 1.828 1.396 2.717l-.457.228c-.431-.888-.914-1.802-1.396-2.717zm-2.946-5.306.432-.254 1.523 2.666-.457.228a87.878 87.878 0 0 0-1.498-2.64zm-3.199-5.205.432-.28c.533.838 1.092 1.727 1.625 2.59l-.432.28c-.533-.864-1.066-1.752-1.625-2.59zm-3.377-5.078.406-.305a87.78 87.78 0 0 1 1.727 2.514l-.406.304a87.73 87.73 0 0 0-1.727-2.513zm-3.631-4.875.407-.305c.609.787 1.244 1.6 1.853 2.437l-.406.28a84.623 84.623 0 0 0-1.854-2.412zm-3.884-4.672.38-.33a91.242 91.242 0 0 1 2.006 2.31l-.406.33c-.66-.787-1.32-1.574-1.98-2.31zm-4.19-4.393.356-.355a86.09 86.09 0 0 1 2.158 2.158l-.381.355c-.711-.736-1.422-1.472-2.133-2.158zm-4.57-4.012.305-.406c.787.61 1.574 1.27 2.335 1.955l-.304.407a41.646 41.646 0 0 0-2.336-1.956zm-4.951-3.529.279-.432c.863.559 1.727 1.118 2.539 1.702l-.305.431c-.812-.584-1.675-1.142-2.513-1.701zm-5.256-2.996.228-.457c.914.457 1.803.939 2.692 1.447l-.254.457a54.058 54.058 0 0 0-2.666-1.447zm-5.535-2.514.177-.482c.94.381 1.905.787 2.819 1.193l-.203.483a91.174 91.174 0 0 0-2.793-1.194zm-5.739-1.98.153-.483c.965.305 1.955.61 2.92.94l-.178.482c-.94-.33-1.93-.634-2.895-.939zm-5.89-1.498.101-.508c.991.203 2.006.432 2.971.686l-.102.507c-.99-.254-1.98-.482-2.97-.685zm-5.967-.99.051-.508c.99.127 2.006.254 3.021.431l-.076.508c-1.016-.152-2.006-.304-2.996-.431zm-5.738-.381h-.33l-.026-.508h.356c.457 0 1.396.025 2.716.102l-.025.507a52.256 52.256 0 0 0-2.691-.101z" fill="#EAEAFF"/><path d="M155.086 146.606c-17.672-12.696-37.07-12.315-37.248-12.315l-.026-1.016c.204 0 19.907-.406 37.883 12.493 17.926 12.873 30.52 40.295 30.647 40.574l-.94.431c-.127-.279-12.619-27.447-30.316-40.167z" fill="#EAEAFF"/><path d="M71.246 209.854c-.228-.051-.38-.254-.33-.483l5.611-31.941c.051-.229.254-.381.483-.33.228.051.38.254.33.482l-5.612 31.942c-.025.203-.203.33-.406.33h-.076zM165.369 204.801l-8.404-32.78c-.051-.228.076-.457.304-.507.229-.051.457.076.508.304l8.405 32.78c.05.228-.077.457-.305.507h-.102a.435.435 0 0 1-.406-.304z" fill="#1F1F39"/><path d="M113.09 142.873c10.638-.787 18.967-5.154 18.636-9.775-.101-1.397-.964-2.641-2.437-3.682-10.639-.939-22.369-.686-34.607 2.945-1.016 1.143-1.524 2.336-1.448 3.555.33 4.621 9.217 7.719 19.856 6.957z" fill="#224BF4"/><path d="M132.006 75.994s8.683-7.846 2.514-17.088c-6.17-9.242-17.647-5.611-17.647-5.611s-3.377-11.477-16.809-10.639c-13.431.838-12.593 16.53-12.593 16.53s-2.615-3.809-8.405-1.117c-4.19 1.954-1.955 8.962-1.955 8.962s-10.08.838-12.593 10.639c-2.768 10.74 3.63 15.97 6.449 17.367 2.793 1.397 5.332.838 5.332.838s-5.332 3.072-3.352 8.963c1.955 5.891 10.36 5.332 10.36 5.332l16.935 14.346 34.278-36.487-2.514-12.035z" fill="#FF7F2D"/><path d="M134.57 87.573c3.885.736 5.078 5.56 3.403 10.41-1.702 4.849-8.709 6.297-8.709 6.297l-1.473-14.295s2.895-3.149 6.779-2.412z" fill="#F9ACC0"/><path d="M90.518 98.668c-4.47.559-5.891 6.729-2.793 11.197 3.097 4.469 10.638 3.911 10.638 3.911s1.676 6.728 2.235 15.412c.558 8.683.558 7.287.558 7.287s4.774 4.189 14.295 2.234c9.522-1.955 8.963-6.449 8.963-6.449s-.279-1.397-1.396-5.053c-1.118-3.656-1.676-7.566-1.676-7.566s11.756-4.469 10.638-18.485c-1.117-14.015-5.89-23.537-5.89-23.537h-3.072s-.28 4.19-3.631 5.332c-3.352 1.143-7.846-1.955-7.846-1.955s-.559 5.053-5.611 7.008c-5.053 1.955-9.243 1.117-9.243 1.117s1.981 9.268-.558 12.061c0 0-1.117-3.072-5.611-2.514z" fill="#F9D2DD"/><path d="M131.066 98.592c0-.102 0-2.514.737-4.723.736-2.234 2.209-3.707 2.259-3.783.153-.152.381-.152.508 0 .153.153.153.381 0 .508-.025.025-1.396 1.422-2.082 3.504-.711 2.107-.711 4.469-.711 4.494a.347.347 0 0 1-.355.356.348.348 0 0 1-.356-.356zM97.195 109.815c-.025-.026-1.802-2.869-3.935-4.215-2.133-1.346-5.002-1.752-5.028-1.752-.228-.026-.38-.254-.355-.483.025-.228.254-.38.482-.355.127.025 3.047.457 5.333 1.879 2.285 1.447 4.113 4.342 4.189 4.469a.438.438 0 0 1-.127.584.292.292 0 0 1-.203.076.405.405 0 0 1-.356-.203zM104.686 95.8c.457-.585 1.091-1.093 1.828-1.346a3.49 3.49 0 0 1 1.142-.204 2.9 2.9 0 0 1 1.143.153c.736.228 1.396.761 1.625 1.447a4.542 4.542 0 0 0-1.828-.38c-.127 0-.28.025-.407.025-.126.025-.279.025-.406.076-.076.025-.127.025-.203.025l-.203.05c-.152.026-.254.077-.406.128a5.66 5.66 0 0 0-1.498.787c-.483.355-.965.762-1.498 1.27 0-.737.279-1.422.711-2.032zM121.164 90.848a3.365 3.365 0 0 1 1.828-1.193c.178-.026.381-.077.559-.102.178 0 .355-.025.533 0 .355 0 .711.076 1.041.178.33.101.66.28.939.508.127.126.254.254.356.38.102.153.203.305.228.483a3.05 3.05 0 0 0-.888-.229c-.279-.05-.559-.05-.838-.05-.279.025-.533.025-.813.076-.127 0-.279.05-.406.05l-.381.077c-.482.127-.939.33-1.396.635-.457.279-.914.66-1.422 1.117-.025-.686.228-1.371.66-1.93zM117.152 95.24c.305.305.559.66.813 1.016.254.356.457.762.609 1.193.026.127.076.204.102.33.025.127.051.254.051.407a1.7 1.7 0 0 1-.178.787c-.229.482-.584.812-.94 1.066a5.465 5.465 0 0 1-2.437.889c.736-.432 1.447-.863 2.006-1.397a2.52 2.52 0 0 0 .634-.863c.051-.152.077-.305.077-.431 0-.077 0-.153-.026-.229 0-.076-.051-.178-.076-.254a5.642 5.642 0 0 0-.508-1.04 8.65 8.65 0 0 0-.66-1.017c-.432-.71-.939-1.37-1.447-2.082a8.68 8.68 0 0 1 1.98 1.625z" fill="#1F1F39"/><path d="M123.017 103.162s2.235 7.288-.279 9.801c-2.514 2.514-8.988 2.92-10.639-1.676-1.65-4.595-1.117-5.611-1.117-5.611l12.035-2.514z" fill="#F95368"/><path d="M117.711 109.027a10.344 10.344 0 0 0-5.129 3.225c2.184 3.529 7.846 3.022 10.156.686.813-.787 1.117-2.082 1.194-3.453-1.549-.661-3.707-1.143-6.221-.458z" fill="#F9ACC0"/><path fill-rule="evenodd" clip-rule="evenodd" d="M129.153 100.635c-2.949.628-5.652-.331-6.037-2.141-.386-1.81 1.692-3.787 4.641-4.415 2.949-.628 5.652.33 6.037 2.14.386 1.811-1.692 3.788-4.641 4.416zM106.246 106.349c-2.949.628-5.652-.33-6.037-2.141-.386-1.81 1.692-3.787 4.641-4.415 2.949-.628 5.652.331 6.037 2.141.386 1.81-1.692 3.787-4.641 4.415z" fill="#F9ACC0"/><path d="M109.941 120.885c-.203-.127-.279-.381-.152-.584.127-.203.381-.279.559-.152.025.025 1.98 1.041 6.906.635 3.834-.305 6.221-1.879 6.246-1.879a.415.415 0 0 1 .584.127.415.415 0 0 1-.127.584c-.101.076-2.59 1.701-6.652 2.031-.813.051-1.574.076-2.235.076-3.605 0-5.052-.812-5.129-.838z" fill="#1F1F39"/><path fill-rule="evenodd" clip-rule="evenodd" d="M106.704 91.818c-1.446.835-3.032.792-3.544-.094-.512-.887.245-2.282 1.69-3.116 1.445-.835 3.032-.792 3.543.094.512.887-.244 2.282-1.689 3.116zM125.033 85.336c-.056 1.022-1.451 1.778-3.118 1.688-1.666-.09-2.972-.993-2.916-2.015.055-1.022 1.451-1.777 3.117-1.687 1.666.09 2.972.992 2.917 2.014z" fill="#1F1F39"/><path d="M132.006 75.994s8.683-7.846 2.514-17.088c-6.17-9.242-17.647-5.611-17.647-5.611s-3.377-11.477-16.809-10.639c-13.431.838-12.593 16.53-12.593 16.53s-2.615-3.809-8.405-1.117c-4.19 1.954-1.955 8.962-1.955 8.962s-10.08.838-12.593 10.639c-2.768 10.74 3.63 15.97 6.449 17.367 2.793 1.397 5.332.838 5.332.838s-5.332 3.072-3.352 8.963c1.955 5.891 10.36 5.332 10.36 5.332l16.935 14.346 34.278-36.487-2.514-12.035z" fill="#F99A3D"/><path d="M134.57 87.573c3.885.736 5.002 5.052 3.301 9.902-1.701 4.849-8.633 6.83-8.633 6.83l-1.447-14.32s2.895-3.149 6.779-2.412z" fill="#C43D28"/><path d="M90.518 98.668c-4.47.559-5.891 6.729-2.793 11.197 3.097 4.469 10.638 3.911 10.638 3.911s1.676 6.728 2.235 15.412c.558 8.683.558 7.287.558 7.287s4.774 4.189 14.295 2.234c9.522-1.955 8.963-6.449 8.963-6.449s-.279-1.397-1.396-5.053c-1.118-3.656-1.676-7.566-1.676-7.566s11.756-4.469 10.638-18.485c-1.117-14.015-6.398-25.822-6.398-25.822h-3.072s-.28 4.19-3.631 5.332c-3.352 1.143-7.846-1.955-7.846-1.955s-.558 5.053-5.611 7.008-9.242 1.117-9.242 1.117 2.488 11.553-.051 14.346c0 0-1.117-3.072-5.611-2.514z" fill="#DA5742"/><path d="M121.113 119.793c-8.379 3.301-10.918.762-10.918.762 3.073 8.379 8.201 9.978 14.016 10.816a78.03 78.03 0 0 0-1.193-4.113c-1.118-3.631-1.676-7.566-1.676-7.566M96.154 101.207s-1.117-3.072-5.611-2.513c-4.469.558-5.89 6.728-2.793 11.197 2.87 4.189 10.664 8.201 11.553 8.15.228-1.599-1.93-14.904-2.844-17.265-.102.152-.203.304-.305.431z" fill="#C43D28"/><path d="M131.066 98.592c0-.102 0-2.514.737-4.723.736-2.234 2.209-3.707 2.259-3.783.153-.152.381-.152.508 0 .153.153.153.381 0 .508-.025.025-1.396 1.422-2.082 3.504-.711 2.107-.711 4.469-.711 4.494a.347.347 0 0 1-.355.356.348.348 0 0 1-.356-.356zM97.195 109.815c-.025-.026-1.802-2.869-3.935-4.215-2.133-1.346-5.002-1.752-5.028-1.752-.228-.026-.38-.254-.355-.483.025-.228.254-.38.482-.355.127.025 3.047.457 5.333 1.879 2.285 1.447 4.113 4.342 4.189 4.469a.438.438 0 0 1-.127.584.292.292 0 0 1-.203.076.405.405 0 0 1-.356-.203zM104.686 95.8c.457-.585 1.091-1.093 1.828-1.346a3.49 3.49 0 0 1 1.142-.204 2.9 2.9 0 0 1 1.143.153c.736.228 1.396.761 1.625 1.447a4.542 4.542 0 0 0-1.828-.38c-.127 0-.28.025-.407.025-.126.025-.279.025-.406.076-.076.025-.127.025-.203.025l-.203.05c-.152.026-.254.077-.406.128a5.66 5.66 0 0 0-1.498.787c-.483.355-.965.762-1.498 1.27 0-.737.279-1.422.711-2.032zM121.164 90.848a3.365 3.365 0 0 1 1.828-1.193c.178-.026.381-.077.559-.102.178 0 .355-.025.533 0 .355 0 .711.076 1.041.178.33.101.66.28.939.508.127.126.254.254.356.38.102.153.203.305.228.483a3.05 3.05 0 0 0-.888-.229c-.279-.05-.559-.05-.838-.05-.279.025-.533.025-.813.076-.127 0-.279.05-.406.05l-.381.077c-.482.127-.939.33-1.396.635-.457.279-.914.66-1.422 1.117-.025-.686.228-1.371.66-1.93zM117.152 95.24c.305.305.559.66.813 1.016.254.356.457.762.609 1.193.026.127.076.204.102.33.025.127.051.254.051.407a1.7 1.7 0 0 1-.178.787c-.229.482-.584.812-.94 1.066a5.465 5.465 0 0 1-2.437.889c.736-.432 1.447-.863 2.006-1.397a2.52 2.52 0 0 0 .634-.863c.051-.152.077-.305.077-.431 0-.077 0-.153-.026-.229 0-.076-.051-.178-.076-.254a5.642 5.642 0 0 0-.508-1.04 8.65 8.65 0 0 0-.66-1.017c-.432-.71-.939-1.37-1.447-2.082a8.68 8.68 0 0 1 1.98 1.625z" fill="#1F1F39"/><path d="M123.017 103.162s2.235 7.288-.279 9.801c-2.514 2.514-8.988 2.92-10.639-1.676-1.65-4.595-1.117-5.611-1.117-5.611l12.035-2.514z" fill="#fff"/><path d="M117.711 109.027a10.344 10.344 0 0 0-5.129 3.225c2.184 3.529 7.846 3.022 10.156.686.813-.787 1.117-2.082 1.194-3.453-1.549-.661-3.707-1.143-6.221-.458z" fill="#F9D2DD"/><path fill-rule="evenodd" clip-rule="evenodd" d="M129.153 100.635c-2.949.628-5.652-.331-6.037-2.141-.386-1.81 1.692-3.787 4.641-4.415 2.949-.628 5.652.33 6.037 2.14.386 1.811-1.692 3.788-4.641 4.416zM106.246 106.349c-2.949.628-5.652-.33-6.037-2.141-.386-1.81 1.692-3.787 4.641-4.415 2.949-.628 5.652.331 6.037 2.141.386 1.81-1.692 3.787-4.641 4.415z" fill="#C43D28"/><path d="M109.941 120.987a.389.389 0 0 1-.152-.559.418.418 0 0 1 .559-.178c.025.026 1.98 1.016 6.906.559 1.346-.127 2.666-.508 3.936-1.092.203-.101.457 0 .558.203.102.203 0 .457-.203.559-1.346.635-2.768 1.041-4.215 1.168-.965.076-1.828.127-2.564.127-3.352 0-4.748-.737-4.825-.787z" fill="#1F1F39"/><path fill-rule="evenodd" clip-rule="evenodd" d="M106.704 91.818c-1.446.835-3.032.792-3.544-.094-.512-.887.245-2.282 1.69-3.116 1.445-.835 3.032-.792 3.543.094.512.887-.244 2.282-1.689 3.116zM125.033 85.336c-.056 1.022-1.451 1.778-3.118 1.688-1.666-.09-2.972-.993-2.916-2.015.055-1.022 1.451-1.777 3.117-1.687 1.666.09 2.972.992 2.917 2.014z" fill="#fff"/><path fill-rule="evenodd" clip-rule="evenodd" d="M114.385 196.219v-.508c1.041.025 2.031.025 3.047 0v.508H114.385zm6.094-.584c.99-.026 2.005-.051 3.046-.102l.026.508c-1.041.051-2.082.076-3.047.102l-.025-.508zm-12.188.33.025-.508c1.041.051 2.082.102 3.047.152l-.025.508a65.784 65.784 0 0 1-3.047-.152zm18.281-.584c.99-.051 2.006-.127 3.047-.178l.026.508c-1.041.076-2.057.127-3.047.178l-.026-.508zm-24.375.178.051-.508c.99.076 2.006.152 3.047.228l-.051.508a833.996 833.996 0 0 1-3.047-.228zm30.444-.559a90.805 90.805 0 0 0 3.047-.254l.05.508c-.965.076-1.98.178-3.047.254l-.05-.508zm-36.537.051.05-.508c.94.076 1.955.178 3.047.279l-.05.508c-1.067-.102-2.108-.178-3.047-.279zm42.605-.584c1.193-.102 2.209-.229 3.021-.305l.051.508c-.787.101-1.828.203-3.021.305l-.051-.508zm-48.547-.026h-.102v-.507h.153s1.117.127 2.92.304l-.076.508c-1.676-.178-2.768-.305-2.895-.305zm54.615-.584a6.069 6.069 0 0 0 2.692-1.066l.304.406a6.228 6.228 0 0 1-2.919 1.168l-.077-.508zm-60.1-2.336.432-.279a6.367 6.367 0 0 0 2.159 1.955l-.254.432a6.642 6.642 0 0 1-2.336-2.108zm64.696-.888a6.007 6.007 0 0 0 .686-2.819h.507a6.743 6.743 0 0 1-.736 3.047l-.457-.228zm-65.838-2.819v-.025l.33-2.26.508.076-.33 2.235c0 .228.025.482.05.711l-.507.051a8.204 8.204 0 0 1-.05-.788zm65.965-3.91.508-.076.431 3.022-.507.076-.432-3.022zm-65.203-1.422.431-3.021.508.076-.431 3.022-.508-.077zm64.314-4.595.508-.076.432 3.021-.508.076-.432-3.021zm-63.425-1.422.431-3.022.508.076-.432 3.022-.507-.076zm62.537-4.621.507-.076.432 3.021-.508.076-.431-3.021zm-61.649-1.397.432-3.021.508.076-.432 3.021-.508-.076zm60.76-4.621.508-.076.431 3.021-.507.077-.432-3.022zm-59.947-1.422a6.476 6.476 0 0 1 1.142-2.92l.407.28a6.252 6.252 0 0 0-1.042 2.716l-.507-.076zm57.662-3.834.33-.381a6.696 6.696 0 0 1 1.853 2.514l-.457.203a6.23 6.23 0 0 0-1.726-2.336zm-29.86.33v-.507c1.041.025 2.057.025 3.047.025v.508H117c-.762 0-1.523 0-2.311-.026zm6.12-.533c1.015-.025 2.031-.051 3.046-.101l.026.507c-1.041.051-2.082.077-3.072.102v-.508zm-12.213.279.025-.507c1.041.05 2.057.127 3.047.152l-.025.508c-.991-.051-2.006-.102-3.047-.153zm18.281-.533c1.016-.051 2.031-.127 3.047-.203l.051.508c-1.041.076-2.057.152-3.073.203l-.025-.508zm-24.375.076.051-.507c1.015.101 2.031.177 3.047.254l-.051.507a120.276 120.276 0 0 1-3.047-.254zm30.418-.558a92.662 92.662 0 0 0 3.021-.33l.051.508c-.939.127-1.98.228-3.021.33l-.051-.508zm-36.512-.102.051-.508c.99.127 2.006.229 3.022.356l-.026.508a112.922 112.922 0 0 1-3.047-.356zm-6.017-.127a6.69 6.69 0 0 1 3.046-.761v.507c-.99 0-1.955.254-2.818.711l-.228-.457zm48.572-.508c1.041-.152 1.599-.253 1.599-.253h.051c.483 0 .991.05 1.448.152l-.102.508a5.835 5.835 0 0 0-1.32-.153c-.102.026-.66.127-1.6.254l-.076-.508zM93.97 192.309a5.994 5.994 0 0 1-5.94-5.993v-.076l2.818-19.271a5.993 5.993 0 0 1 5.992-5.942h.076c.102.026 10.486 1.524 20.084 1.524 11.629 0 20.084-1.498 20.16-1.524h.102c3.275 0 5.967 2.666 5.992 5.942l2.818 19.297v.025a5.992 5.992 0 0 1-5.941 5.992c-.711.102-13.203 1.549-24.045 1.549-8.557 0-21.404-1.447-22.115-1.523zm.052-1.016h.05c.127.025 13.305 1.523 22.014 1.523 11.019 0 23.816-1.498 23.943-1.523h.051c2.717 0 4.951-2.209 4.977-4.926l-2.819-19.297v-.025c0-2.717-2.209-4.951-4.926-4.977-.71.127-9.039 1.524-20.312 1.524-9.369 0-19.475-1.422-20.186-1.524a4.975 4.975 0 0 0-4.925 4.977v.076l-2.844 19.246a4.974 4.974 0 0 0 4.977 4.926z" fill="#EAEAFF"/></g></svg>