<svg width="260" height="260" fill="none" xmlns="http://www.w3.org/2000/svg"><mask id="a" style="mask-type:alpha" maskUnits="userSpaceOnUse" x="0" y="0" width="260" height="260"><path fill="#fff" d="M0 0h260v260H0z"/></mask><g mask="url(#a)"><path fill-rule="evenodd" clip-rule="evenodd" d="M200 0c33.137 0 60 26.863 60 60v140c0 33.137-26.863 60-60 60H60c-33.137 0-60-26.863-60-60V60C0 26.863 26.863 0 60 0h140z" fill="#fff"/><path fill-rule="evenodd" clip-rule="evenodd" d="M175.166 25a.51.51 0 0 0-.508.508c0 .28.229.508.508.508h3.022a.509.509 0 0 0 0-1.016h-3.022zm-6.068 0a.509.509 0 0 0 0 1.016h3.021a.51.51 0 0 0 .508-.508.51.51 0 0 0-.508-.508h-3.021zm-6.069 0a.51.51 0 0 0-.508.508c0 .28.229.508.508.508h3.022a.51.51 0 0 0 .508-.508.51.51 0 0 0-.508-.508h-3.022zm-6.068 0a.51.51 0 0 0-.508.508c0 .28.229.508.508.508h3.021a.509.509 0 0 0 0-1.016h-3.021zm-6.043 0a.51.51 0 0 0-.508.508c0 .28.229.508.508.508h3.021c.28 0 .508-.229.508-.508-.025-.28-.228-.508-.508-.508h-3.021zm-6.094 0a.51.51 0 0 0-.508.508c0 .28.229.508.508.508h3.047a.51.51 0 0 0 .508-.508.51.51 0 0 0-.508-.508h-3.047zm-6.043 0a.51.51 0 0 0-.508.508c0 .28.229.508.508.508h3.022a.51.51 0 0 0 .508-.508.51.51 0 0 0-.508-.508h-3.022zm-6.068 0a.51.51 0 0 0-.508.508c0 .28.229.508.508.508h3.021a.509.509 0 0 0 0-1.016h-3.021zm-6.043 0a.51.51 0 0 0-.508.508c0 .28.229.508.508.508h3.021c.28 0 .508-.229.508-.508-.025-.28-.228-.508-.508-.508h-3.021zm-6.068 0a.509.509 0 0 0 0 1.016h3.021a.51.51 0 0 0 .508-.508.51.51 0 0 0-.508-.508h-3.021zm-6.069 0a.51.51 0 0 0-.508.508c0 .28.229.508.508.508h3.022a.509.509 0 0 0 0-1.016h-3.022zm-6.068 0a.51.51 0 0 0-.508.508c0 .28.229.508.508.508h3.021a.509.509 0 0 0 0-1.016h-3.021zm-6.043 0a.51.51 0 0 0-.508.508c0 .28.229.508.508.508h3.021c.28 0 .508-.229.508-.508-.025-.28-.254-.508-.508-.508h-3.021zm-6.094 0a.51.51 0 0 0-.508.508c0 .28.229.508.508.508h3.047a.51.51 0 0 0 .508-.508.51.51 0 0 0-.508-.508h-3.047zm-6.043 0a.51.51 0 0 0-.508.508c0 .28.229.508.508.508h3.022a.51.51 0 0 0 .507-.508.51.51 0 0 0-.507-.508h-3.022zm-4.951 0h-.279c-.077 0-.153.025-.229.025a.512.512 0 0 0-.457.559.52.52 0 0 0 .508.457h.05c.33-.025.686-.05 1.042-.05h1.904a.51.51 0 0 0 .508-.509c-.635-.253-.863-.482-1.143-.482h-1.904zm-4.037.787c-.94.381-1.828.889-2.615 1.524-.229.177-.254.482-.076.71a.53.53 0 0 0 .406.204c.101 0 .228-.026.304-.102.737-.559 1.524-1.041 2.362-1.371a.515.515 0 0 0-.203-.99c-.051 0-.127 0-.178.025zm-4.723 3.682c-.28.38-.533.787-.787 1.218v.28c-.102.203-.178.431-.254.635-.101.253.051.558.305.66.05.025.127.025.178.025a.52.52 0 0 0 .482-.33c.305-.863.762-1.676 1.295-2.412a.52.52 0 0 0-.102-.711c-.507.482-.609.432-.71.432a.53.53 0 0 0-.407.203zm-2.056 5.611v2.818c0 .28.228.508.507.508a.51.51 0 0 0 .508-.508v-2.285c0-.228 0-.457.026-.685.025-.28-.203-.508-.457-.533-.051.228-.077.228-.077.228a.52.52 0 0 0-.507.457zm-.026 6.094v3.021c0 .28.229.508.508.508a.51.51 0 0 0 .508-.508v-3.021a.51.51 0 0 0-.508-.508.51.51 0 0 0-.508.508zm0 6.068v3.022c0 .279.229.508.508.508a.51.51 0 0 0 .508-.508v-3.022a.494.494 0 0 0-.508-.508.51.51 0 0 0-.508.508zm0 6.043v3.022c0 .279.229.507.508.507a.51.51 0 0 0 .508-.507v-3.022a.51.51 0 0 0-.508-.508.51.51 0 0 0-.508.508zm0 6.069v3.021c0 .28.229.508.508.508a.51.51 0 0 0 .508-.508v-3.022a.51.51 0 0 0-.508-.507.51.51 0 0 0-.508.508zm0 6.068v3.021c0 .28.229.508.508.508a.51.51 0 0 0 .508-.508v-3.021a.51.51 0 0 0-.508-.508.51.51 0 0 0-.508.508zm0 6.068v3.022c0 .279.229.507.508.507a.51.51 0 0 0 .508-.507v-3.047a.51.51 0 0 0-1.016.025zm0 6.043v3.022c0 .279.229.507.508.507a.51.51 0 0 0 .508-.507v-3.022a.51.51 0 0 0-.508-.508.51.51 0 0 0-.508.508zm0 6.069v3.021c0 .28.229.508.508.508a.51.51 0 0 0 .508-.508v-3.021a.51.51 0 0 0-.508-.508.51.51 0 0 0-.508.508zm0 6.068V91.904c0 .077 0 .153.026.229a.52.52 0 0 0 .507.457h.051a.489.489 0 0 0 .457-.533c-.025-.254-.025-.508-.025-.788v-2.183c0 .305-.229.076-.508.076a.51.51 0 0 0-.508.508zm.99 5.307c-.254.101-.38.38-.304.66.05.152.127.33.203.482V96.195l.025.026.026.025s0 .026.025.026a.53.53 0 0 0 .406.203.488.488 0 0 0 .305-.102c.228-.178.28-.482.101-.71a9.69 9.69 0 0 1-1.32-2.413c1.092 1.828.914 1.701.711 1.701-.05 0-.127 0-.178.026zm3.174 4.773c-.178.228-.127.533.102.711.076.051.152.101.228.178l.026.025.025.025H79.14c.38.204.787.407 1.218.559.051.025.127.025.178.025.203 0 .381-.127.483-.33a.515.515 0 0 0-.28-.66 9.614 9.614 0 0 1-2.386-1.346c.914.635.812.61.71.61a.53.53 0 0 0-.406.203zm5.205 2.336a.513.513 0 0 0 .457.559h.026c.254.025.533.025.787.05h2.082c.28 0 .508-.228.508-.507a.509.509 0 0 0-.508-.508h-2.006c-.305 0-.635-.026-.94-.051h.102a.52.52 0 0 0-.508.457zm6.526-.406a.509.509 0 0 0-.508.508c0 .279.228.507.508.507h3.021c.28 0 .508-.228.508-.507a.509.509 0 0 0-.508-.508h-3.021zm6.068 0a.509.509 0 0 0-.508.508c0 .279.229.507.508.507h3.022c.279 0 .507-.228.507-.507a.509.509 0 0 0-.507-.508h-3.022zm6.068 0a.509.509 0 0 0 0 1.015h3.022a.51.51 0 0 0 .508-.507c-.026-.28-.229-.508-.508-.508h-3.022zm6.043 0a.509.509 0 0 0 0 1.015h3.022a.51.51 0 0 0 .508-.507.51.51 0 0 0-.508-.508h-3.022zm6.069 0a.509.509 0 0 0 0 1.015h3.021a.509.509 0 0 0 0-1.015h-3.021zm6.068 0a.51.51 0 0 0-.508.508.51.51 0 0 0 .508.507h3.022a.508.508 0 0 0 0-1.015h-3.022zm6.068 0a.509.509 0 0 0 0 1.015h3.022a.51.51 0 0 0 .508-.507.51.51 0 0 0-.508-.508h-3.022zm6.043 0a.509.509 0 0 0 0 1.015h3.022a.51.51 0 0 0 .508-.507.51.51 0 0 0-.508-.508h-3.022zm6.069 0a.51.51 0 0 0-.508.508.51.51 0 0 0 .508.507h3.021a.509.509 0 0 0 0-1.015h-3.021zm6.068 0a.51.51 0 0 0-.508.508.51.51 0 0 0 .508.507h3.022a.508.508 0 0 0 0-1.015h-3.022zm6.069 0a.509.509 0 0 0 0 1.015h3.021a.51.51 0 0 0 .508-.507.51.51 0 0 0-.508-.508h-3.021zm6.042 0a.509.509 0 0 0 0 1.015h3.022a.51.51 0 0 0 .508-.507.51.51 0 0 0-.508-.508h-3.022zm6.069 0a.51.51 0 0 0-.508.508.51.51 0 0 0 .508.507h3.021a.509.509 0 0 0 0-1.015h-3.021zm6.068 0a.51.51 0 0 0-.508.508.51.51 0 0 0 .508.507h3.022a.51.51 0 0 0 .508-.507.51.51 0 0 0-.508-.508h-3.022zm6.069 0a.509.509 0 0 0 0 1.015h3.021a.51.51 0 0 0 .508-.507.51.51 0 0 0-.508-.508h-3.021zm8.962 0h-2.919a.509.509 0 0 0 0 1.015H184.281c.28 0 .508-.228.483-.507.076-.28-.153-.508-.432-.508h-.102zm5.282-1.549c-.787.508-1.6.889-2.489 1.142a.477.477 0 0 0-.33.635.489.489 0 0 0 .483.356c.051 0 .101 0 .152-.026a10.201 10.201 0 0 0 1.955-.812H189.385c.152-.102.33-.203.482-.305a.496.496 0 0 0 .153-.685c.101-.305-.051-.381-.229-.381a.572.572 0 0 0-.279.076zm3.605-4.088a9.966 9.966 0 0 1-1.523 2.285c-.178.203-.178.533.051.711a.534.534 0 0 0 .33.127c.152 0 .279-.05.38-.178.661-.761 1.219-1.6 1.676-2.513a.508.508 0 0 0-.228-.686c-.076 0-.153-.025-.229-.025-.178 0-.381.101-.457.279zm.965-5.459v1.244c0 .533-.051 1.092-.127 1.625a.514.514 0 0 0 .406.584h.077a.516.516 0 0 0 .507-.431c.076-.458.127-.915.127-1.372V90.89c.026-.584-.203-.813-.482-.813a.51.51 0 0 0-.508.508zm0-6.043v3.022c0 .279.229.507.508.507a.51.51 0 0 0 .508-.507V84.54a.51.51 0 0 0-.508-.508.51.51 0 0 0-.508.508zm0-6.068v3.021c0 .28.229.508.508.508a.51.51 0 0 0 .508-.508v-3.021a.51.51 0 0 0-.508-.508.51.51 0 0 0-.508.508zm0-6.069v3.022c0 .28.229.508.508.508a.51.51 0 0 0 .508-.508v-3.022a.51.51 0 0 0-.508-.507.51.51 0 0 0-.508.507zm0-6.068v3.021c0 .28.229.508.508.508a.51.51 0 0 0 .508-.508v-3.021a.51.51 0 0 0-.508-.508.51.51 0 0 0-.508.508zm0-6.043v3.022c0 .279.229.507.508.507a.51.51 0 0 0 .508-.508v-3.021a.51.51 0 0 0-.508-.508.51.51 0 0 0-.508.508zm0-6.068v3.021c0 .28.229.508.508.508a.51.51 0 0 0 .508-.508v-3.021a.51.51 0 0 0-.508-.508.51.51 0 0 0-.508.508zm0-6.069v3.022c0 .279.229.508.508.508a.51.51 0 0 0 .508-.508v-3.022a.51.51 0 0 0-.508-.508.51.51 0 0 0-.508.508zm0-6.068v3.021c0 .28.229.508.508.508a.51.51 0 0 0 .508-.508v-3.021a.51.51 0 0 0-.508-.508.51.51 0 0 0-.508.508zm0-6.043v3.021c0 .28.229.508.508.508a.51.51 0 0 0 .508-.508v-3.021a.51.51 0 0 0-.508-.508.51.51 0 0 0-.508.508zm-1.244-5.942a.528.528 0 0 0-.178.686c.483.787.838 1.625 1.092 2.514a.49.49 0 0 0 .482.38c.051 0 .077 0 .127-.025a.492.492 0 0 0 .356-.61c-.051-.177-.102-.38-.178-.558v-.127c0-.025 0-.025-.025-.05a11.409 11.409 0 0 0-.838-1.778V30.484c-.229-.38-.406-.457-.584-.457a.428.428 0 0 0-.254.076zm-4.367-3.707a.508.508 0 0 0 .228.686c.813.406 1.574.94 2.235 1.574a.473.473 0 0 0 .355.127c.127 0 .279-.05.381-.152.178-.203.178-.533-.025-.711a10.625 10.625 0 0 0-1.016-.838l-.025-.025-.026-.026-.025-.025-.026-.026-.025-.025h-.127l-.152-.076c-1.143-.736-1.219-.762-1.295-.762a.534.534 0 0 0-.457.28zM181.209 25a.51.51 0 0 0-.508.508c0 .28.229.508.508.508h3.021c.635 0 1.245.05 1.854.177h.102a.54.54 0 0 0 .507-.406.495.495 0 0 0-.406-.584 10.679 10.679 0 0 0-1.574-.178h-.178c-.279-.025-.279-.025-.305-.025.026 0 .026 0 0 0 .026 0 .026 0 0 0 .026 0 .026 0 0 0 .026 0 .026 0 0 0h-3.021z" fill="#EAEAFF"/><path fill-rule="evenodd" clip-rule="evenodd" d="M195.098 36.984v.432H74.492v-.432h120.606z" fill="#fff"/><path d="M86.045 91.777a2.6 2.6 0 0 1-2.59-2.59v-38.06a2.6 2.6 0 0 1 2.59-2.59h1.371a2.6 2.6 0 0 1 2.59 2.59v38.035c0 1.447-1.168 2.615-2.59 2.615h-1.371zM98.055 91.777a2.146 2.146 0 0 1-2.133-2.133V64.787c0-1.168.965-2.133 2.133-2.133h2.285c1.168 0 2.133.965 2.133 2.133v24.857c-.026 1.168-.965 2.133-2.133 2.133h-2.285zM110.953 91.777a2.6 2.6 0 0 1-2.59-2.59v-38.06a2.6 2.6 0 0 1 2.59-2.59h1.371a2.6 2.6 0 0 1 2.59 2.59v38.035c0 1.447-1.168 2.615-2.59 2.615h-1.371zM123.928 91.777a2.238 2.238 0 0 1-2.235-2.234V61.715a2.238 2.238 0 0 1 2.235-2.235h2.056a2.238 2.238 0 0 1 2.235 2.235v27.828c.025 1.219-.99 2.234-2.235 2.234h-2.056zM135.988 91.777a1.864 1.864 0 0 1-1.853-1.853V71.846c0-1.016.838-1.854 1.853-1.854h2.869c1.016 0 1.854.838 1.854 1.854v18.078c-.025 1.015-.838 1.853-1.854 1.853h-2.869zM148.836 91.777a2.237 2.237 0 0 1-2.234-2.234V61.715a2.237 2.237 0 0 1 2.234-2.235h2.057a2.237 2.237 0 0 1 2.234 2.235v27.828c.025 1.219-.99 2.234-2.234 2.234h-2.057zM85.46 25c-6.042 0-10.968 4.824-10.968 10.74v1.447h120.606V35.74c0-5.916-4.926-10.74-10.969-10.74H85.461z" fill="#EAEAFF"/><path fill-rule="evenodd" clip-rule="evenodd" d="M168.539 32.693c-.911 0-1.65-.716-1.65-1.6 0-.883.739-1.599 1.65-1.599.912 0 1.65.716 1.65 1.6 0 .883-.738 1.6-1.65 1.6z" fill="#FF8870"/><path fill-rule="evenodd" clip-rule="evenodd" d="M175.979 32.693c-.912 0-1.651-.716-1.651-1.6 0-.883.739-1.599 1.651-1.599.911 0 1.65.716 1.65 1.6 0 .883-.739 1.6-1.65 1.6z" fill="#FFD301"/><path fill-rule="evenodd" clip-rule="evenodd" d="M183.418 32.693c-.912 0-1.65-.716-1.65-1.6 0-.883.738-1.599 1.65-1.599.911 0 1.65.716 1.65 1.6 0 .883-.739 1.6-1.65 1.6z" fill="#54CDA2"/><path d="M190.883 118.691a6.458 6.458 0 0 1-6.449-6.449V73.598a6.458 6.458 0 0 1 6.449-6.45h51.34a6.459 6.459 0 0 1 6.449 6.45v38.644a6.458 6.458 0 0 1-6.449 6.449h-51.34z" fill="#EAEAFF"/><path fill-rule="evenodd" clip-rule="evenodd" d="M248.672 80.123v.457h-64.238v-.457h64.238z" fill="#fff"/><path fill-rule="evenodd" clip-rule="evenodd" d="M223.662 75.781a1.904 1.904 0 1 1 0-3.807 1.904 1.904 0 0 1 0 3.807z" fill="#FF8870"/><path fill-rule="evenodd" clip-rule="evenodd" d="M232.295 75.781a1.904 1.904 0 1 1 0-3.807 1.904 1.904 0 0 1 0 3.807z" fill="#FFD301"/><path fill-rule="evenodd" clip-rule="evenodd" d="M240.928 75.781a1.905 1.905 0 1 1 0-3.81 1.905 1.905 0 0 1 0 3.81z" fill="#54CDA2"/><path d="M220.26 98.379a.845.845 0 0 1-.711-1.295l5.205-8.15c.127-.203.076-.483-.127-.584-2.031-1.194-4.469-1.778-7.033-1.55-5.434.509-9.826 4.8-10.461 10.208-.813 7.058 4.697 13.051 11.603 13.051 6.297 0 11.452-4.977 11.68-11.223-.025-.254-.203-.457-.457-.457h-9.699z" fill="#fff"/><path d="M73.705 175.643c9.7-17.012 20.236-28.057 26.711-32.932 6.475-4.85 13.178-8.15 13.178-8.15l-5.612 49.714-15.64 49.461-31.586.203s3.25-41.285 12.95-58.296z" fill="#F9D2DD"/><path d="m104.199 196.209 3.783-11.934 3.606-31.814-4.342-14.32c-.101.05-.203.127-.279.177.051 4.215-.432 18.307-8.125 30.317-6.754 10.537-20.846 12.441-27.778 12.695-.203.457-.406.939-.583 1.397l33.718 13.482z" fill="#F9ACC0"/><path d="M94.78 188.871s7.82-4.596 12.136-24.832c2.488-11.68 0-26.178 0-26.178s16.453-9.724 33.465-8.912c17.012.813 29.681 4.85 29.681 4.85s-1.091 8.353-1.091 25.644c0 17.291 7.566 35.903 7.566 35.903l-1.219 38.593H89.346l5.433-45.068z" fill="#3D5CFF"/><path d="m132.941 178.359-3.63 36.436 46.312-12.264-25.797-3.935-16.885-20.237z" fill="#224BF4"/><path fill-rule="evenodd" clip-rule="evenodd" d="M113.924 134.611v97.17h-.533v-97.17h.533zM125.654 130.549v101.232h-.533V130.549h.533zM137.41 134.611v97.17h-.533v-97.17h.533zM149.141 134.611v97.17h-.534v-97.17h.534zM160.871 131.64v100.141h-.533V131.64h.533z" fill="#fff"/><path d="M169.047 31.12c-1.854 1.446-2.082 3.757-2.031 5.153-3.174-1.117-7.135-.812-10.436 1.676-3.859 2.92-3.402 7.44-2.92 9.573-5.129-.407-10.537 1.498-12.594 5.586-1.421 2.843-1.701 6.068-1.65 8.556-13.152-.965-24.197 7.338-25.848 19.297-1.65 11.959 4.469 18.814 4.469 18.814l24.908 7.338s10.817.737 16.453-4.392c5.637-5.13 9.167-17.114 4.926-26.889-1.193-2.767-3.275-5.103-5.687-7.16 1.345-1.346 2.92-3.123 4.291-5.053 1.777-2.564 2.285-6.094 1.193-9.191 1.295-.178 3.022-.635 5.154-1.803 3.657-1.98 4.596-6.12 3.707-9.7.965.026 2.184-.025 3.581-.304 3.529-.762 4.951-5.154 2.589-9.547-2.361-4.392-7.287-4.164-10.105-1.955z" fill="#1F1F39"/><path d="M115.549 93.352c-4.317 1.879-4.037 10.257 2.158 12.949 6.195 2.691 9.725.533 9.725.533l-4.875-13.482s-2.692-1.88-7.008 0z" fill="#F9ACC0"/><path d="m122.887 105.869-2.082-4.316c-2.006-4.164-4.723-5.535-4.748-5.535-.127-.051-.178-.204-.127-.33.05-.127.203-.178.33-.127.127.05 2.92 1.421 5.002 5.789l2.082 4.316c.05.127 0 .279-.127.33-.026 0-.076.025-.102.025-.101 0-.178-.05-.228-.152z" fill="#1F1F39"/><path d="M118.545 91.067c.127 2.666.762 12.289 3.758 17.367 2.869 4.875 6.855 6.83 8.175 7.388.28.127.457.381.432.686-.076 1.904-.381 8.607-1.066 11.349-.61 2.463-1.219 4.444-1.498 5.256a.727.727 0 0 0 .177.737c1.092 1.091 5.282 3.173 12.112 3.173 6.754 0 10.41-1.675 11.705-2.437a.755.755 0 0 0 .355-.762c-.381-1.98-1.803-9.547-1.803-13.279 0-3.555.356-8.557.483-10.232a.728.728 0 0 1 .584-.661c2.209-.406 10.461-2.412 9.978-9.902-.457-7.516-7.261-6.855-9.013-6.55a.723.723 0 0 0-.559.482c-.305.863-1.066 3.047-1.473 4.748-.203.761-1.294.71-1.396-.076a19.01 19.01 0 0 1-.203-2.616c0-1.218.127-2.03.279-2.539a.708.708 0 0 0-.533-.863c-1.93-.457-6.881-2.031-9.445-6.322-1.498-2.489-2.311-4.367-2.743-5.637-.203-.61-1.041-.66-1.32-.076-.965 1.955-2.945 4.824-6.728 6.805-4.748 2.488-8.227 3.097-9.623 3.224-.381.05-.661.356-.635.737zM193.041 156.752c6.195 13.762 8.938 42.758 8.354 53.168-.559 9.724-4.063 20.769-15.666 23.207-11.579 2.437-53.422 0-53.422 0V205.35l40.752-2.692-3.225-18.611s-4.037-18.358-2.691-32.373c1.32-14.067 2.412-17.85 2.412-17.85s14.904 3.885 23.486 22.928z" fill="#F9D2DD"/><path d="M138.426 90.635a2.868 2.868 0 0 1 2.285-.102c.254.076.482.203.685.381.407.33.686.863.61 1.346a1.713 1.713 0 0 0-.813-1.041c-.38-.203-.812-.305-1.269-.356-.457-.025-.889 0-1.32.153-.432.152-.838.38-1.194.71.178-.456.559-.837 1.016-1.091zM123.928 90.762c.381-.33.888-.584 1.422-.61.254-.025.533 0 .787.076.254.102.508.23.711.407.406.38.584.888.584 1.37-.203-.43-.483-.837-.838-1.066a1.708 1.708 0 0 0-.584-.253c-.102 0-.203-.051-.305-.051h-.305a2.441 2.441 0 0 0-1.218.431 4.17 4.17 0 0 0-1.067.94c.153-.483.432-.914.813-1.244zM131.799 95.154c-.127.356-.254.686-.356 1.041-.101.356-.203.686-.279 1.041-.076.33-.127.711-.076.99.025.153.076.28.178.407.05.076.076.127.152.178l.076.076.102.076c.254.203.584.33.939.406a7.56 7.56 0 0 0 1.092.152c-.355.102-.736.127-1.117.102a2.576 2.576 0 0 1-1.117-.33 1.556 1.556 0 0 1-.737-.99c-.076-.432-.025-.813.051-1.194.152-.761.432-1.447.762-2.132.279-.635.66-1.295 1.092-1.905l-.762 2.082z" fill="#1F1F39"/><path fill-rule="evenodd" clip-rule="evenodd" d="M125.807 98.531c-1.038 0-1.879-.977-1.879-2.183s.841-2.184 1.879-2.184c1.037 0 1.879.978 1.879 2.184 0 1.206-.842 2.183-1.879 2.183zM139.289 98.531c-1.038 0-1.879-.977-1.879-2.183s.841-2.184 1.879-2.184 1.879.978 1.879 2.184c0 1.206-.841 2.183-1.879 2.183z" fill="#1F1F39"/><path d="M142.184 204.562v28.565s9.039.533 19.88.838l-9.75-30.063-10.13.66z" fill="#F9ACC0"/><path fill-rule="evenodd" clip-rule="evenodd" d="M136.064 106.606c-1.037 0-1.878-.978-1.878-2.184 0-1.206.841-2.184 1.878-2.184 1.038 0 1.879.978 1.879 2.184 0 1.206-.841 2.184-1.879 2.184z" fill="#F95368"/><path d="M60.223 233.686c-1.98 0-4.215-1.625-4.926-3.631l-10.283-56.393c-.737-1.98.304-3.631 2.31-3.631h90.746c1.981 0 4.215 1.625 4.926 3.631l10.283 56.393c.737 2.006-.304 3.631-2.31 3.631H60.223z" fill="#EAEAFF"/><path fill-rule="evenodd" clip-rule="evenodd" d="M98 206a6 6 0 1 1 0-12 6 6 0 0 1 0 12z" fill="#fff"/><g opacity=".635" fill-rule="evenodd" clip-rule="evenodd" fill="#F9ACC0"><path opacity=".635" d="M143.986 106.377c-3.113 0-5.636-1.546-5.636-3.453 0-1.907 2.523-3.453 5.636-3.453s5.637 1.546 5.637 3.453c0 1.907-2.524 3.453-5.637 3.453zM124.004 106.378c-3.113 0-5.637-1.546-5.637-3.453 0-1.907 2.524-3.453 5.637-3.453 3.113 0 5.637 1.546 5.637 3.453 0 1.907-2.524 3.453-5.637 3.453z"/></g><path d="M137.359 117.143a51.393 51.393 0 0 1-6.576-1.016.857.857 0 0 1 .127.432c-.051 1.599-.279 6.525-.762 9.699 2.438-.508 7.008-1.727 9.674-4.012 3.783-3.25 5.408-5.687 5.408-5.687s-4.138.888-7.871.584z" fill="#F9ACC0"/><path d="M130.834 116.254c-.127-.051-.203-.203-.127-.33.051-.127.203-.203.33-.127.026.025 3.25 1.32 7.719 1.066 4.494-.254 7.211-1.066 7.236-1.066a.225.225 0 0 1 .305.178.224.224 0 0 1-.178.304c-.025 0-2.767.813-7.338 1.092-.431 0-.838.026-1.244.026-3.91 0-6.576-1.092-6.703-1.143z" fill="#1F1F39"/><path d="M151.527 104.904c-.838 2.59-.584 4.444-.127 5.637v-.152a.728.728 0 0 1 .584-.66c.508-.102 1.371-.28 2.362-.61-.356-1.447-.813-3.935-.457-6.068.533-3.225 1.65-5.205 1.65-5.205s-2.336 1.853-4.012 7.058z" fill="#F9ACC0"/><path d="M150.918 107.113c0-.101.025-2.539 1.65-5.789 1.625-3.275 4.063-4.646 4.164-4.697.127-.076.28-.025.356.102.076.127.025.279-.102.355-.025.025-2.386 1.346-3.935 4.469-1.574 3.148-1.6 5.535-1.6 5.56-.025.127-.152.254-.279.254a.255.255 0 0 1-.254-.254z" fill="#1F1F39"/><path d="M177.096 137.506c-4.317-2.819-7.567-3.682-7.567-3.682s-1.091 3.783-2.437 17.799c-.889 9.166.533 20.186 1.625 26.711.051-5.84.508-13.508 2.158-21.557 2.082-10.308 4.57-16.199 6.221-19.271zM184.916 201.566l-13.228-7.007 1.32 7.871 11.908-.864z" fill="#F9ACC0"/><path d="M172.805 202.557c-.026-.127.101-.254.228-.28l12.035-1.142c.153-.025.254.101.28.228.025.127-.102.254-.229.28l-12.06 1.142c.025-.025 0 0 0 0-.127 0-.229-.101-.254-.228zM34.237 234.691c-.132 0-.237-.222-.237-.5 0-.277.105-.5.237-.5h189.526c.132 0 .237.223.237.5 0 .278-.105.5-.237.5H34.237z" fill="#1F1F39"/></g></svg>