<svg width="260" height="260" fill="none" xmlns="http://www.w3.org/2000/svg"><path fill-rule="evenodd" clip-rule="evenodd" d="M200 0c33.137 0 60 26.863 60 60v140c0 33.137-26.863 60-60 60H60c-33.137 0-60-26.863-60-60V60C0 26.863 26.863 0 60 0h140z" fill="#CDECFE"/><path d="M30.088 29.021c.228-.939.406-1.498.406-1.523l.965.33c0 .026-.178.533-.38 1.422l-.991-.229z" fill="#87C0F4"/><path fill-rule="evenodd" clip-rule="evenodd" d="M16.555 220.467c.914-.026 1.904-.153 2.945-.33l.178.99a17.32 17.32 0 0 1-3.098.355l-.025-1.015zm-6.094-.229.482-.889c.813.432 1.727.737 2.717.94l-.203.99a10.445 10.445 0 0 1-2.996-1.041zm11.908-.812.076-.026a48.345 48.345 0 0 0 2.742-.965l.381.94c-.888.355-1.828.711-2.818 1.015h-.102l-.279-.964zm-16.224-3.758.914-.457c.431.888.99 1.701 1.625 2.386l-.762.686a10.564 10.564 0 0 1-1.777-2.615zm21.709 1.472a25.765 25.765 0 0 0 2.488-1.599l.61.812a25.35 25.35 0 0 1-2.616 1.676l-.482-.889zm4.748-3.503a34.1 34.1 0 0 0 2.056-2.159l.762.661a29.97 29.97 0 0 1-2.108 2.234l-.71-.736zm3.935-4.495a57.786 57.786 0 0 0 1.727-2.462l.838.558c-.584.889-1.168 1.752-1.752 2.514l-.813-.61zm3.377-5.002c.508-.812 1.016-1.65 1.574-2.589l.864.507a88.82 88.82 0 0 1-1.575 2.616l-.863-.534zm3.072-5.205c.483-.838.965-1.726 1.473-2.64l.889.482c-.508.94-.99 1.828-1.473 2.666l-.889-.508zm2.946-5.281c.457-.863.94-1.752 1.447-2.666l.889.483c-.508.914-.99 1.802-1.448 2.666l-.888-.483zm2.869-5.332c.457-.863.94-1.752 1.422-2.666l.888.483c-.482.888-.94 1.777-1.421 2.666l-.89-.483zm2.92-5.383c.508-.812 1.142-1.599 1.93-2.463l.736.686c-.711.812-1.346 1.6-1.803 2.336l-.863-.559zm4.164-4.595c.71-.61 1.472-1.27 2.361-1.955l.635.787c-.914.711-1.65 1.32-2.336 1.929l-.66-.761zm4.773-3.784c.711-.507 1.498-1.091 2.463-1.777l.584.838a154.21 154.21 0 0 0-2.437 1.752l-.61-.813zm4.951-3.529c.813-.584 1.65-1.168 2.463-1.752l.584.838c-.812.584-1.65 1.168-2.463 1.752l-.584-.838zm4.926-3.529c.863-.635 1.65-1.244 2.412-1.828l.635.812c-.787.584-1.574 1.168-2.438 1.828l-.609-.812zm4.748-3.758c.787-.66 1.549-1.346 2.26-1.98l.685.736a36.16 36.16 0 0 1-2.285 2.031l-.66-.787zm4.418-4.063a53.573 53.573 0 0 0 2.031-2.208l.762.66a53.348 53.348 0 0 1-2.056 2.259l-.737-.711zm3.885-4.544a34.629 34.629 0 0 0 1.625-2.489l.863.508a27.606 27.606 0 0 1-1.676 2.565l-.812-.584zm119.437-4.063v-1.016c1.016 0 2.032 0 2.997-.05l.05 1.015c-.761.026-1.549.051-2.361.051h-.686zm-6.093-.381.101-1.015c1.016.101 2.031.177 2.996.253l-.05 1.016c-.991-.051-2.006-.152-3.047-.254zm12.111-.914a36.411 36.411 0 0 0 2.971-.431l.177.99c-.99.203-2.005.355-3.046.457l-.102-1.016zm-122.459.203c.406-.888.762-1.828 1.066-2.767l.965.304c-.33.991-.685 1.955-1.091 2.87l-.94-.407zm104.279-.127.178-.99c1.016.178 2.006.33 2.971.457l-.127 1.016c-.99-.127-2.006-.305-3.022-.483zm24.071-1.142c.99-.254 1.929-.584 2.843-.914l.356.939c-.94.356-1.93.686-2.945.965l-.254-.99zm-30.037-.051.228-.99c.99.228 1.981.457 2.945.634l-.203 1.016c-.99-.203-1.98-.432-2.97-.66zm-5.916-1.549.279-.965c.99.28 1.955.559 2.92.787l-.254.991c-.965-.254-1.955-.508-2.945-.813zm41.513-.533c.889-.457 1.752-.99 2.539-1.549l.584.838a28.578 28.578 0 0 1-2.666 1.6l-.457-.889zm-47.328-1.27.33-.964c.965.33 1.93.634 2.895.914l-.33.99c-.965-.305-1.93-.61-2.895-.94zm-84.728-.99c.203-.939.38-1.904.558-2.945l1.016.152a45.669 45.669 0 0 1-.584 3.022l-.99-.229zm78.99-1.015.355-.94c.94.356 1.905.711 2.844 1.041l-.33.94c-.94-.331-1.904-.686-2.869-1.041zm57.89-.127a18.31 18.31 0 0 0 2.006-2.184l.787.635a22.475 22.475 0 0 1-2.107 2.285l-.686-.736zm-63.552-2.108.381-.939c.939.381 1.878.761 2.792 1.142l-.355.94-2.818-1.143zm-5.612-2.463.432-.914c.914.406 1.853.838 2.768 1.244l-.407.914c-.939-.406-1.853-.812-2.793-1.244zm72.846-.025c.482-.838.94-1.727 1.346-2.641l.939.407a34.822 34.822 0 0 1-1.422 2.742l-.863-.508zm-139.623-.178c.102-1.041.203-2.082.28-3.021l1.015.101c-.076.914-.178 1.955-.28 3.022l-1.015-.102zm61.293-2.412.457-.914c.889.457 1.803.889 2.717 1.32l-.432.94c-.914-.432-1.828-.889-2.742-1.346zm-5.408-2.793.482-.889c.889.483 1.778.965 2.666 1.422l-.457.889c-.914-.482-1.803-.965-2.691-1.422zm86.125-.076c.304-.965.558-1.93.761-2.869l.991.203c-.203.99-.483 1.98-.787 2.971l-.965-.305zm-141.451-.762c.127-1.168.254-2.158.406-3.047l.99.178a76.672 76.672 0 0 0-.38 2.971l-1.016-.102zm50.045-2.183.507-.864c.838.508 1.727 1.016 2.616 1.524l-.483.863a255.342 255.342 0 0 1-2.64-1.523zm-5.18-3.25.558-.838c.838.533 1.676 1.091 2.539 1.625l-.533.863a89.693 89.693 0 0 1-2.564-1.65zm97.805.38c.076-.812.126-1.625.126-2.437v-.533l1.016-.026v.559c0 .838-.051 1.676-.127 2.539l-1.015-.102zm-141.553-1.015c.33-1.067.685-2.006 1.142-2.895l.914.457a16.409 16.409 0 0 0-1.091 2.717l-.965-.279zm38.72-2.844.61-.812a103.01 103.01 0 0 0 2.463 1.752l-.584.837a70.59 70.59 0 0 1-2.489-1.777zm-4.773-3.809.66-.761c.711.635 1.498 1.269 2.311 1.929l-.61.788a69.523 69.523 0 0 1-2.361-1.956zm-31.027 1.168a13.817 13.817 0 0 1 1.98-1.853l.33-.254.61.813-.33.253a9.711 9.711 0 0 0-1.829 1.702l-.761-.661zm137.871-2.31.965-.279c.279.99.507 2.005.685 3.021l-1.015.152a22.808 22.808 0 0 0-.635-2.894zm-133.098-1.625a88.485 88.485 0 0 1 2.514-1.727l.558.838c-.837.584-1.675 1.143-2.488 1.727l-.584-.838zm21.887-1.574.787-.66c.584.71 1.27 1.421 2.031 2.183l-.711.736c-.787-.787-1.498-1.523-2.107-2.259zm108.773-2.209.864-.534c.533.889 1.041 1.803 1.447 2.743l-.914.406a21.561 21.561 0 0 0-1.397-2.615zm-125.582.431a89.07 89.07 0 0 1 2.641-1.548l.508.888c-.889.508-1.752 1.016-2.616 1.524l-.533-.864zm14.27-2.107a25.666 25.666 0 0 1-.559-1.473l.965-.33c.178.483.356.965.533 1.422.178.406.381.813.635 1.244l-.863.508c-.28-.482-.533-.939-.711-1.371zm-8.938-.863c.889-.457 1.803-.914 2.717-1.371l.432.914c-.889.431-1.803.888-2.692 1.345l-.457-.888zm116.569-2.108.711-.711a25.34 25.34 0 0 1 2.056 2.311l-.787.609a26.687 26.687 0 0 0-1.98-2.209zm-111.084-.558a92.213 92.213 0 0 1 2.361-1.016l-.305.076c-.203-.965-.406-1.98-.533-3.021l1.016-.127c.152 1.015.33 2.006.533 2.945l-.229.051.356.863c-.94.381-1.879.762-2.793 1.168l-.406-.939zm5.662-2.286a95.759 95.759 0 0 1 2.869-1.015l.33.965c-.965.33-1.93.66-2.844 1.015l-.355-.965zm100.775-.888.559-.838a36.916 36.916 0 0 1 2.488 1.828l-.635.762a33.938 33.938 0 0 0-2.412-1.752zm-95.012-1.041c.965-.305 1.956-.584 2.92-.864l.28.991c-.965.254-1.955.533-2.895.838l-.305-.965zm89.782-1.828.406-.914c.939.431 1.879.888 2.742 1.371l-.457.863a37.793 37.793 0 0 0-2.691-1.32zm-83.916.177c.965-.254 1.98-.482 2.97-.711l.229.991c-.99.228-1.981.457-2.945.711l-.254-.991zm5.941-1.32c.99-.203 1.981-.381 2.996-.559l.178.991a60.78 60.78 0 0 0-2.971.558l-.203-.99zm-22.191-2.87 1.015-.024a53.47 53.47 0 0 0 .153 2.996l-1.016.076a55.393 55.393 0 0 1-.152-3.047zm94.554 1.93.28-.964c.99.305 1.98.61 2.92.965l-.356.939a46.7 46.7 0 0 0-2.844-.94zm-66.345-.152c.99-.152 2.006-.304 3.021-.457l.152 1.016c-1.041.152-2.056.279-3.021.457l-.152-1.016zm6.017-.838c.99-.127 2.006-.228 3.022-.355l.101 1.016c-1.015.101-2.006.228-2.996.355l-.127-1.016zm6.043-.66c.99-.101 2.006-.177 3.022-.254l.076 1.016c-1.016.102-2.031.178-2.996.254l-.102-1.016zm48.42.28.178-.99c1.015.177 2.031.38 2.996.609l-.229.99a54.907 54.907 0 0 0-2.945-.61zm-42.351-.737c1.015-.076 2.031-.127 3.046-.177l.051 1.015c-.99.05-2.006.102-3.021.178l-.076-1.016zm6.068-.355c1.016-.051 2.031-.102 3.047-.127l.051 1.015c-1.016.051-2.032.077-3.047.127l-.051-1.015zm6.068-.254c1.016-.051 2.032-.076 3.047-.102l.026 1.016c-.991.025-2.006.076-3.022.101l-.051-1.015zm24.248.584.077-1.016c1.015.076 2.056.203 3.046.305l-.127 1.016a54.177 54.177 0 0 0-2.996-.305zm-18.154-.813c1.016-.025 2.031-.076 3.022-.127l.05 1.016c-1.015.05-2.031.102-3.047.127l-.025-1.016zm6.043-.228c.609-.026 1.219-.051 1.828-.102.406-.025.813-.05 1.219-.05l.051 1.015c-.407.026-.787.026-1.194.05-.634.026-1.244.052-1.853.102l-.051-1.015zm6.195.812h-.101v-1.015h.101c.991 0 1.981.025 2.946.05l-.026 1.016c-.965-.025-1.929-.05-2.92-.05zm-76.832-2.615c0-.94.026-1.93.051-3.047l1.016.026c-.026 1.091-.026 2.082-.051 3.021h-1.016zm.178-6.12c.025-.735.051-1.472.102-2.208l.025-.813 1.016.051-.026.813c-.051.736-.076 1.472-.101 2.209l-1.016-.051zm.254-6.042c.051-1.117.076-2.108.076-3.021l1.016.025c0 .914-.051 1.904-.076 3.021l-1.016-.025zm-.051-9.04 1.016-.075c.051.965.101 1.955.127 3.047l-1.016.025c-.025-1.092-.051-2.057-.127-2.996zm-.838-5.915.99-.254c.229.94.432 1.955.584 3.021l-1.015.153c-.152-1.041-.33-2.031-.559-2.92zm-2.285-5.408.838-.559a16.777 16.777 0 0 1 1.473 2.768l-.94.38a15.627 15.627 0 0 0-1.371-2.59zm-57.941-1.422.05-1.016c.864.05 1.752.076 2.692.076h.33v1.016h-.33c-.94 0-1.854-.025-2.742-.076zm6.094-1.041c.964-.051 1.955-.153 2.996-.254l.101 1.016c-1.066.101-2.082.203-3.047.253l-.05-1.015zm-12.163.101.254-.99c.94.229 1.93.432 2.92.584l-.152 1.016a27.642 27.642 0 0 1-3.022-.61zm18.155-.736c.94-.127 1.93-.28 2.996-.457l.152.99a60.841 60.841 0 0 1-3.021.483l-.127-1.016zm41.615-.762.482-.888a13.27 13.27 0 0 1 2.565 1.802l-.686.762a13.203 13.203 0 0 0-2.361-1.676zm-35.674-.177 2.97-.534.178.99c-.964.178-1.955.356-2.97.534l-.178-.99zm-29.885-.508.483-.889c.863.457 1.777.863 2.691 1.219l-.355.94c-.965-.382-1.93-.788-2.819-1.27zm35.877-.584c.99-.178 2.006-.356 2.996-.533l.178.99c-1.016.178-2.006.355-2.996.533l-.178-.99zm24.071-.559.177-.99c1.041.203 2.057.457 2.996.762l-.279.94a24.128 24.128 0 0 0-2.894-.712zm-18.079-.508c1.067-.177 2.057-.304 3.022-.457l.127 1.016c-.965.127-1.93.28-2.996.457l-.153-1.016zm6.043-.787a72.385 72.385 0 0 1 3.047-.228l.051 1.015c-.965.051-1.955.127-2.996.229l-.102-1.016zm6.094.711v-1.015c1.067 0 2.082.05 3.072.152l-.076 1.016a54.915 54.915 0 0 0-2.996-.153zM38.01 54.26l.66-.788c.737.635 1.55 1.22 2.388 1.803l-.584.838a31.161 31.161 0 0 1-2.463-1.853zm-4.189-4.52.838-.584a19.961 19.961 0 0 0 1.88 2.285l-.763.686a24.362 24.362 0 0 1-1.955-2.387zm-2.92-5.459.965-.355c.33.94.737 1.828 1.219 2.716l-.914.457a23.354 23.354 0 0 1-1.27-2.818zm-1.37-6.017 1.015-.102c.101.99.254 1.98.482 2.92l-.99.228a23.843 23.843 0 0 1-.508-3.047zm-.153-3.098c0-1.016.076-2.057.178-3.072l1.015.127a37.413 37.413 0 0 0-.177 2.945h-1.016z" fill="#87C0F4"/><path d="m4.824 211.047 1.016-.051s.025.584.228 1.422l-.99.203c-.203-.939-.228-1.549-.254-1.574z" fill="#87C0F4"/><path d="M118.574 67.285c-11.68 5.84-13.203 18.535-14.219 26.153-1.015 7.617-5.332 18.027-11.933 23.613-6.602 5.586-12.188 11.679-14.727 25.137-2.539 13.457 1.016 22.851-2.793 35.039-3.808 12.187-15.742 28.945-14.98 42.656.762 13.711 12.441 12.187 12.441 12.187h154.883s7.44-18.002 1.016-39.863c-5.586-19.043-22.344-21.836-26.914-46.719-2.362-12.847-2.032-16.504-11.426-28.437-9.674-12.289-16.25-12.442-20.567-23.614-4.316-11.171-6.855-32.246-32.5-25.898 0 0-6.601-6.094-18.281-.254z" fill="#1F1F39"/><path d="M208.939 231.943h-39.837l-9.903-38.466 42.225-6.678 7.515 45.144z" fill="#F9D2DD"/><path d="M34.277 206.934c-8.125-1.524-21.328-9.902-19.804-27.676 1.523-17.773 34.785-70.078 34.785-70.078s-5.332-6.094-3.047-13.457c2.285-7.363 10.41-9.395 15.742-9.648 5.332-.254 9.14 1.015 9.14 1.015l11.68-16.504s2.54-3.3 5.586-1.777c3.047 1.523-3.046 11.426-3.046 11.426L79.727 91.66s-1.016 9.903-3.301 15.489-3.555 6.855-3.555 6.855l-12.187 40.117 13.964-3.808-12.695 52.558s-19.55 5.586-27.676 4.063z" fill="#FFEBF0"/><path d="m61.953 202.871 12.695-52.559-12.492 3.403-12.39 51.949c8.556-1.117 12.187-2.793 12.187-2.793zM159.199 193.477l3.504 13.66 43.291 7.185-4.57-27.523-42.225 6.678z" fill="#F9ACC0"/><path d="M205.918 206.172s-5.84-57.637-34.785-66.523c-28.945-8.887-49.004-6.094-58.145-3.301-9.14 2.793-48.242 15.234-48.242 15.234l-8.379 55.606 22.598-2.286-3.809 27.168h100.09s-2.082-15.996-4.621-25.898h35.293z" fill="#3D5CFF"/><path d="M205.918 206.172s-5.84-57.637-34.785-66.523c-28.945-8.887-49.004-6.094-58.145-3.301-9.14 2.793-48.242 15.234-48.242 15.234l-8.379 55.606 22.598-2.286-3.809 27.168h100.09s-2.082-15.996-4.621-25.898h35.293z" fill="#3D5CFF"/><path d="M200.357 181.949c-3.884-4.367-14.218-14.548-26.634-15.132-10.258-.483-12.797-6.78-15.057-12.315-1.447-3.555-2.793-6.931-5.916-8.836-5.662-3.453-11.477-1.599-18.789.737-3.25 1.041-6.602 2.107-10.359 2.843-6.577 1.295-10.588-1.675-12.823-4.392-2.386-2.92-3.224-6.094-3.275-6.246-.076-.28.101-.559.355-.61a.49.49 0 0 1 .61.356c0 .025.838 3.123 3.097 5.865 2.996 3.631 6.957 4.977 11.832 4.037 3.682-.736 7.034-1.803 10.258-2.818 7.287-2.336 13.584-4.342 19.627-.635 3.403 2.082 4.901 5.764 6.348 9.318 2.234 5.535 4.545 11.248 14.168 11.68 12.797.584 23.385 11.02 27.346 15.463.177.203.177.533-.051.711a.608.608 0 0 1-.356.152.458.458 0 0 1-.381-.178zM124.871 227.525c-.457-11.679-6.5-13.38-13.482-15.336-3.25-.914-6.627-1.853-9.547-3.91-6.424-4.494-5.662-9.242-4.774-14.752.407-2.513.838-5.357.686-8.506-.432-8.125-6.983-10.308-16.022-13.304a193.804 193.804 0 0 1-5.306-1.828c-4.85-1.752-7.44-5.815-7.49-11.705-.051-4.368 1.294-8.151 1.345-8.329l.965.331c-.025.025-1.346 3.808-1.295 7.998.076 5.484 2.361 9.115 6.83 10.74 1.803.66 3.58 1.244 5.281 1.803 9.09 3.021 16.25 5.408 16.733 14.218.178 3.25-.28 6.145-.686 8.709-.888 5.586-1.523 9.649 4.368 13.762 2.792 1.955 6.068 2.869 9.242 3.758 7.058 1.98 13.736 3.834 14.218 16.275a38.07 38.07 0 0 0 .407 4.418l-1.067.178a39.4 39.4 0 0 1-.406-4.52zM148.281 182.381a186.895 186.895 0 0 1-3.758-.61c-7.109-1.269-8.074-5.89-9.089-10.765-.61-2.945-1.27-5.992-3.149-8.912-3.021-4.647-8.125-3.479-15.183-1.854-4.545 1.041-9.674 2.209-15.387 2.057-4.291-.127-10.131-1.752-13.711-8.887-2.108-4.215-2.412-8.328-2.412-8.506l1.015-.076c0 .051.305 4.113 2.336 8.151 2.692 5.357 7.008 8.15 12.823 8.302 5.586.153 10.638-1.015 15.132-2.031 7.186-1.65 12.848-2.945 16.276 2.285 2.006 3.072 2.691 6.348 3.301 9.242 1.041 4.926 1.853 8.836 8.277 9.979 1.32.228 2.539.431 3.732.609 6.932 1.092 11.528 1.803 17.952 8.709l-.788.711c-6.195-6.652-10.638-7.338-17.367-8.404z" fill="#EAEAFF"/><path d="M109.18 94.96c-3.555 3.047-1.524 9.395 3.301 11.172 4.824 1.778 6.093.508 6.093.508l-2.285-12.187s-3.555-2.54-7.109.508z" fill="#F9ACC0"/><path d="M117.812 111.465c2.793 6.348 8.633 8.125 8.633 8.125s.508 4.57-.508 9.14c-1.015 4.571-2.285 7.11-2.285 7.11s1.524 3.301 12.188 3.808c10.664.508 12.187-3.808 12.187-3.808s-1.269-7.11-1.015-12.188 1.777-12.949 1.777-12.949 6.855 2.285 11.172-2.031c4.316-4.317 3.301-12.441-2.031-12.95-5.332-.507-8.125 4.063-8.125 4.063s-7.618-3.554-10.664-9.394c-3.047-5.84-3.301-9.903-3.301-9.903s-14.727 2.031-19.805 13.965c0 0-1.016 10.664 1.777 17.012z" fill="#F9D2DD"/><path fill-rule="evenodd" clip-rule="evenodd" d="M123.779 101.055c-.911 0-1.65-.91-1.65-2.032 0-1.121.739-2.03 1.65-2.03.912 0 1.651.909 1.651 2.03 0 1.122-.739 2.032-1.651 2.032zM136.729 101.816c-.912 0-1.651-.909-1.651-2.03 0-1.123.739-2.032 1.651-2.032.911 0 1.65.91 1.65 2.031 0 1.122-.739 2.031-1.65 2.031z" fill="#1F1F39"/><path d="M134.063 107.148c1.015-.254 3.046-1.777 3.046-1.777s.508-.254.762 0-1.371 3.148-2.793 3.554c-1.777.508-3.047-.254-3.808-1.269-.762-1.016.254-.762.254-.762s1.523.508 2.539.254z" fill="#F95368"/><path d="M129.01 99.1c-.305.533-.584 1.091-.762 1.65-.076.279-.127.559-.101.812 0 .077.025.127.025.178l.076.203c.051.127.127.254.203.381.305.457.914.737 1.524.762a1.763 1.763 0 0 1-.965.025 1.558 1.558 0 0 1-.863-.533c-.127-.127-.204-.279-.305-.432l-.102-.228c-.025-.076-.05-.178-.076-.279-.076-.356 0-.711.076-1.041.203-.635.534-1.194.914-1.727A8.617 8.617 0 0 1 130 97.5l-.99 1.6z" fill="#1F1F39"/><path d="M180.984 206.172c-1.193-3.783-5.611-17.266-10.613-26.152-5.84-10.411-13.203-17.774-13.203-17.774s6.297 18.231 8.125 24.375c1.803 6.018 6.424 24.324 6.424 24.324-.356-1.675-.711-3.3-1.092-4.773h10.359z" fill="#224BF4"/><path d="M136.449 92.88c.508-.179 1.016-.305 1.549-.33.533-.026 1.092.025 1.6.202.507.178 1.015.457 1.295.94-.483-.203-.965-.28-1.448-.356a8.914 8.914 0 0 0-1.422-.025c-.482.025-.964.076-1.447.152l-1.498.229c.406-.356.863-.61 1.371-.813zM121.189 91.279a5.786 5.786 0 0 1 3.809.863c.279.178.533.406.762.66.203.254.406.559.431.889a2.23 2.23 0 0 0-.685-.61 8.023 8.023 0 0 0-.813-.406 14.708 14.708 0 0 0-1.701-.558 10.336 10.336 0 0 0-1.777-.254c-.61 0-1.244 0-1.879.05.559-.355 1.193-.532 1.853-.634z" fill="#1F1F39"/><path fill-rule="evenodd" clip-rule="evenodd" d="M234.102 231.816v.84H25.898v-.84h208.204z" fill="#1F1F39"/><path d="M67.133 110.652c-.153-.127-3.631-3.173-4.393-8.277-.38-2.488-.228-6.018 1.346-7.871.457-.508.94-.787 1.447-.787 1.32 0 1.803.99 2.615 2.64.254.534.559 1.118.914 1.803 1.498 2.717 5.764 7.008 5.79 7.059a.245.245 0 0 1 0 .355.245.245 0 0 1-.356 0c-.178-.178-4.367-4.367-5.89-7.16-.381-.686-.66-1.295-.94-1.828-.813-1.676-1.194-2.361-2.158-2.361-.33 0-.711.228-1.067.609-.914 1.066-1.803 3.682-1.244 7.465.736 4.926 4.19 7.947 4.24 7.972.102.102.127.254.026.356-.026.051-.102.076-.178.076a.268.268 0 0 1-.152-.051z" fill="#1F1F39"/><path d="M55.91 101.436c-3.935-1.321-3.986-3.2-3.986-3.276 0-.152.101-.254.254-.254.127 0 .254.102.254.254 0 .026.101 1.625 3.63 2.819 3.631 1.218 6.551-.737 6.577-.737.127-.076.279-.051.355.076.076.127.05.28-.076.356-.076 0-1.853 1.168-4.367 1.193a8.567 8.567 0 0 1-2.64-.431z" fill="#1F1F39"/><path d="M139.648 120.098s-6.296 1.879-13.152-.051c.102 1.269.279 4.976-.559 8.683-.076.356-.152.686-.228.991 2.285.025 5.865-.305 9.623-2.26 6.348-3.301 7.363-8.125 7.363-8.125s-.254 0-3.047.762z" fill="#F9ACC0"/><path d="M47.607 156.584c-.025-.127.051-.279.203-.305l16.707-3.402c.127-.026.28.051.305.203.026.127-.05.279-.203.305l-16.707 3.402h-.05a.247.247 0 0 1-.255-.203zM131.904 121.241c-1.32-.051-2.64-.28-3.961-.635-.533-.153-1.066-.305-1.574-.508-.127-.051-.203-.203-.152-.33.051-.127.203-.203.33-.152.508.177 1.016.355 1.549.482a16.72 16.72 0 0 0 3.859.609c5.459.254 9.496-1.244 9.547-1.244.127-.051.279.026.33.153.051.126-.025.279-.152.33-.076.025-3.606 1.32-8.532 1.32-.406 0-.837 0-1.244-.025zM115.654 105.244c0-.025-.025-1.498-1.498-4.189-1.447-2.64-2.666-3.174-2.666-3.2-.127-.05-.203-.202-.127-.33.077-.126.204-.203.33-.152.051.026 1.372.584 2.92 3.403 1.549 2.818 1.549 4.367 1.549 4.443 0 .178-.101.279-.254.279-.152 0-.254-.101-.254-.254zM170.168 205.944c-.939-3.2-2.311-8.151-3.631-13.661-2.514-10.537-9.572-29.732-9.648-29.935-.051-.127.025-.279.152-.33.127-.051.279.025.33.152.076.203 7.135 19.424 9.649 29.987a319.292 319.292 0 0 0 3.605 13.634c.051.127-.051.28-.178.305.026 0 0 .025-.025.025-.102 0-.203-.076-.254-.177z" fill="#1F1F39"/><path d="M96.738 43.672c-.025.33 0 .508 0 .508v-.508z" fill="#EAEAFF"/><path fill-rule="evenodd" clip-rule="evenodd" d="M80.26 19.373a5.223 5.223 0 0 0-5.23 5.23v15.21a5.223 5.223 0 0 0 5.23 5.23h7.846v9.166c0 .736.584 1.32 1.32 1.32h.406c.406.076.863 0 1.193-.33l10.766-10.13h12.467a5.223 5.223 0 0 0 5.23-5.231V24.603c-.025-2.894-2.361-5.23-5.256-5.23H80.26zm8.607 12.873c-2.539-4.824-1.27-7.617-1.27-7.617s4.596-.61 7.11 3.047c2.209 3.199 2.514 6.398 2.54 7.617.1-.914.71-2.945 4.062-5.332 3.554-2.54 6.855-1.523 6.855-1.523s2.285 8.632-11.68 10.664c0 0-5.078-2.032-7.617-6.856z" fill="#fff"/><path d="M101.562 34.531c3.047-2.539 5.333-4.824 5.333-4.824s-1.778.762-4.063 2.54c-2.285 1.776-6.348 6.347-6.348 6.347s2.032-1.524 5.078-4.063z" fill="#fff"/><path d="M92.168 32.246c2.285 4.316 4.316 6.348 4.316 6.348s-1.27-2.793-2.793-5.84c-1.523-3.047-4.062-6.094-4.062-6.094s.254 1.27 2.539 5.586z" fill="#fff"/><path fill-rule="evenodd" clip-rule="evenodd" d="M178.902 60.76a5.223 5.223 0 0 0-5.23 5.23V81.2a5.223 5.223 0 0 0 5.23 5.23h12.467l10.766 10.13c.33.33.787.407 1.193.33h.406c.737 0 1.321-.583 1.321-1.32v-9.166h7.845a5.223 5.223 0 0 0 5.231-5.23v-15.21a5.256 5.256 0 0 0-5.256-5.204h-33.973zm15.92 19.525c-.051 0-.076 0-.127-.025l-5.408-1.854a.93.93 0 0 1-.635-.888V67.69c0-.533.407-.94.94-.964.101 0 .203.025.304.05l4.774 1.625a.934.934 0 0 1 .609.864v10.587c0 .254-.203.432-.457.432zm2.26 0a.447.447 0 0 1-.559-.28c-.025-.05-.025-.1-.025-.151V69.266c0-.381.254-.737.609-.864l4.774-1.625a.925.925 0 0 1 1.193.584c.026.102.051.203.051.305v9.826c0 .457-.254.813-.635.94l-5.408 1.853z" fill="#fff"/><path fill-rule="evenodd" clip-rule="evenodd" d="M143.33 107.91c-2.734 0-4.951-1.364-4.951-3.047 0-1.682 2.217-3.047 4.951-3.047 2.735 0 4.951 1.365 4.951 3.047 0 1.683-2.216 3.047-4.951 3.047z" fill="#F9ACC0"/><path d="M115.984 102.705c.102 1.524.28 3.098.584 4.621a7.251 7.251 0 0 0 2.895.584c2.742 0 4.951-1.371 4.951-3.047 0-1.675-2.209-3.047-4.951-3.047-1.371 0-2.59.33-3.479.889zM148.764 110.906c.025-.127.025-.203.025-.203s1.447.483 3.428.584c-.026-.178-.076-.355-.127-.584-1.016-3.047 2.285-8.887 2.285-8.887s-3.555.762-5.078 5.84c-.381 1.27-.533 2.438-.533 3.25z" fill="#F9ACC0"/><path d="M148.84 108.52a.254.254 0 0 1-.152-.33c.025-.076.533-1.6 2.31-4.139 1.803-2.564 3.809-3.605 3.91-3.631.127-.05.28 0 .33.102.051.127 0 .279-.101.33-.026 0-2.006 1.016-3.707 3.478-1.727 2.489-2.26 3.987-2.26 3.987-.051.152-.152.228-.254.228-.025 0-.051 0-.076-.025z" fill="#1F1F39"/><path d="M85.592 174.18s-3.073 11.705-10.182 21.099c-4.926 6.526-13.635 10.233-18.535 11.883l21.912-2.234 6.805-30.748z" fill="#224BF4"/><path d="M78.94 205.156a.297.297 0 0 1-.23-.279c0-.076 1.042-8.227 2.794-16.022 1.752-7.794 5.814-21.709 5.84-21.861a.276.276 0 0 1 .304-.178.276.276 0 0 1 .178.305c-.05.127-4.088 14.041-5.84 21.811-1.752 7.769-2.767 15.894-2.793 15.97 0 .153-.101.254-.228.254h-.026z" fill="#1F1F39"/></svg>